M48
;DRILL FILE
;Generated by LibrePCB 0.1.1-unstable
;Creation Date: 2019-07-14T01:55:39
FMAT,2
METRIC,TZ
T1C0.8
T2C3.0
%
G90
G05
M71
T1
X34.290432Y-27.940352
X6.349216Y-10.161376
X21.589216Y-35.561376
X21.589216Y-50.801376
X6.349216Y-25.401376
X21.589216Y-45.721376
X21.589216Y-38.101376
X21.589216Y-43.181376
X6.349216Y-48.261376
X21.589216Y-20.321376
X21.589216Y-15.241376
X21.589216Y-10.161376
X6.349216Y-33.021376
X6.349216Y-35.561376
X6.349216Y-5.081376
X21.589216Y-17.781376
X6.349216Y-20.321376
X21.589216Y-48.261376
X6.349216Y-38.101376
X6.349216Y-45.721376
X21.589216Y-40.641376
X21.589216Y-25.401376
X6.349216Y-27.941376
X21.589216Y-7.621376
X6.349216Y-53.341376
X21.589216Y-33.021376
X6.349216Y-15.241376
X21.589216Y-22.861376
X21.589216Y-53.341376
X6.349216Y-22.861376
X21.589216Y-30.481376
X21.589216Y-5.081376
X6.349216Y-40.641376
X6.349216Y-50.801376
X6.349216Y-30.481376
X21.589216Y-12.701376
X21.589216Y-27.941376
X6.349216Y-12.701376
X6.349216Y-7.621376
X6.349216Y-17.781376
X6.349216Y-43.181376
X44.45056Y-10.160128
X44.45056Y-15.240128
X44.45056Y-5.080128
X34.290432Y-10.160128
X34.290432Y-15.240128
X34.290432Y-5.080128
T2
X2.857536Y-62.230784
X40.005504Y-23.495296
T0
M30
