G04 --- HEADER BEGIN --- *
%TF.GenerationSoftware,LibrePCB,LibrePCB,0.1.1-unstable*%
%TF.CreationDate,2019-07-14T01:55:39*%
%TF.ProjectId,desklift - other_routing,146e283d-8dba-42bd-9080-c603e88aa634,v3*%
%TF.Part,Single*%
%FSLAX66Y66*%
%MOMM*%
G01*
G74*
G04 --- HEADER END --- *
G04 --- APERTURE LIST BEGIN --- *
%ADD10R,1.0X3.16*%
%ADD11O,2.54X1.27*%
%ADD12R,1.25X1.65*%
%ADD13C,0.0*%
%ADD14C,0.2*%
%ADD15R,1.0X0.45*%
%ADD16C,2.0*%
%ADD17C,1.0*%
%ADD18C,0.3*%
G04 --- APERTURE LIST END --- *
G04 --- BOARD BEGIN --- *
D10*
X44450480Y-33210464D03*
X44450480Y-40450464D03*
X39370480Y-33210464D03*
X36830480Y-33210464D03*
X34290480Y-33210464D03*
X34290480Y-40450464D03*
X36830480Y-40450464D03*
X39370480Y-40450464D03*
D11*
X34290432Y-5080128D03*
X34290432Y-15240128D03*
X34290432Y-10160128D03*
D10*
X44450480Y-49720672D03*
X44450480Y-56960672D03*
X39370480Y-49720672D03*
X36830480Y-49720672D03*
X34290480Y-49720672D03*
X34290480Y-56960672D03*
X36830480Y-56960672D03*
X39370480Y-56960672D03*
D12*
X15495176Y-10160128D03*
X12445176Y-10160128D03*
D13*
X8045088Y-61895776D02*
X8465088Y-61895776D01*
X8465088Y-62095776D01*
X8045088Y-62095776D01*
X8045088Y-61895776D01*
G36*
X8045088Y-61895776D02*
X8465088Y-61895776D01*
X8465088Y-62095776D01*
X8045088Y-62095776D01*
X8045088Y-61895776D01*
G37*
X6885088Y-60535776D02*
X7085088Y-60535776D01*
X7085088Y-60115776D01*
X6885088Y-60115776D01*
X6885088Y-60535776D01*
G36*
X6885088Y-60535776D02*
X7085088Y-60535776D01*
X7085088Y-60115776D01*
X6885088Y-60115776D01*
X6885088Y-60535776D01*
G37*
X6485088Y-60535776D02*
X6685088Y-60535776D01*
X6685088Y-60115776D01*
X6485088Y-60115776D01*
X6485088Y-60535776D01*
G36*
X6485088Y-60535776D02*
X6685088Y-60535776D01*
X6685088Y-60115776D01*
X6485088Y-60115776D01*
X6485088Y-60535776D01*
G37*
X5925088Y-61095776D02*
X5505088Y-61095776D01*
X5505088Y-61295776D01*
X5925088Y-61295776D01*
X5925088Y-61095776D01*
G36*
X5925088Y-61095776D02*
X5505088Y-61095776D01*
X5505088Y-61295776D01*
X5925088Y-61295776D01*
X5925088Y-61095776D01*
G37*
X6885088Y-62655776D02*
X7085088Y-62655776D01*
X7085088Y-63075776D01*
X6885088Y-63075776D01*
X6885088Y-62655776D01*
G36*
X6885088Y-62655776D02*
X7085088Y-62655776D01*
X7085088Y-63075776D01*
X6885088Y-63075776D01*
X6885088Y-62655776D01*
G37*
X6350088Y-60748776D02*
X7620088Y-60748776D01*
G02*
X7832088Y-60960776I0J212000D01*
G01*
X7832088Y-62230776D01*
G02*
X7620088Y-62442776I212000J0D01*
G01*
X6350088Y-62442776D01*
G02*
X6138088Y-62230776I0J212000D01*
G01*
X6138088Y-61130776D01*
X6353088Y-61130776D01*
G03*
X6520088Y-61297776I167000J0D01*
G01*
G03*
X6687088Y-61130776I0J167000D01*
G01*
G03*
X6520088Y-60963776I167000J0D01*
G01*
G03*
X6353088Y-61130776I0J167000D01*
G01*
X6138088Y-61130776D01*
X6138088Y-60960776D01*
G02*
X6350088Y-60748776I212000J0D01*
G01*
G36*
X6350088Y-60748776D02*
X7620088Y-60748776D01*
G02*
X7832088Y-60960776I0J212000D01*
G01*
X7832088Y-62230776D01*
G02*
X7620088Y-62442776I212000J0D01*
G01*
X6350088Y-62442776D01*
G02*
X6138088Y-62230776I0J212000D01*
G01*
X6138088Y-61130776D01*
X6353088Y-61130776D01*
G03*
X6520088Y-61297776I167000J0D01*
G01*
G03*
X6687088Y-61130776I0J167000D01*
G01*
G03*
X6520088Y-60963776I167000J0D01*
G01*
G03*
X6353088Y-61130776I0J167000D01*
G01*
X6138088Y-61130776D01*
X6138088Y-60960776D01*
G02*
X6350088Y-60748776I212000J0D01*
G01*
G37*
X8045088Y-61095776D02*
X8465088Y-61095776D01*
X8465088Y-61295776D01*
X8045088Y-61295776D01*
X8045088Y-61095776D01*
G36*
X8045088Y-61095776D02*
X8465088Y-61095776D01*
X8465088Y-61295776D01*
X8045088Y-61295776D01*
X8045088Y-61095776D01*
G37*
X7285088Y-60535776D02*
X7485088Y-60535776D01*
X7485088Y-60115776D01*
X7285088Y-60115776D01*
X7285088Y-60535776D01*
G36*
X7285088Y-60535776D02*
X7485088Y-60535776D01*
X7485088Y-60115776D01*
X7285088Y-60115776D01*
X7285088Y-60535776D01*
G37*
X5925088Y-61495776D02*
X5505088Y-61495776D01*
X5505088Y-61695776D01*
X5925088Y-61695776D01*
X5925088Y-61495776D01*
G36*
X5925088Y-61495776D02*
X5505088Y-61495776D01*
X5505088Y-61695776D01*
X5925088Y-61695776D01*
X5925088Y-61495776D01*
G37*
X6485088Y-62655776D02*
X6685088Y-62655776D01*
X6685088Y-63075776D01*
X6485088Y-63075776D01*
X6485088Y-62655776D01*
G36*
X6485088Y-62655776D02*
X6685088Y-62655776D01*
X6685088Y-63075776D01*
X6485088Y-63075776D01*
X6485088Y-62655776D01*
G37*
X5925088Y-61895776D02*
X5505088Y-61895776D01*
X5505088Y-62095776D01*
X5925088Y-62095776D01*
X5925088Y-61895776D01*
G36*
X5925088Y-61895776D02*
X5505088Y-61895776D01*
X5505088Y-62095776D01*
X5925088Y-62095776D01*
X5925088Y-61895776D01*
G37*
X7285088Y-62655776D02*
X7485088Y-62655776D01*
X7485088Y-63075776D01*
X7285088Y-63075776D01*
X7285088Y-62655776D01*
G36*
X7285088Y-62655776D02*
X7485088Y-62655776D01*
X7485088Y-63075776D01*
X7285088Y-63075776D01*
X7285088Y-62655776D01*
G37*
X8045088Y-61495776D02*
X8465088Y-61495776D01*
X8465088Y-61695776D01*
X8045088Y-61695776D01*
X8045088Y-61495776D01*
G36*
X8045088Y-61495776D02*
X8465088Y-61495776D01*
X8465088Y-61695776D01*
X8045088Y-61695776D01*
X8045088Y-61495776D01*
G37*
D14*
X9085088Y-61355776D02*
X9085088Y-60355776D01*
X9418421Y-61070220D01*
X9751755Y-60355776D01*
X9751755Y-61355776D01*
X10628422Y-61355776D02*
X10628422Y-60832443D01*
X10580644Y-60736887D01*
X10485088Y-60689109D01*
X10295088Y-60689109D01*
X10199533Y-60736887D01*
X10628422Y-61307998D02*
X10532866Y-61355776D01*
X10295088Y-61355776D01*
X10199533Y-61307998D01*
X10151755Y-61212443D01*
X10151755Y-61117998D01*
X10199533Y-61022443D01*
X10295088Y-60974665D01*
X10532866Y-60974665D01*
X10628422Y-60926887D01*
X11505089Y-61355776D02*
X11505089Y-60355776D01*
X11505089Y-61307998D02*
X11409533Y-61355776D01*
X11218422Y-61355776D01*
X11123978Y-61307998D01*
X11076200Y-61260220D01*
X11028422Y-61165776D01*
X11028422Y-60879109D01*
X11076200Y-60784665D01*
X11123978Y-60736887D01*
X11218422Y-60689109D01*
X11409533Y-60689109D01*
X11505089Y-60736887D01*
X12333978Y-61307998D02*
X12238422Y-61355776D01*
X12048422Y-61355776D01*
X11952867Y-61307998D01*
X11905089Y-61212443D01*
X11905089Y-60832443D01*
X11952867Y-60736887D01*
X12048422Y-60689109D01*
X12238422Y-60689109D01*
X12333978Y-60736887D01*
X12381756Y-60832443D01*
X12381756Y-60926887D01*
X11905089Y-61022443D01*
X13581755Y-60355776D02*
X13819533Y-61355776D01*
X14010644Y-60641332D01*
X14200644Y-61355776D01*
X14438422Y-60355776D01*
X14886200Y-61355776D02*
X14886200Y-60689109D01*
X14886200Y-60355776D02*
X14838422Y-60403554D01*
X14886200Y-60451332D01*
X14933978Y-60403554D01*
X14886200Y-60355776D01*
X14886200Y-60451332D01*
X15333978Y-60689109D02*
X15715089Y-60689109D01*
X15477311Y-60355776D02*
X15477311Y-61212443D01*
X15523978Y-61307998D01*
X15619534Y-61355776D01*
X15715089Y-61355776D01*
X16115089Y-61355776D02*
X16115089Y-60355776D01*
X16543978Y-61355776D02*
X16543978Y-60832443D01*
X16496200Y-60736887D01*
X16400645Y-60689109D01*
X16258422Y-60689109D01*
X16162867Y-60736887D01*
X16115089Y-60784665D01*
X9561755Y-62835776D02*
X9085088Y-62835776D01*
X9085088Y-61835776D01*
X10009533Y-62835776D02*
X10009533Y-62169109D01*
X10009533Y-61835776D02*
X9961755Y-61883554D01*
X10009533Y-61931332D01*
X10057311Y-61883554D01*
X10009533Y-61835776D01*
X10009533Y-61931332D01*
X10457311Y-62835776D02*
X10457311Y-61835776D01*
X10457311Y-62216887D02*
X10552867Y-62169109D01*
X10742867Y-62169109D01*
X10838422Y-62216887D01*
X10886200Y-62264665D01*
X10933978Y-62359109D01*
X10933978Y-62645776D01*
X10886200Y-62740220D01*
X10838422Y-62787998D01*
X10742867Y-62835776D01*
X10552867Y-62835776D01*
X10457311Y-62787998D01*
X11333978Y-62835776D02*
X11333978Y-62169109D01*
X11333978Y-62359109D02*
X11381756Y-62264665D01*
X11429534Y-62216887D01*
X11523978Y-62169109D01*
X11619534Y-62169109D01*
X12448423Y-62787998D02*
X12352867Y-62835776D01*
X12162867Y-62835776D01*
X12067312Y-62787998D01*
X12019534Y-62692443D01*
X12019534Y-62312443D01*
X12067312Y-62216887D01*
X12162867Y-62169109D01*
X12352867Y-62169109D01*
X12448423Y-62216887D01*
X12496201Y-62312443D01*
X12496201Y-62406887D01*
X12019534Y-62502443D01*
X12896201Y-62835776D02*
X12896201Y-61835776D01*
X13277312Y-61835776D01*
X13372868Y-61883554D01*
X13419534Y-61931332D01*
X13467312Y-62025776D01*
X13467312Y-62169109D01*
X13419534Y-62264665D01*
X13372868Y-62312443D01*
X13277312Y-62359109D01*
X12896201Y-62359109D01*
X14486201Y-62740220D02*
X14438423Y-62787998D01*
X14296201Y-62835776D01*
X14200645Y-62835776D01*
X14057312Y-62787998D01*
X13962868Y-62692443D01*
X13915090Y-62597998D01*
X13867312Y-62406887D01*
X13867312Y-62264665D01*
X13915090Y-62073554D01*
X13962868Y-61979109D01*
X14057312Y-61883554D01*
X14200645Y-61835776D01*
X14296201Y-61835776D01*
X14438423Y-61883554D01*
X14486201Y-61931332D01*
X15219534Y-62312443D02*
X15362868Y-62359109D01*
X15409534Y-62406887D01*
X15457312Y-62502443D01*
X15457312Y-62645776D01*
X15409534Y-62740220D01*
X15362868Y-62787998D01*
X15267312Y-62835776D01*
X14886201Y-62835776D01*
X14886201Y-61835776D01*
X15219534Y-61835776D01*
X15315090Y-61883554D01*
X15362868Y-61931332D01*
X15409534Y-62025776D01*
X15409534Y-62121332D01*
X15362868Y-62216887D01*
X15315090Y-62264665D01*
X15219534Y-62312443D01*
X14886201Y-62312443D01*
D11*
X44450560Y-5080128D03*
X44450560Y-15240128D03*
X44450560Y-10160128D03*
D15*
X44435544Y-44450560D03*
X41925544Y-44450560D03*
D11*
X6349216Y-43181376D03*
X6349216Y-17781376D03*
X6349216Y-7621376D03*
X6349216Y-12701376D03*
X21589216Y-27941376D03*
X21589216Y-12701376D03*
X6349216Y-30481376D03*
X6349216Y-50801376D03*
X6349216Y-40641376D03*
X21589216Y-5081376D03*
X21589216Y-30481376D03*
X6349216Y-22861376D03*
X21589216Y-53341376D03*
X21589216Y-22861376D03*
X6349216Y-15241376D03*
X21589216Y-33021376D03*
X6349216Y-53341376D03*
X21589216Y-7621376D03*
X6349216Y-27941376D03*
X21589216Y-25401376D03*
X21589216Y-40641376D03*
X6349216Y-45721376D03*
X6349216Y-38101376D03*
X21589216Y-48261376D03*
X6349216Y-20321376D03*
X21589216Y-17781376D03*
X6349216Y-5081376D03*
X6349216Y-35561376D03*
X6349216Y-33021376D03*
X21589216Y-10161376D03*
X21589216Y-15241376D03*
X21589216Y-20321376D03*
X6349216Y-48261376D03*
X21589216Y-43181376D03*
X21589216Y-38101376D03*
X21589216Y-45721376D03*
X6349216Y-25401376D03*
X21589216Y-50801376D03*
X21589216Y-35561376D03*
X6349216Y-10161376D03*
D15*
X43165528Y-30480384D03*
X40655528Y-30480384D03*
D16*
X34290432Y-27940352D03*
D17*
X44450560Y-30480384D02*
X44450560Y-31750400D01*
X43165528Y-30480384D02*
X44450560Y-30495400D01*
X46990592Y-31750400D02*
X45720576Y-30480384D01*
X17780224Y-36830464D02*
X17780224Y-35560448D01*
X46990592Y-35560448D02*
X46990592Y-59690752D01*
X45720576Y-30480384D02*
X44450560Y-30480384D01*
X44450480Y-33210464D02*
X44450560Y-31750400D01*
X44450560Y-30480384D02*
X44450560Y-30495400D01*
X17780224Y-57150720D02*
X17780224Y-36830464D01*
X46990592Y-59690752D02*
X44450560Y-62230784D01*
X22860288Y-62230784D02*
X17780224Y-57150720D01*
X21589216Y-33021376D02*
X20320256Y-33020416D01*
X46990592Y-35560448D02*
X46990592Y-31750400D01*
X44450560Y-62230784D02*
X22860288Y-62230784D01*
X17780224Y-35560448D02*
X20320256Y-33020416D01*
X44435544Y-44450560D02*
X44450560Y-44465576D01*
X41910528Y-58420736D02*
X40640512Y-59690752D01*
X41910528Y-50800640D02*
X41910528Y-55880704D01*
X44450560Y-44465576D02*
X44450560Y-48260608D01*
X44450480Y-49720672D02*
X44450560Y-50800640D01*
X44450560Y-48260608D02*
X44450560Y-50800640D01*
X24130304Y-35560448D02*
X26670336Y-38100480D01*
X22860288Y-35560448D02*
X24130304Y-35560448D01*
X26670336Y-58420736D02*
X26670336Y-55880704D01*
X41910528Y-55880704D02*
X41910528Y-58420736D01*
X41910528Y-50800640D02*
X44450560Y-48260608D01*
X27940352Y-59690752D02*
X26670336Y-58420736D01*
X21589216Y-35561376D02*
X21590144Y-35560448D01*
X21590144Y-35560448D02*
X22860288Y-35560448D01*
X40640512Y-59690752D02*
X27940352Y-59690752D01*
X26670336Y-38100480D02*
X26670336Y-55880704D01*
X34290432Y-27940352D02*
X34290432Y-33210416D01*
X44450560Y-5080128D02*
X34290496Y-5080064D01*
X34290432Y-5080128D02*
X34290496Y-5080064D01*
X34290480Y-33210464D02*
X34290480Y-33020368D01*
X34290480Y-33020368D02*
X34290432Y-33210416D01*
X35560448Y-36830464D02*
X36830464Y-35560448D01*
X34290432Y-44450560D02*
X31750400Y-41910528D01*
X31750400Y-41910528D02*
X31750400Y-38100480D01*
X36830480Y-33210464D02*
X36830480Y-33020400D01*
X36830480Y-49720672D02*
X36830464Y-49530624D01*
X35560448Y-44450560D02*
X34290432Y-44450560D01*
X48260608Y-12700160D02*
X45720576Y-10160128D01*
X36830480Y-33020400D02*
X36830464Y-33210448D01*
X44450560Y-27940352D02*
X45720576Y-27940352D01*
X36830464Y-48450640D02*
X36830464Y-49530624D01*
X44450560Y-10160128D02*
X34290432Y-10160128D01*
X36830464Y-30480384D02*
X39370496Y-27940352D01*
X36830464Y-45720576D02*
X35560448Y-44450560D01*
X45720576Y-27940352D02*
X48260608Y-25400320D01*
X36830464Y-33210448D02*
X36830464Y-30480384D01*
X36830464Y-48450640D02*
X36830464Y-45720576D01*
X31750400Y-38100480D02*
X33020416Y-36830464D01*
X48260608Y-12700160D02*
X48260608Y-25400320D01*
X45720576Y-10160128D02*
X44450560Y-10160128D01*
X33020416Y-36830464D02*
X35560448Y-36830464D01*
X36830464Y-33210448D02*
X36830464Y-35560448D01*
X39370496Y-27940352D02*
X44450560Y-27940352D01*
X29210368Y-43180544D02*
X33020416Y-46990592D01*
X34290432Y-48260608D02*
X34290432Y-49530624D01*
X33020416Y-15240192D02*
X34290496Y-15240192D01*
X34290432Y-15240128D02*
X34290496Y-15240192D01*
X29210368Y-22860288D02*
X29210368Y-19050240D01*
X33020416Y-46990592D02*
X34290432Y-48260608D01*
X29210368Y-43180544D02*
X29210368Y-22860288D01*
X34290480Y-49720672D02*
X34290432Y-49530624D01*
X44450560Y-15240128D02*
X34290496Y-15240192D01*
X29210368Y-19050240D02*
X33020416Y-15240192D01*
X12445176Y-10160128D02*
X6350464Y-10160128D01*
X6349216Y-10161376D02*
X6350464Y-10160128D01*
X21589216Y-25401376D02*
X19685248Y-25400320D01*
X18415232Y-13080184D02*
X18415232Y-24130304D01*
X18415232Y-24130304D02*
X19685248Y-25400320D01*
X15495176Y-10160128D02*
X18415232Y-13080184D01*
D13*
G36*
X44329289Y-64670711D02*
X49670711Y-59329289D01*
X49700000Y-59258578D01*
X49700000Y-400000D01*
X49680500Y-340673D01*
X49600000Y-300000D01*
X400000Y-300000D01*
X340673Y-319500D01*
X300000Y-400000D01*
X300000Y-57900000D01*
X319500Y-57959327D01*
X400000Y-58000000D01*
X5716666Y-58000000D01*
X5716666Y-54276376D01*
X5711773Y-54276135D01*
X5536701Y-54258892D01*
X5527100Y-54256983D01*
X5361104Y-54206628D01*
X5352077Y-54202889D01*
X5199091Y-54121117D01*
X5190959Y-54115683D01*
X5056869Y-54005637D01*
X5049954Y-53998722D01*
X4939908Y-53864632D01*
X4934474Y-53856500D01*
X4852702Y-53703514D01*
X4848963Y-53694487D01*
X4798607Y-53528487D01*
X4796700Y-53518898D01*
X4779697Y-53346260D01*
X4779697Y-53336492D01*
X4796700Y-53163853D01*
X4798607Y-53154264D01*
X4848963Y-52988264D01*
X4852702Y-52979237D01*
X4934474Y-52826251D01*
X4939908Y-52818119D01*
X5049954Y-52684029D01*
X5056869Y-52677114D01*
X5190959Y-52567068D01*
X5199091Y-52561634D01*
X5352077Y-52479862D01*
X5361104Y-52476123D01*
X5527104Y-52425767D01*
X5536693Y-52423860D01*
X5711776Y-52406616D01*
X5716666Y-52406376D01*
X5716666Y-51736376D01*
X5711773Y-51736135D01*
X5536701Y-51718892D01*
X5527100Y-51716983D01*
X5361104Y-51666628D01*
X5352077Y-51662889D01*
X5199091Y-51581117D01*
X5190959Y-51575683D01*
X5056869Y-51465637D01*
X5049954Y-51458722D01*
X4939908Y-51324632D01*
X4934474Y-51316500D01*
X4852702Y-51163514D01*
X4848963Y-51154487D01*
X4798607Y-50988487D01*
X4796700Y-50978898D01*
X4779697Y-50806260D01*
X4779697Y-50796492D01*
X4796699Y-50623857D01*
X4798607Y-50614264D01*
X4848963Y-50448264D01*
X4852702Y-50439237D01*
X4934474Y-50286251D01*
X4939908Y-50278119D01*
X5049954Y-50144029D01*
X5056869Y-50137114D01*
X5190959Y-50027068D01*
X5199091Y-50021634D01*
X5352077Y-49939862D01*
X5361104Y-49936123D01*
X5527104Y-49885767D01*
X5536693Y-49883860D01*
X5711776Y-49866616D01*
X5716666Y-49866376D01*
X5716666Y-49196376D01*
X5711773Y-49196135D01*
X5536701Y-49178892D01*
X5527100Y-49176983D01*
X5361104Y-49126628D01*
X5352077Y-49122889D01*
X5199091Y-49041117D01*
X5190959Y-49035683D01*
X5056869Y-48925637D01*
X5049954Y-48918722D01*
X4939908Y-48784632D01*
X4934474Y-48776500D01*
X4852702Y-48623514D01*
X4848963Y-48614487D01*
X4798607Y-48448487D01*
X4796700Y-48438898D01*
X4779697Y-48266260D01*
X4779697Y-48256492D01*
X4796700Y-48083853D01*
X4798607Y-48074264D01*
X4848963Y-47908264D01*
X4852702Y-47899237D01*
X4934474Y-47746251D01*
X4939908Y-47738119D01*
X5049954Y-47604029D01*
X5056869Y-47597114D01*
X5190959Y-47487068D01*
X5199091Y-47481634D01*
X5352077Y-47399862D01*
X5361104Y-47396123D01*
X5527104Y-47345767D01*
X5536693Y-47343860D01*
X5711776Y-47326616D01*
X5716666Y-47326376D01*
X5716666Y-46656376D01*
X5711773Y-46656135D01*
X5536701Y-46638892D01*
X5527100Y-46636983D01*
X5361104Y-46586628D01*
X5352077Y-46582889D01*
X5199091Y-46501117D01*
X5190959Y-46495683D01*
X5056869Y-46385637D01*
X5049954Y-46378722D01*
X4939908Y-46244632D01*
X4934474Y-46236500D01*
X4852702Y-46083514D01*
X4848963Y-46074487D01*
X4798607Y-45908487D01*
X4796700Y-45898898D01*
X4779697Y-45726260D01*
X4779697Y-45716492D01*
X4796700Y-45543853D01*
X4798607Y-45534264D01*
X4848963Y-45368264D01*
X4852702Y-45359237D01*
X4934474Y-45206251D01*
X4939908Y-45198119D01*
X5049954Y-45064029D01*
X5056869Y-45057114D01*
X5190959Y-44947068D01*
X5199091Y-44941634D01*
X5352077Y-44859862D01*
X5361104Y-44856123D01*
X5527104Y-44805767D01*
X5536693Y-44803860D01*
X5711776Y-44786616D01*
X5716666Y-44786376D01*
X5716666Y-44116376D01*
X5711773Y-44116135D01*
X5536701Y-44098892D01*
X5527100Y-44096983D01*
X5361104Y-44046628D01*
X5352077Y-44042889D01*
X5199091Y-43961117D01*
X5190959Y-43955683D01*
X5056869Y-43845637D01*
X5049954Y-43838722D01*
X4939908Y-43704632D01*
X4934474Y-43696500D01*
X4852702Y-43543514D01*
X4848963Y-43534487D01*
X4798607Y-43368487D01*
X4796700Y-43358898D01*
X4779697Y-43186260D01*
X4779697Y-43176492D01*
X4796700Y-43003853D01*
X4798607Y-42994264D01*
X4848963Y-42828264D01*
X4852702Y-42819237D01*
X4934474Y-42666251D01*
X4939908Y-42658119D01*
X5049954Y-42524029D01*
X5056869Y-42517114D01*
X5190959Y-42407068D01*
X5199091Y-42401634D01*
X5352077Y-42319862D01*
X5361104Y-42316123D01*
X5527104Y-42265767D01*
X5536693Y-42263860D01*
X5711776Y-42246616D01*
X5716666Y-42246376D01*
X5716666Y-41576376D01*
X5711773Y-41576135D01*
X5536701Y-41558892D01*
X5527100Y-41556983D01*
X5361104Y-41506628D01*
X5352077Y-41502889D01*
X5199091Y-41421117D01*
X5190959Y-41415683D01*
X5056869Y-41305637D01*
X5049954Y-41298722D01*
X4939908Y-41164632D01*
X4934474Y-41156500D01*
X4852702Y-41003514D01*
X4848963Y-40994487D01*
X4798607Y-40828487D01*
X4796700Y-40818898D01*
X4779697Y-40646260D01*
X4779697Y-40636492D01*
X4796700Y-40463853D01*
X4798607Y-40454264D01*
X4848963Y-40288264D01*
X4852702Y-40279237D01*
X4934474Y-40126251D01*
X4939908Y-40118119D01*
X5049954Y-39984029D01*
X5056869Y-39977114D01*
X5190959Y-39867068D01*
X5199091Y-39861634D01*
X5352077Y-39779862D01*
X5361104Y-39776123D01*
X5527104Y-39725767D01*
X5536693Y-39723860D01*
X5711776Y-39706616D01*
X5716666Y-39706376D01*
X5716666Y-39036376D01*
X5711773Y-39036135D01*
X5536701Y-39018892D01*
X5527100Y-39016983D01*
X5361104Y-38966628D01*
X5352077Y-38962889D01*
X5199091Y-38881117D01*
X5190959Y-38875683D01*
X5056869Y-38765637D01*
X5049954Y-38758722D01*
X4939908Y-38624632D01*
X4934474Y-38616500D01*
X4852702Y-38463514D01*
X4848963Y-38454487D01*
X4798607Y-38288487D01*
X4796700Y-38278898D01*
X4779697Y-38106260D01*
X4779697Y-38096492D01*
X4796700Y-37923853D01*
X4798607Y-37914264D01*
X4848963Y-37748264D01*
X4852702Y-37739237D01*
X4934474Y-37586251D01*
X4939908Y-37578119D01*
X5049954Y-37444029D01*
X5056869Y-37437114D01*
X5190959Y-37327068D01*
X5199091Y-37321634D01*
X5352077Y-37239862D01*
X5361104Y-37236123D01*
X5527104Y-37185767D01*
X5536693Y-37183860D01*
X5711776Y-37166616D01*
X5716666Y-37166376D01*
X5716666Y-36496376D01*
X5711773Y-36496135D01*
X5536701Y-36478892D01*
X5527100Y-36476983D01*
X5361104Y-36426628D01*
X5352077Y-36422889D01*
X5199091Y-36341117D01*
X5190959Y-36335683D01*
X5056869Y-36225637D01*
X5049954Y-36218722D01*
X4939908Y-36084632D01*
X4934474Y-36076500D01*
X4852702Y-35923514D01*
X4848963Y-35914487D01*
X4798607Y-35748487D01*
X4796700Y-35738898D01*
X4779697Y-35566260D01*
X4779697Y-35556492D01*
X4796700Y-35383853D01*
X4798607Y-35374264D01*
X4848963Y-35208264D01*
X4852702Y-35199237D01*
X4934474Y-35046251D01*
X4939908Y-35038119D01*
X5049954Y-34904029D01*
X5056869Y-34897114D01*
X5190959Y-34787068D01*
X5199091Y-34781634D01*
X5352077Y-34699862D01*
X5361104Y-34696123D01*
X5527104Y-34645767D01*
X5536693Y-34643860D01*
X5711776Y-34626616D01*
X5716666Y-34626376D01*
X5716666Y-33956376D01*
X5711773Y-33956135D01*
X5536701Y-33938892D01*
X5527100Y-33936983D01*
X5361104Y-33886628D01*
X5352077Y-33882889D01*
X5199091Y-33801117D01*
X5190959Y-33795683D01*
X5056869Y-33685637D01*
X5049954Y-33678722D01*
X4939908Y-33544632D01*
X4934474Y-33536500D01*
X4852702Y-33383514D01*
X4848963Y-33374487D01*
X4798607Y-33208487D01*
X4796700Y-33198898D01*
X4779697Y-33026260D01*
X4779697Y-33016492D01*
X4796700Y-32843853D01*
X4798607Y-32834264D01*
X4848963Y-32668264D01*
X4852702Y-32659237D01*
X4934474Y-32506251D01*
X4939908Y-32498119D01*
X5049954Y-32364029D01*
X5056869Y-32357114D01*
X5190959Y-32247068D01*
X5199091Y-32241634D01*
X5352077Y-32159862D01*
X5361104Y-32156123D01*
X5527104Y-32105767D01*
X5536693Y-32103860D01*
X5711776Y-32086616D01*
X5716666Y-32086376D01*
X5716666Y-31416376D01*
X5711773Y-31416135D01*
X5536701Y-31398892D01*
X5527100Y-31396983D01*
X5361104Y-31346628D01*
X5352077Y-31342889D01*
X5199091Y-31261117D01*
X5190959Y-31255683D01*
X5056869Y-31145637D01*
X5049954Y-31138722D01*
X4939908Y-31004632D01*
X4934474Y-30996500D01*
X4852702Y-30843514D01*
X4848963Y-30834487D01*
X4798607Y-30668487D01*
X4796700Y-30658898D01*
X4779697Y-30486260D01*
X4779697Y-30476492D01*
X4796700Y-30303853D01*
X4798607Y-30294264D01*
X4848963Y-30128264D01*
X4852702Y-30119237D01*
X4934474Y-29966251D01*
X4939908Y-29958119D01*
X5049954Y-29824029D01*
X5056869Y-29817114D01*
X5190959Y-29707068D01*
X5199091Y-29701634D01*
X5352077Y-29619862D01*
X5361104Y-29616123D01*
X5527104Y-29565767D01*
X5536693Y-29563860D01*
X5711776Y-29546616D01*
X5716666Y-29546376D01*
X5716666Y-28876376D01*
X5711773Y-28876135D01*
X5536701Y-28858892D01*
X5527100Y-28856983D01*
X5361104Y-28806628D01*
X5352077Y-28802889D01*
X5199091Y-28721117D01*
X5190959Y-28715683D01*
X5056869Y-28605637D01*
X5049954Y-28598722D01*
X4939908Y-28464632D01*
X4934474Y-28456500D01*
X4852702Y-28303514D01*
X4848963Y-28294487D01*
X4798607Y-28128487D01*
X4796700Y-28118898D01*
X4779697Y-27946260D01*
X4779697Y-27936492D01*
X4796700Y-27763853D01*
X4798607Y-27754264D01*
X4848963Y-27588264D01*
X4852702Y-27579237D01*
X4934474Y-27426251D01*
X4939908Y-27418119D01*
X5049954Y-27284029D01*
X5056869Y-27277114D01*
X5190959Y-27167068D01*
X5199091Y-27161634D01*
X5352077Y-27079862D01*
X5361104Y-27076123D01*
X5527104Y-27025767D01*
X5536693Y-27023860D01*
X5711776Y-27006616D01*
X5716666Y-27006376D01*
X5716666Y-26336376D01*
X5711773Y-26336135D01*
X5536701Y-26318892D01*
X5527100Y-26316983D01*
X5361104Y-26266628D01*
X5352077Y-26262889D01*
X5199091Y-26181117D01*
X5190959Y-26175683D01*
X5056869Y-26065637D01*
X5049954Y-26058722D01*
X4939908Y-25924632D01*
X4934474Y-25916500D01*
X4852702Y-25763514D01*
X4848963Y-25754487D01*
X4798607Y-25588487D01*
X4796700Y-25578898D01*
X4779697Y-25406260D01*
X4779697Y-25396492D01*
X4796700Y-25223853D01*
X4798607Y-25214264D01*
X4848963Y-25048264D01*
X4852702Y-25039237D01*
X4934474Y-24886251D01*
X4939908Y-24878119D01*
X5049954Y-24744029D01*
X5056869Y-24737114D01*
X5190959Y-24627068D01*
X5199091Y-24621634D01*
X5352077Y-24539862D01*
X5361104Y-24536123D01*
X5527104Y-24485767D01*
X5536693Y-24483860D01*
X5711776Y-24466616D01*
X5716666Y-24466376D01*
X5716666Y-23796376D01*
X5711773Y-23796135D01*
X5536701Y-23778892D01*
X5527100Y-23776983D01*
X5361104Y-23726628D01*
X5352077Y-23722889D01*
X5199091Y-23641117D01*
X5190959Y-23635683D01*
X5056869Y-23525637D01*
X5049954Y-23518722D01*
X4939908Y-23384632D01*
X4934474Y-23376500D01*
X4852702Y-23223514D01*
X4848963Y-23214487D01*
X4798607Y-23048487D01*
X4796700Y-23038898D01*
X4779697Y-22866260D01*
X4779697Y-22856492D01*
X4796700Y-22683853D01*
X4798607Y-22674264D01*
X4848963Y-22508264D01*
X4852702Y-22499237D01*
X4934474Y-22346251D01*
X4939908Y-22338119D01*
X5049954Y-22204029D01*
X5056869Y-22197114D01*
X5190959Y-22087068D01*
X5199091Y-22081634D01*
X5352077Y-21999862D01*
X5361104Y-21996123D01*
X5527104Y-21945767D01*
X5536693Y-21943860D01*
X5711776Y-21926616D01*
X5716666Y-21926376D01*
X5716666Y-21256376D01*
X5711773Y-21256135D01*
X5536701Y-21238892D01*
X5527100Y-21236983D01*
X5361104Y-21186628D01*
X5352077Y-21182889D01*
X5199091Y-21101117D01*
X5190959Y-21095683D01*
X5056869Y-20985637D01*
X5049954Y-20978722D01*
X4939908Y-20844632D01*
X4934474Y-20836500D01*
X4852702Y-20683514D01*
X4848963Y-20674487D01*
X4798607Y-20508487D01*
X4796700Y-20498898D01*
X4779697Y-20326260D01*
X4779697Y-20316492D01*
X4796700Y-20143853D01*
X4798607Y-20134264D01*
X4848963Y-19968264D01*
X4852702Y-19959237D01*
X4934474Y-19806251D01*
X4939908Y-19798119D01*
X5049954Y-19664029D01*
X5056869Y-19657114D01*
X5190959Y-19547068D01*
X5199091Y-19541634D01*
X5352077Y-19459862D01*
X5361104Y-19456123D01*
X5527104Y-19405767D01*
X5536693Y-19403860D01*
X5711776Y-19386616D01*
X5716666Y-19386376D01*
X5716666Y-18716376D01*
X5711773Y-18716135D01*
X5536701Y-18698892D01*
X5527100Y-18696983D01*
X5361104Y-18646628D01*
X5352077Y-18642889D01*
X5199091Y-18561117D01*
X5190959Y-18555683D01*
X5056869Y-18445637D01*
X5049954Y-18438722D01*
X4939908Y-18304632D01*
X4934474Y-18296500D01*
X4852702Y-18143514D01*
X4848963Y-18134487D01*
X4798607Y-17968487D01*
X4796700Y-17958898D01*
X4779697Y-17786260D01*
X4779697Y-17776492D01*
X4796700Y-17603853D01*
X4798607Y-17594264D01*
X4848963Y-17428264D01*
X4852702Y-17419237D01*
X4934474Y-17266251D01*
X4939908Y-17258119D01*
X5049954Y-17124029D01*
X5056869Y-17117114D01*
X5190959Y-17007068D01*
X5199091Y-17001634D01*
X5352077Y-16919862D01*
X5361104Y-16916123D01*
X5527104Y-16865767D01*
X5536693Y-16863860D01*
X5711776Y-16846616D01*
X5716666Y-16846376D01*
X5716666Y-16176376D01*
X5711773Y-16176135D01*
X5536701Y-16158892D01*
X5527100Y-16156983D01*
X5361104Y-16106628D01*
X5352077Y-16102889D01*
X5199091Y-16021117D01*
X5190959Y-16015683D01*
X5056869Y-15905637D01*
X5049954Y-15898722D01*
X4939908Y-15764632D01*
X4934474Y-15756500D01*
X4852702Y-15603514D01*
X4848963Y-15594487D01*
X4798607Y-15428487D01*
X4796700Y-15418898D01*
X4779697Y-15246260D01*
X4779697Y-15236492D01*
X4796700Y-15063853D01*
X4798607Y-15054264D01*
X4848963Y-14888264D01*
X4852702Y-14879237D01*
X4934474Y-14726251D01*
X4939908Y-14718119D01*
X5049954Y-14584029D01*
X5056869Y-14577114D01*
X5190959Y-14467068D01*
X5199091Y-14461634D01*
X5352077Y-14379862D01*
X5361104Y-14376123D01*
X5527104Y-14325767D01*
X5536693Y-14323860D01*
X5711776Y-14306616D01*
X5716666Y-14306376D01*
X5716666Y-13636376D01*
X5711773Y-13636135D01*
X5536701Y-13618892D01*
X5527100Y-13616983D01*
X5361104Y-13566628D01*
X5352077Y-13562889D01*
X5199091Y-13481117D01*
X5190959Y-13475683D01*
X5056869Y-13365637D01*
X5049954Y-13358722D01*
X4939908Y-13224632D01*
X4934474Y-13216500D01*
X4852702Y-13063514D01*
X4848963Y-13054487D01*
X4798607Y-12888487D01*
X4796700Y-12878898D01*
X4779697Y-12706260D01*
X4779697Y-12696492D01*
X4796700Y-12523853D01*
X4798607Y-12514264D01*
X4848963Y-12348264D01*
X4852702Y-12339237D01*
X4934474Y-12186251D01*
X4939908Y-12178119D01*
X5049954Y-12044029D01*
X5056869Y-12037114D01*
X5190959Y-11927068D01*
X5199091Y-11921634D01*
X5352077Y-11839862D01*
X5361104Y-11836123D01*
X5527104Y-11785767D01*
X5536693Y-11783860D01*
X5711776Y-11766616D01*
X5716673Y-11766376D01*
X6981759Y-11766376D01*
X6986656Y-11766616D01*
X7161738Y-11783860D01*
X7171327Y-11785767D01*
X7337327Y-11836123D01*
X7346354Y-11839862D01*
X7499340Y-11921634D01*
X7507472Y-11927068D01*
X7641562Y-12037114D01*
X7648477Y-12044029D01*
X7758523Y-12178119D01*
X7763957Y-12186251D01*
X7845729Y-12339237D01*
X7849468Y-12348264D01*
X7899823Y-12514260D01*
X7901732Y-12523861D01*
X7918734Y-12696482D01*
X7918734Y-12706270D01*
X7901732Y-12878890D01*
X7899823Y-12888491D01*
X7849468Y-13054487D01*
X7845729Y-13063514D01*
X7763957Y-13216500D01*
X7758523Y-13224632D01*
X7648477Y-13358722D01*
X7641562Y-13365637D01*
X7507472Y-13475683D01*
X7499340Y-13481117D01*
X7346354Y-13562889D01*
X7337327Y-13566628D01*
X7171331Y-13616983D01*
X7161730Y-13618892D01*
X6986659Y-13636135D01*
X6981766Y-13636376D01*
X5716666Y-13636376D01*
X5716666Y-14306376D01*
X5716673Y-14306376D01*
X6981759Y-14306376D01*
X6986656Y-14306616D01*
X7161738Y-14323860D01*
X7171327Y-14325767D01*
X7337327Y-14376123D01*
X7346354Y-14379862D01*
X7499340Y-14461634D01*
X7507472Y-14467068D01*
X7641562Y-14577114D01*
X7648477Y-14584029D01*
X7758523Y-14718119D01*
X7763957Y-14726251D01*
X7845729Y-14879237D01*
X7849468Y-14888264D01*
X7899823Y-15054260D01*
X7901732Y-15063861D01*
X7918734Y-15236482D01*
X7918734Y-15246270D01*
X7901732Y-15418890D01*
X7899823Y-15428491D01*
X7849468Y-15594487D01*
X7845729Y-15603514D01*
X7763957Y-15756500D01*
X7758523Y-15764632D01*
X7648477Y-15898722D01*
X7641562Y-15905637D01*
X7507472Y-16015683D01*
X7499340Y-16021117D01*
X7346354Y-16102889D01*
X7337327Y-16106628D01*
X7171331Y-16156983D01*
X7161730Y-16158892D01*
X6986659Y-16176135D01*
X6981766Y-16176376D01*
X5716666Y-16176376D01*
X5716666Y-16846376D01*
X5716673Y-16846376D01*
X6981759Y-16846376D01*
X6986656Y-16846616D01*
X7161738Y-16863860D01*
X7171327Y-16865767D01*
X7337327Y-16916123D01*
X7346354Y-16919862D01*
X7499340Y-17001634D01*
X7507472Y-17007068D01*
X7641562Y-17117114D01*
X7648477Y-17124029D01*
X7758523Y-17258119D01*
X7763957Y-17266251D01*
X7845729Y-17419237D01*
X7849468Y-17428264D01*
X7899823Y-17594260D01*
X7901732Y-17603861D01*
X7918734Y-17776482D01*
X7918734Y-17786270D01*
X7901732Y-17958890D01*
X7899823Y-17968491D01*
X7849468Y-18134487D01*
X7845729Y-18143514D01*
X7763957Y-18296500D01*
X7758523Y-18304632D01*
X7648477Y-18438722D01*
X7641562Y-18445637D01*
X7507472Y-18555683D01*
X7499340Y-18561117D01*
X7346354Y-18642889D01*
X7337327Y-18646628D01*
X7171331Y-18696983D01*
X7161730Y-18698892D01*
X6986659Y-18716135D01*
X6981766Y-18716376D01*
X5716666Y-18716376D01*
X5716666Y-19386376D01*
X5716673Y-19386376D01*
X6981759Y-19386376D01*
X6986656Y-19386616D01*
X7161738Y-19403860D01*
X7171327Y-19405767D01*
X7337327Y-19456123D01*
X7346354Y-19459862D01*
X7499340Y-19541634D01*
X7507472Y-19547068D01*
X7641562Y-19657114D01*
X7648477Y-19664029D01*
X7758523Y-19798119D01*
X7763957Y-19806251D01*
X7845729Y-19959237D01*
X7849468Y-19968264D01*
X7899823Y-20134260D01*
X7901732Y-20143861D01*
X7918734Y-20316482D01*
X7918734Y-20326270D01*
X7901732Y-20498890D01*
X7899823Y-20508491D01*
X7849468Y-20674487D01*
X7845729Y-20683514D01*
X7763957Y-20836500D01*
X7758523Y-20844632D01*
X7648477Y-20978722D01*
X7641562Y-20985637D01*
X7507472Y-21095683D01*
X7499340Y-21101117D01*
X7346354Y-21182889D01*
X7337327Y-21186628D01*
X7171331Y-21236983D01*
X7161730Y-21238892D01*
X6986659Y-21256135D01*
X6981766Y-21256376D01*
X5716666Y-21256376D01*
X5716666Y-21926376D01*
X5716673Y-21926376D01*
X6981759Y-21926376D01*
X6986656Y-21926616D01*
X7161738Y-21943860D01*
X7171327Y-21945767D01*
X7337327Y-21996123D01*
X7346354Y-21999862D01*
X7499340Y-22081634D01*
X7507472Y-22087068D01*
X7641562Y-22197114D01*
X7648477Y-22204029D01*
X7758523Y-22338119D01*
X7763957Y-22346251D01*
X7845729Y-22499237D01*
X7849468Y-22508264D01*
X7899823Y-22674260D01*
X7901732Y-22683861D01*
X7918734Y-22856482D01*
X7918734Y-22866270D01*
X7901732Y-23038890D01*
X7899823Y-23048491D01*
X7849468Y-23214487D01*
X7845729Y-23223514D01*
X7763957Y-23376500D01*
X7758523Y-23384632D01*
X7648477Y-23518722D01*
X7641562Y-23525637D01*
X7507472Y-23635683D01*
X7499340Y-23641117D01*
X7346354Y-23722889D01*
X7337327Y-23726628D01*
X7171331Y-23776983D01*
X7161730Y-23778892D01*
X6986659Y-23796135D01*
X6981766Y-23796376D01*
X5716666Y-23796376D01*
X5716666Y-24466376D01*
X5716673Y-24466376D01*
X6981759Y-24466376D01*
X6986656Y-24466616D01*
X7161738Y-24483860D01*
X7171327Y-24485767D01*
X7337327Y-24536123D01*
X7346354Y-24539862D01*
X7499340Y-24621634D01*
X7507472Y-24627068D01*
X7641562Y-24737114D01*
X7648477Y-24744029D01*
X7758523Y-24878119D01*
X7763957Y-24886251D01*
X7845729Y-25039237D01*
X7849468Y-25048264D01*
X7899823Y-25214260D01*
X7901732Y-25223861D01*
X7918734Y-25396482D01*
X7918734Y-25406270D01*
X7901732Y-25578890D01*
X7899823Y-25588491D01*
X7849468Y-25754487D01*
X7845729Y-25763514D01*
X7763957Y-25916500D01*
X7758523Y-25924632D01*
X7648477Y-26058722D01*
X7641562Y-26065637D01*
X7507472Y-26175683D01*
X7499340Y-26181117D01*
X7346354Y-26262889D01*
X7337327Y-26266628D01*
X7171331Y-26316983D01*
X7161730Y-26318892D01*
X6986659Y-26336135D01*
X6981766Y-26336376D01*
X5716666Y-26336376D01*
X5716666Y-27006376D01*
X5716673Y-27006376D01*
X6981759Y-27006376D01*
X6986656Y-27006616D01*
X7161738Y-27023860D01*
X7171327Y-27025767D01*
X7337327Y-27076123D01*
X7346354Y-27079862D01*
X7499340Y-27161634D01*
X7507472Y-27167068D01*
X7641562Y-27277114D01*
X7648477Y-27284029D01*
X7758523Y-27418119D01*
X7763957Y-27426251D01*
X7845729Y-27579237D01*
X7849468Y-27588264D01*
X7899823Y-27754260D01*
X7901732Y-27763861D01*
X7918734Y-27936482D01*
X7918734Y-27946270D01*
X7901732Y-28118890D01*
X7899823Y-28128491D01*
X7849468Y-28294487D01*
X7845729Y-28303514D01*
X7763957Y-28456500D01*
X7758523Y-28464632D01*
X7648477Y-28598722D01*
X7641562Y-28605637D01*
X7507472Y-28715683D01*
X7499340Y-28721117D01*
X7346354Y-28802889D01*
X7337327Y-28806628D01*
X7171331Y-28856983D01*
X7161730Y-28858892D01*
X6986659Y-28876135D01*
X6981766Y-28876376D01*
X5716666Y-28876376D01*
X5716666Y-29546376D01*
X5716673Y-29546376D01*
X6981759Y-29546376D01*
X6986656Y-29546616D01*
X7161738Y-29563860D01*
X7171327Y-29565767D01*
X7337327Y-29616123D01*
X7346354Y-29619862D01*
X7499340Y-29701634D01*
X7507472Y-29707068D01*
X7641562Y-29817114D01*
X7648477Y-29824029D01*
X7758523Y-29958119D01*
X7763957Y-29966251D01*
X7845729Y-30119237D01*
X7849468Y-30128264D01*
X7899823Y-30294260D01*
X7901732Y-30303861D01*
X7918734Y-30476482D01*
X7918734Y-30486270D01*
X7901732Y-30658890D01*
X7899823Y-30668491D01*
X7849468Y-30834487D01*
X7845729Y-30843514D01*
X7763957Y-30996500D01*
X7758523Y-31004632D01*
X7648477Y-31138722D01*
X7641562Y-31145637D01*
X7507472Y-31255683D01*
X7499340Y-31261117D01*
X7346354Y-31342889D01*
X7337327Y-31346628D01*
X7171331Y-31396983D01*
X7161730Y-31398892D01*
X6986659Y-31416135D01*
X6981766Y-31416376D01*
X5716666Y-31416376D01*
X5716666Y-32086376D01*
X5716673Y-32086376D01*
X6981759Y-32086376D01*
X6986656Y-32086616D01*
X7161738Y-32103860D01*
X7171327Y-32105767D01*
X7337327Y-32156123D01*
X7346354Y-32159862D01*
X7499340Y-32241634D01*
X7507472Y-32247068D01*
X7641562Y-32357114D01*
X7648477Y-32364029D01*
X7758523Y-32498119D01*
X7763957Y-32506251D01*
X7845729Y-32659237D01*
X7849468Y-32668264D01*
X7899823Y-32834260D01*
X7901732Y-32843861D01*
X7918734Y-33016482D01*
X7918734Y-33026270D01*
X7901732Y-33198890D01*
X7899823Y-33208491D01*
X7849468Y-33374487D01*
X7845729Y-33383514D01*
X7763957Y-33536500D01*
X7758523Y-33544632D01*
X7648477Y-33678722D01*
X7641562Y-33685637D01*
X7507472Y-33795683D01*
X7499340Y-33801117D01*
X7346354Y-33882889D01*
X7337327Y-33886628D01*
X7171331Y-33936983D01*
X7161730Y-33938892D01*
X6986659Y-33956135D01*
X6981766Y-33956376D01*
X5716666Y-33956376D01*
X5716666Y-34626376D01*
X5716673Y-34626376D01*
X6981759Y-34626376D01*
X6986656Y-34626616D01*
X7161738Y-34643860D01*
X7171327Y-34645767D01*
X7337327Y-34696123D01*
X7346354Y-34699862D01*
X7499340Y-34781634D01*
X7507472Y-34787068D01*
X7641562Y-34897114D01*
X7648477Y-34904029D01*
X7758523Y-35038119D01*
X7763957Y-35046251D01*
X7845729Y-35199237D01*
X7849468Y-35208264D01*
X7899823Y-35374260D01*
X7901732Y-35383861D01*
X7918734Y-35556482D01*
X7918734Y-35566270D01*
X7901732Y-35738890D01*
X7899823Y-35748491D01*
X7849468Y-35914487D01*
X7845729Y-35923514D01*
X7763957Y-36076500D01*
X7758523Y-36084632D01*
X7648477Y-36218722D01*
X7641562Y-36225637D01*
X7507472Y-36335683D01*
X7499340Y-36341117D01*
X7346354Y-36422889D01*
X7337327Y-36426628D01*
X7171331Y-36476983D01*
X7161730Y-36478892D01*
X6986659Y-36496135D01*
X6981766Y-36496376D01*
X5716666Y-36496376D01*
X5716666Y-37166376D01*
X5716673Y-37166376D01*
X6981759Y-37166376D01*
X6986656Y-37166616D01*
X7161738Y-37183860D01*
X7171327Y-37185767D01*
X7337327Y-37236123D01*
X7346354Y-37239862D01*
X7499340Y-37321634D01*
X7507472Y-37327068D01*
X7641562Y-37437114D01*
X7648477Y-37444029D01*
X7758523Y-37578119D01*
X7763957Y-37586251D01*
X7845729Y-37739237D01*
X7849468Y-37748264D01*
X7899823Y-37914260D01*
X7901732Y-37923861D01*
X7918734Y-38096482D01*
X7918734Y-38106270D01*
X7901732Y-38278890D01*
X7899823Y-38288491D01*
X7849468Y-38454487D01*
X7845729Y-38463514D01*
X7763957Y-38616500D01*
X7758523Y-38624632D01*
X7648477Y-38758722D01*
X7641562Y-38765637D01*
X7507472Y-38875683D01*
X7499340Y-38881117D01*
X7346354Y-38962889D01*
X7337327Y-38966628D01*
X7171331Y-39016983D01*
X7161730Y-39018892D01*
X6986659Y-39036135D01*
X6981766Y-39036376D01*
X5716666Y-39036376D01*
X5716666Y-39706376D01*
X5716673Y-39706376D01*
X6981759Y-39706376D01*
X6986656Y-39706616D01*
X7161738Y-39723860D01*
X7171327Y-39725767D01*
X7337327Y-39776123D01*
X7346354Y-39779862D01*
X7499340Y-39861634D01*
X7507472Y-39867068D01*
X7641562Y-39977114D01*
X7648477Y-39984029D01*
X7758523Y-40118119D01*
X7763957Y-40126251D01*
X7845729Y-40279237D01*
X7849468Y-40288264D01*
X7899823Y-40454260D01*
X7901732Y-40463861D01*
X7918734Y-40636482D01*
X7918734Y-40646270D01*
X7901732Y-40818890D01*
X7899823Y-40828491D01*
X7849468Y-40994487D01*
X7845729Y-41003514D01*
X7763957Y-41156500D01*
X7758523Y-41164632D01*
X7648477Y-41298722D01*
X7641562Y-41305637D01*
X7507472Y-41415683D01*
X7499340Y-41421117D01*
X7346354Y-41502889D01*
X7337327Y-41506628D01*
X7171331Y-41556983D01*
X7161730Y-41558892D01*
X6986659Y-41576135D01*
X6981766Y-41576376D01*
X5716666Y-41576376D01*
X5716666Y-42246376D01*
X5716673Y-42246376D01*
X6981759Y-42246376D01*
X6986656Y-42246616D01*
X7161738Y-42263860D01*
X7171327Y-42265767D01*
X7337327Y-42316123D01*
X7346354Y-42319862D01*
X7499340Y-42401634D01*
X7507472Y-42407068D01*
X7641562Y-42517114D01*
X7648477Y-42524029D01*
X7758523Y-42658119D01*
X7763957Y-42666251D01*
X7845729Y-42819237D01*
X7849468Y-42828264D01*
X7899823Y-42994260D01*
X7901732Y-43003861D01*
X7918734Y-43176482D01*
X7918734Y-43186270D01*
X7901732Y-43358890D01*
X7899823Y-43368491D01*
X7849468Y-43534487D01*
X7845729Y-43543514D01*
X7763957Y-43696500D01*
X7758523Y-43704632D01*
X7648477Y-43838722D01*
X7641562Y-43845637D01*
X7507472Y-43955683D01*
X7499340Y-43961117D01*
X7346354Y-44042889D01*
X7337327Y-44046628D01*
X7171331Y-44096983D01*
X7161730Y-44098892D01*
X6986659Y-44116135D01*
X6981766Y-44116376D01*
X5716666Y-44116376D01*
X5716666Y-44786376D01*
X5716673Y-44786376D01*
X6981759Y-44786376D01*
X6986656Y-44786616D01*
X7161738Y-44803860D01*
X7171327Y-44805767D01*
X7337327Y-44856123D01*
X7346354Y-44859862D01*
X7499340Y-44941634D01*
X7507472Y-44947068D01*
X7641562Y-45057114D01*
X7648477Y-45064029D01*
X7758523Y-45198119D01*
X7763957Y-45206251D01*
X7845729Y-45359237D01*
X7849468Y-45368264D01*
X7899823Y-45534260D01*
X7901732Y-45543861D01*
X7918734Y-45716482D01*
X7918734Y-45726270D01*
X7901732Y-45898890D01*
X7899823Y-45908491D01*
X7849468Y-46074487D01*
X7845729Y-46083514D01*
X7763957Y-46236500D01*
X7758523Y-46244632D01*
X7648477Y-46378722D01*
X7641562Y-46385637D01*
X7507472Y-46495683D01*
X7499340Y-46501117D01*
X7346354Y-46582889D01*
X7337327Y-46586628D01*
X7171331Y-46636983D01*
X7161730Y-46638892D01*
X6986659Y-46656135D01*
X6981766Y-46656376D01*
X5716666Y-46656376D01*
X5716666Y-47326376D01*
X5716673Y-47326376D01*
X6981759Y-47326376D01*
X6986656Y-47326616D01*
X7161738Y-47343860D01*
X7171327Y-47345767D01*
X7337327Y-47396123D01*
X7346354Y-47399862D01*
X7499340Y-47481634D01*
X7507472Y-47487068D01*
X7641562Y-47597114D01*
X7648477Y-47604029D01*
X7758523Y-47738119D01*
X7763957Y-47746251D01*
X7845729Y-47899237D01*
X7849468Y-47908264D01*
X7899823Y-48074260D01*
X7901732Y-48083861D01*
X7918734Y-48256482D01*
X7918734Y-48266270D01*
X7901732Y-48438890D01*
X7899823Y-48448491D01*
X7849468Y-48614487D01*
X7845729Y-48623514D01*
X7763957Y-48776500D01*
X7758523Y-48784632D01*
X7648477Y-48918722D01*
X7641562Y-48925637D01*
X7507472Y-49035683D01*
X7499340Y-49041117D01*
X7346354Y-49122889D01*
X7337327Y-49126628D01*
X7171331Y-49176983D01*
X7161730Y-49178892D01*
X6986659Y-49196135D01*
X6981766Y-49196376D01*
X5716666Y-49196376D01*
X5716666Y-49866376D01*
X5716673Y-49866376D01*
X6981759Y-49866376D01*
X6986656Y-49866616D01*
X7161738Y-49883860D01*
X7171327Y-49885767D01*
X7337327Y-49936123D01*
X7346354Y-49939862D01*
X7499340Y-50021634D01*
X7507472Y-50027068D01*
X7641562Y-50137114D01*
X7648477Y-50144029D01*
X7758523Y-50278119D01*
X7763957Y-50286251D01*
X7845729Y-50439237D01*
X7849468Y-50448264D01*
X7899823Y-50614260D01*
X7901732Y-50623861D01*
X7918734Y-50796482D01*
X7918734Y-50806270D01*
X7901732Y-50978890D01*
X7899823Y-50988491D01*
X7849468Y-51154487D01*
X7845729Y-51163514D01*
X7763957Y-51316500D01*
X7758523Y-51324632D01*
X7648477Y-51458722D01*
X7641562Y-51465637D01*
X7507472Y-51575683D01*
X7499340Y-51581117D01*
X7346354Y-51662889D01*
X7337327Y-51666628D01*
X7171331Y-51716983D01*
X7161730Y-51718892D01*
X6986659Y-51736135D01*
X6981766Y-51736376D01*
X5716666Y-51736376D01*
X5716666Y-52406376D01*
X5716673Y-52406376D01*
X6981759Y-52406376D01*
X6986656Y-52406616D01*
X7161738Y-52423860D01*
X7171327Y-52425767D01*
X7337327Y-52476123D01*
X7346354Y-52479862D01*
X7499340Y-52561634D01*
X7507472Y-52567068D01*
X7641562Y-52677114D01*
X7648477Y-52684029D01*
X7758523Y-52818119D01*
X7763957Y-52826251D01*
X7845729Y-52979237D01*
X7849468Y-52988264D01*
X7899823Y-53154260D01*
X7901732Y-53163861D01*
X7918734Y-53336482D01*
X7918734Y-53346270D01*
X7901732Y-53518890D01*
X7899823Y-53528491D01*
X7849468Y-53694487D01*
X7845729Y-53703514D01*
X7763957Y-53856500D01*
X7758523Y-53864632D01*
X7648477Y-53998722D01*
X7641562Y-54005637D01*
X7507472Y-54115683D01*
X7499340Y-54121117D01*
X7346354Y-54202889D01*
X7337327Y-54206628D01*
X7171331Y-54256983D01*
X7161730Y-54258892D01*
X6986659Y-54276135D01*
X6981766Y-54276376D01*
X5716666Y-54276376D01*
X5716666Y-58000000D01*
X11536189Y-58000000D01*
X11536189Y-11285128D01*
X11531424Y-11283562D01*
X11520176Y-11261300D01*
X11520176Y-11060128D01*
X11500676Y-11000801D01*
X11420176Y-10960128D01*
X7488821Y-10960128D01*
X7441681Y-10971936D01*
X7346354Y-11022889D01*
X7337327Y-11026628D01*
X7171331Y-11076983D01*
X7161730Y-11078892D01*
X6986659Y-11096135D01*
X6981766Y-11096376D01*
X5716666Y-11096376D01*
X5711773Y-11096135D01*
X5536701Y-11078892D01*
X5527100Y-11076983D01*
X5361104Y-11026628D01*
X5352077Y-11022889D01*
X5199091Y-10941117D01*
X5190959Y-10935683D01*
X5056869Y-10825637D01*
X5049954Y-10818722D01*
X4939908Y-10684632D01*
X4934474Y-10676500D01*
X4852702Y-10523514D01*
X4848963Y-10514487D01*
X4798607Y-10348487D01*
X4796700Y-10338898D01*
X4779697Y-10166260D01*
X4779697Y-10156492D01*
X4796700Y-9983853D01*
X4798607Y-9974264D01*
X4848963Y-9808264D01*
X4852702Y-9799237D01*
X4934474Y-9646251D01*
X4939908Y-9638119D01*
X5049954Y-9504029D01*
X5056869Y-9497114D01*
X5190959Y-9387068D01*
X5199091Y-9381634D01*
X5352077Y-9299862D01*
X5361104Y-9296123D01*
X5527104Y-9245767D01*
X5536693Y-9243860D01*
X5711776Y-9226616D01*
X5716673Y-9226376D01*
X6981759Y-9226376D01*
X6986656Y-9226616D01*
X7161738Y-9243860D01*
X7171327Y-9245767D01*
X7337327Y-9296123D01*
X7346354Y-9299862D01*
X7437013Y-9348320D01*
X7484153Y-9360128D01*
X11420176Y-9360128D01*
X11479503Y-9340628D01*
X11520176Y-9260128D01*
X11520176Y-9051141D01*
X11521742Y-9046376D01*
X11544004Y-9035128D01*
X13354163Y-9035128D01*
X13358928Y-9036694D01*
X13370176Y-9058956D01*
X13370176Y-11269115D01*
X13368610Y-11273880D01*
X13346348Y-11285128D01*
X11536189Y-11285128D01*
X11536189Y-58000000D01*
X15980109Y-58000000D01*
X16014064Y-58014064D01*
X22670711Y-64670711D01*
X22741422Y-64700000D01*
X22862911Y-64700000D01*
X22862911Y-63030784D01*
X22857679Y-63030510D01*
X22800424Y-63024492D01*
X22795205Y-63024081D01*
X22740372Y-63021207D01*
X22730074Y-63019576D01*
X22722460Y-63017536D01*
X22707030Y-63014676D01*
X22699172Y-63013850D01*
X22688970Y-63011682D01*
X22636694Y-62994697D01*
X22631678Y-62993211D01*
X22578655Y-62979002D01*
X22568926Y-62975268D01*
X22561903Y-62971689D01*
X22547398Y-62965681D01*
X22539886Y-62963240D01*
X22530360Y-62958999D01*
X22482775Y-62931526D01*
X22478175Y-62929029D01*
X22429250Y-62904100D01*
X22420502Y-62898419D01*
X22414373Y-62893456D01*
X22401449Y-62884574D01*
X22394600Y-62880619D01*
X22386166Y-62874492D01*
X22345323Y-62837716D01*
X22341340Y-62834315D01*
X22296640Y-62798118D01*
X22292753Y-62794619D01*
X17216389Y-57718255D01*
X17212890Y-57714368D01*
X17176693Y-57669668D01*
X17173292Y-57665685D01*
X17136515Y-57624841D01*
X17130388Y-57616407D01*
X17126433Y-57609558D01*
X17117551Y-57596634D01*
X17112588Y-57590505D01*
X17106907Y-57581757D01*
X17081978Y-57532832D01*
X17079481Y-57528232D01*
X17052008Y-57480647D01*
X17047767Y-57471121D01*
X17045326Y-57463609D01*
X17039318Y-57449104D01*
X17035739Y-57442081D01*
X17032005Y-57432352D01*
X17017796Y-57379329D01*
X17016310Y-57374313D01*
X16999325Y-57322037D01*
X16997157Y-57311835D01*
X16996331Y-57303977D01*
X16993471Y-57288547D01*
X16991430Y-57280932D01*
X16989800Y-57270636D01*
X16986926Y-57215795D01*
X16986515Y-57210575D01*
X16980498Y-57153329D01*
X16980224Y-57148098D01*
X16980224Y-35563070D01*
X16980498Y-35557839D01*
X16986517Y-35500576D01*
X16986928Y-35495356D01*
X16989801Y-35440529D01*
X16991431Y-35430237D01*
X16993472Y-35422619D01*
X16996331Y-35407191D01*
X16997157Y-35399331D01*
X16999324Y-35389135D01*
X17016311Y-35336854D01*
X17017798Y-35331835D01*
X17032008Y-35278805D01*
X17035738Y-35269086D01*
X17039320Y-35262057D01*
X17045328Y-35247552D01*
X17047767Y-35240045D01*
X17052010Y-35230515D01*
X17079472Y-35182949D01*
X17081969Y-35178350D01*
X17106907Y-35129409D01*
X17112588Y-35120661D01*
X17117554Y-35114528D01*
X17126441Y-35101596D01*
X17130388Y-35094760D01*
X17136517Y-35086324D01*
X17173280Y-35045495D01*
X17176680Y-35041514D01*
X17212889Y-34996800D01*
X17216389Y-34992912D01*
X19752717Y-32456584D01*
X19756614Y-32453075D01*
X19801614Y-32416636D01*
X19805541Y-32413285D01*
X19846618Y-32376354D01*
X19855069Y-32370224D01*
X19861599Y-32366460D01*
X19874597Y-32357534D01*
X19880466Y-32352781D01*
X19889213Y-32347100D01*
X19938490Y-32321993D01*
X19943026Y-32319532D01*
X19990881Y-32291951D01*
X20000401Y-32287721D01*
X20007583Y-32285393D01*
X20022150Y-32279365D01*
X20028888Y-32275932D01*
X20038621Y-32272196D01*
X20092020Y-32257888D01*
X20096970Y-32256424D01*
X20149538Y-32239387D01*
X20159734Y-32237228D01*
X20167241Y-32236445D01*
X20182750Y-32233577D01*
X20190039Y-32231624D01*
X20200343Y-32229992D01*
X20255537Y-32227099D01*
X20260680Y-32226696D01*
X20318252Y-32220689D01*
X20323484Y-32220419D01*
X20453476Y-32220517D01*
X20500690Y-32208709D01*
X20592068Y-32159867D01*
X20601112Y-32156120D01*
X20767104Y-32105767D01*
X20776693Y-32103860D01*
X20951776Y-32086616D01*
X20956666Y-32086376D01*
X20956666Y-31416376D01*
X20951773Y-31416135D01*
X20776701Y-31398892D01*
X20767100Y-31396983D01*
X20601104Y-31346628D01*
X20592077Y-31342889D01*
X20439091Y-31261117D01*
X20430959Y-31255683D01*
X20296869Y-31145637D01*
X20289954Y-31138722D01*
X20179908Y-31004632D01*
X20174474Y-30996500D01*
X20092702Y-30843514D01*
X20088963Y-30834487D01*
X20038607Y-30668487D01*
X20036700Y-30658898D01*
X20019697Y-30486260D01*
X20019697Y-30476492D01*
X20036700Y-30303853D01*
X20038607Y-30294264D01*
X20088963Y-30128264D01*
X20092702Y-30119237D01*
X20174474Y-29966251D01*
X20179908Y-29958119D01*
X20289954Y-29824029D01*
X20296869Y-29817114D01*
X20430959Y-29707068D01*
X20439091Y-29701634D01*
X20592077Y-29619862D01*
X20601104Y-29616123D01*
X20767104Y-29565767D01*
X20776693Y-29563860D01*
X20951776Y-29546616D01*
X20956666Y-29546376D01*
X20956666Y-28876376D01*
X20951773Y-28876135D01*
X20776701Y-28858892D01*
X20767100Y-28856983D01*
X20601104Y-28806628D01*
X20592077Y-28802889D01*
X20439091Y-28721117D01*
X20430959Y-28715683D01*
X20296869Y-28605637D01*
X20289954Y-28598722D01*
X20179908Y-28464632D01*
X20174474Y-28456500D01*
X20092702Y-28303514D01*
X20088963Y-28294487D01*
X20038607Y-28128487D01*
X20036700Y-28118898D01*
X20019697Y-27946260D01*
X20019697Y-27936492D01*
X20036700Y-27763853D01*
X20038607Y-27754264D01*
X20088963Y-27588264D01*
X20092702Y-27579237D01*
X20174474Y-27426251D01*
X20179908Y-27418119D01*
X20289954Y-27284029D01*
X20296869Y-27277114D01*
X20430959Y-27167068D01*
X20439091Y-27161634D01*
X20592077Y-27079862D01*
X20601104Y-27076123D01*
X20767104Y-27025767D01*
X20776693Y-27023860D01*
X20951776Y-27006616D01*
X20956666Y-27006376D01*
X20956666Y-26336376D01*
X20951773Y-26336135D01*
X20776701Y-26318892D01*
X20767100Y-26316983D01*
X20601112Y-26266631D01*
X20592068Y-26262884D01*
X20497902Y-26212552D01*
X20450818Y-26200744D01*
X19687428Y-26200320D01*
X19682193Y-26200043D01*
X19625199Y-26194021D01*
X19619926Y-26193604D01*
X19565330Y-26190742D01*
X19555036Y-26189112D01*
X19547164Y-26187003D01*
X19531798Y-26184151D01*
X19523697Y-26183295D01*
X19513500Y-26181121D01*
X19461522Y-26164200D01*
X19456448Y-26162695D01*
X19403607Y-26148537D01*
X19393886Y-26144805D01*
X19386625Y-26141105D01*
X19372170Y-26135113D01*
X19364441Y-26132598D01*
X19354914Y-26128350D01*
X19307583Y-26100988D01*
X19302935Y-26098463D01*
X19254204Y-26073633D01*
X19245464Y-26067958D01*
X19239122Y-26062822D01*
X19226241Y-26053964D01*
X19219194Y-26049890D01*
X19210770Y-26043763D01*
X19170171Y-26007166D01*
X19166147Y-26003728D01*
X19121599Y-25967654D01*
X19117712Y-25964155D01*
X17851400Y-24697843D01*
X17847899Y-24693955D01*
X17811673Y-24649219D01*
X17808272Y-24645237D01*
X17771523Y-24604424D01*
X17765397Y-24595992D01*
X17761452Y-24589159D01*
X17752560Y-24576221D01*
X17747593Y-24570088D01*
X17741918Y-24561349D01*
X17716983Y-24512411D01*
X17714484Y-24507810D01*
X17687016Y-24460234D01*
X17682778Y-24450714D01*
X17680336Y-24443199D01*
X17674328Y-24428694D01*
X17670743Y-24421660D01*
X17667014Y-24411944D01*
X17652801Y-24358901D01*
X17651314Y-24353881D01*
X17634333Y-24301618D01*
X17632165Y-24291417D01*
X17631340Y-24283566D01*
X17628480Y-24268134D01*
X17626440Y-24260520D01*
X17624808Y-24250215D01*
X17621934Y-24195379D01*
X17621523Y-24190159D01*
X17615506Y-24132913D01*
X17615232Y-24127682D01*
X17615232Y-13452977D01*
X17585943Y-13382266D01*
X15518094Y-11314417D01*
X15447383Y-11285128D01*
X14586189Y-11285128D01*
X14581424Y-11283562D01*
X14570176Y-11261300D01*
X14570176Y-9051141D01*
X14571742Y-9046376D01*
X14594004Y-9035128D01*
X16404163Y-9035128D01*
X16408928Y-9036694D01*
X16420176Y-9058956D01*
X16420176Y-9912335D01*
X16449465Y-9983046D01*
X18979068Y-12512649D01*
X18982567Y-12516536D01*
X19018781Y-12561257D01*
X19022182Y-12565240D01*
X19058940Y-12606063D01*
X19065067Y-12614497D01*
X19069016Y-12621336D01*
X19077901Y-12634264D01*
X19082867Y-12640397D01*
X19088549Y-12649147D01*
X19113486Y-12698086D01*
X19115983Y-12702685D01*
X19143445Y-12750251D01*
X19147688Y-12759781D01*
X19150127Y-12767288D01*
X19156135Y-12781793D01*
X19159717Y-12788822D01*
X19163451Y-12798549D01*
X19177670Y-12851615D01*
X19179158Y-12856635D01*
X19196130Y-12908869D01*
X19198297Y-12919064D01*
X19199124Y-12926926D01*
X19201983Y-12942349D01*
X19204025Y-12949972D01*
X19205656Y-12960267D01*
X19208531Y-13015120D01*
X19208942Y-13020339D01*
X19214958Y-13077575D01*
X19215232Y-13082807D01*
X19215232Y-23757511D01*
X19244521Y-23828222D01*
X19987538Y-24571239D01*
X20058194Y-24600528D01*
X20453065Y-24600747D01*
X20500260Y-24588939D01*
X20592077Y-24539862D01*
X20601104Y-24536123D01*
X20767104Y-24485767D01*
X20776693Y-24483860D01*
X20951776Y-24466616D01*
X20956666Y-24466376D01*
X20956666Y-23796376D01*
X20951773Y-23796135D01*
X20776701Y-23778892D01*
X20767100Y-23776983D01*
X20601104Y-23726628D01*
X20592077Y-23722889D01*
X20439091Y-23641117D01*
X20430959Y-23635683D01*
X20296869Y-23525637D01*
X20289954Y-23518722D01*
X20179908Y-23384632D01*
X20174474Y-23376500D01*
X20092702Y-23223514D01*
X20088963Y-23214487D01*
X20038607Y-23048487D01*
X20036700Y-23038898D01*
X20019697Y-22866260D01*
X20019697Y-22856492D01*
X20036700Y-22683853D01*
X20038607Y-22674264D01*
X20088963Y-22508264D01*
X20092702Y-22499237D01*
X20174474Y-22346251D01*
X20179908Y-22338119D01*
X20289954Y-22204029D01*
X20296869Y-22197114D01*
X20430959Y-22087068D01*
X20439091Y-22081634D01*
X20592077Y-21999862D01*
X20601104Y-21996123D01*
X20767104Y-21945767D01*
X20776693Y-21943860D01*
X20951776Y-21926616D01*
X20956666Y-21926376D01*
X20956666Y-21256376D01*
X20951773Y-21256135D01*
X20776701Y-21238892D01*
X20767100Y-21236983D01*
X20601104Y-21186628D01*
X20592077Y-21182889D01*
X20439091Y-21101117D01*
X20430959Y-21095683D01*
X20296869Y-20985637D01*
X20289954Y-20978722D01*
X20179908Y-20844632D01*
X20174474Y-20836500D01*
X20092702Y-20683514D01*
X20088963Y-20674487D01*
X20038607Y-20508487D01*
X20036700Y-20498898D01*
X20019697Y-20326260D01*
X20019697Y-20316492D01*
X20036700Y-20143853D01*
X20038607Y-20134264D01*
X20088963Y-19968264D01*
X20092702Y-19959237D01*
X20174474Y-19806251D01*
X20179908Y-19798119D01*
X20289954Y-19664029D01*
X20296869Y-19657114D01*
X20430959Y-19547068D01*
X20439091Y-19541634D01*
X20592077Y-19459862D01*
X20601104Y-19456123D01*
X20767104Y-19405767D01*
X20776693Y-19403860D01*
X20951776Y-19386616D01*
X20956666Y-19386376D01*
X20956666Y-18716376D01*
X20951773Y-18716135D01*
X20776701Y-18698892D01*
X20767100Y-18696983D01*
X20601104Y-18646628D01*
X20592077Y-18642889D01*
X20439091Y-18561117D01*
X20430959Y-18555683D01*
X20296869Y-18445637D01*
X20289954Y-18438722D01*
X20179908Y-18304632D01*
X20174474Y-18296500D01*
X20092702Y-18143514D01*
X20088963Y-18134487D01*
X20038607Y-17968487D01*
X20036700Y-17958898D01*
X20019697Y-17786260D01*
X20019697Y-17776492D01*
X20036700Y-17603853D01*
X20038607Y-17594264D01*
X20088963Y-17428264D01*
X20092702Y-17419237D01*
X20174474Y-17266251D01*
X20179908Y-17258119D01*
X20289954Y-17124029D01*
X20296869Y-17117114D01*
X20430959Y-17007068D01*
X20439091Y-17001634D01*
X20592077Y-16919862D01*
X20601104Y-16916123D01*
X20767104Y-16865767D01*
X20776693Y-16863860D01*
X20951776Y-16846616D01*
X20956666Y-16846376D01*
X20956666Y-16176376D01*
X20951773Y-16176135D01*
X20776701Y-16158892D01*
X20767100Y-16156983D01*
X20601104Y-16106628D01*
X20592077Y-16102889D01*
X20439091Y-16021117D01*
X20430959Y-16015683D01*
X20296869Y-15905637D01*
X20289954Y-15898722D01*
X20179908Y-15764632D01*
X20174474Y-15756500D01*
X20092702Y-15603514D01*
X20088963Y-15594487D01*
X20038607Y-15428487D01*
X20036700Y-15418898D01*
X20019697Y-15246260D01*
X20019697Y-15236492D01*
X20036700Y-15063853D01*
X20038607Y-15054264D01*
X20088963Y-14888264D01*
X20092702Y-14879237D01*
X20174474Y-14726251D01*
X20179908Y-14718119D01*
X20289954Y-14584029D01*
X20296869Y-14577114D01*
X20430959Y-14467068D01*
X20439091Y-14461634D01*
X20592077Y-14379862D01*
X20601104Y-14376123D01*
X20767104Y-14325767D01*
X20776693Y-14323860D01*
X20951776Y-14306616D01*
X20956666Y-14306376D01*
X20956666Y-13636376D01*
X20951773Y-13636135D01*
X20776701Y-13618892D01*
X20767100Y-13616983D01*
X20601104Y-13566628D01*
X20592077Y-13562889D01*
X20439091Y-13481117D01*
X20430959Y-13475683D01*
X20296869Y-13365637D01*
X20289954Y-13358722D01*
X20179908Y-13224632D01*
X20174474Y-13216500D01*
X20092702Y-13063514D01*
X20088963Y-13054487D01*
X20038607Y-12888487D01*
X20036700Y-12878898D01*
X20019697Y-12706260D01*
X20019697Y-12696492D01*
X20036700Y-12523853D01*
X20038607Y-12514264D01*
X20088963Y-12348264D01*
X20092702Y-12339237D01*
X20174474Y-12186251D01*
X20179908Y-12178119D01*
X20289954Y-12044029D01*
X20296869Y-12037114D01*
X20430959Y-11927068D01*
X20439091Y-11921634D01*
X20592077Y-11839862D01*
X20601104Y-11836123D01*
X20767104Y-11785767D01*
X20776693Y-11783860D01*
X20951776Y-11766616D01*
X20956666Y-11766376D01*
X20956666Y-11096376D01*
X20951773Y-11096135D01*
X20776701Y-11078892D01*
X20767100Y-11076983D01*
X20601104Y-11026628D01*
X20592077Y-11022889D01*
X20439091Y-10941117D01*
X20430959Y-10935683D01*
X20296869Y-10825637D01*
X20289954Y-10818722D01*
X20179908Y-10684632D01*
X20174474Y-10676500D01*
X20092702Y-10523514D01*
X20088963Y-10514487D01*
X20038607Y-10348487D01*
X20036700Y-10338898D01*
X20019697Y-10166260D01*
X20019697Y-10156492D01*
X20036700Y-9983853D01*
X20038607Y-9974264D01*
X20088963Y-9808264D01*
X20092702Y-9799237D01*
X20174474Y-9646251D01*
X20179908Y-9638119D01*
X20289954Y-9504029D01*
X20296869Y-9497114D01*
X20430959Y-9387068D01*
X20439091Y-9381634D01*
X20592077Y-9299862D01*
X20601104Y-9296123D01*
X20767104Y-9245767D01*
X20776693Y-9243860D01*
X20951776Y-9226616D01*
X20956666Y-9226376D01*
X20956666Y-8556376D01*
X20951773Y-8556135D01*
X20776701Y-8538892D01*
X20767100Y-8536983D01*
X20601104Y-8486628D01*
X20592077Y-8482889D01*
X20439091Y-8401117D01*
X20430959Y-8395683D01*
X20296869Y-8285637D01*
X20289954Y-8278722D01*
X20179908Y-8144632D01*
X20174474Y-8136500D01*
X20092702Y-7983514D01*
X20088963Y-7974487D01*
X20038607Y-7808487D01*
X20036700Y-7798898D01*
X20019697Y-7626260D01*
X20019697Y-7616492D01*
X20036700Y-7443853D01*
X20038607Y-7434264D01*
X20088963Y-7268264D01*
X20092702Y-7259237D01*
X20174474Y-7106251D01*
X20179908Y-7098119D01*
X20289954Y-6964029D01*
X20296869Y-6957114D01*
X20430959Y-6847068D01*
X20439091Y-6841634D01*
X20592077Y-6759862D01*
X20601104Y-6756123D01*
X20767104Y-6705767D01*
X20776693Y-6703860D01*
X20951776Y-6686616D01*
X20956666Y-6686376D01*
X20956666Y-6016376D01*
X20951773Y-6016135D01*
X20776701Y-5998892D01*
X20767100Y-5996983D01*
X20601104Y-5946628D01*
X20592077Y-5942889D01*
X20439091Y-5861117D01*
X20430959Y-5855683D01*
X20296869Y-5745637D01*
X20289954Y-5738722D01*
X20179908Y-5604632D01*
X20174474Y-5596500D01*
X20092702Y-5443514D01*
X20088963Y-5434487D01*
X20038607Y-5268487D01*
X20036700Y-5258898D01*
X20019697Y-5086260D01*
X20019697Y-5076492D01*
X20036700Y-4903853D01*
X20038607Y-4894264D01*
X20088963Y-4728264D01*
X20092702Y-4719237D01*
X20174474Y-4566251D01*
X20179908Y-4558119D01*
X20289954Y-4424029D01*
X20296869Y-4417114D01*
X20430959Y-4307068D01*
X20439091Y-4301634D01*
X20592077Y-4219862D01*
X20601104Y-4216123D01*
X20767104Y-4165767D01*
X20776693Y-4163860D01*
X20951776Y-4146616D01*
X20956673Y-4146376D01*
X22221759Y-4146376D01*
X22226656Y-4146616D01*
X22401738Y-4163860D01*
X22411327Y-4165767D01*
X22577327Y-4216123D01*
X22586354Y-4219862D01*
X22739340Y-4301634D01*
X22747472Y-4307068D01*
X22881562Y-4417114D01*
X22888477Y-4424029D01*
X22998523Y-4558119D01*
X23003957Y-4566251D01*
X23085729Y-4719237D01*
X23089468Y-4728264D01*
X23139823Y-4894260D01*
X23141732Y-4903861D01*
X23158734Y-5076482D01*
X23158734Y-5086270D01*
X23141732Y-5258890D01*
X23139823Y-5268491D01*
X23089468Y-5434487D01*
X23085729Y-5443514D01*
X23003957Y-5596500D01*
X22998523Y-5604632D01*
X22888477Y-5738722D01*
X22881562Y-5745637D01*
X22747472Y-5855683D01*
X22739340Y-5861117D01*
X22586354Y-5942889D01*
X22577327Y-5946628D01*
X22411331Y-5996983D01*
X22401730Y-5998892D01*
X22226659Y-6016135D01*
X22221766Y-6016376D01*
X20956666Y-6016376D01*
X20956666Y-6686376D01*
X20956673Y-6686376D01*
X22221759Y-6686376D01*
X22226656Y-6686616D01*
X22401738Y-6703860D01*
X22411327Y-6705767D01*
X22577327Y-6756123D01*
X22586354Y-6759862D01*
X22739340Y-6841634D01*
X22747472Y-6847068D01*
X22881562Y-6957114D01*
X22888477Y-6964029D01*
X22998523Y-7098119D01*
X23003957Y-7106251D01*
X23085729Y-7259237D01*
X23089468Y-7268264D01*
X23139823Y-7434260D01*
X23141732Y-7443861D01*
X23158734Y-7616482D01*
X23158734Y-7626270D01*
X23141732Y-7798890D01*
X23139823Y-7808491D01*
X23089468Y-7974487D01*
X23085729Y-7983514D01*
X23003957Y-8136500D01*
X22998523Y-8144632D01*
X22888477Y-8278722D01*
X22881562Y-8285637D01*
X22747472Y-8395683D01*
X22739340Y-8401117D01*
X22586354Y-8482889D01*
X22577327Y-8486628D01*
X22411331Y-8536983D01*
X22401730Y-8538892D01*
X22226659Y-8556135D01*
X22221766Y-8556376D01*
X20956666Y-8556376D01*
X20956666Y-9226376D01*
X20956673Y-9226376D01*
X22221759Y-9226376D01*
X22226656Y-9226616D01*
X22401738Y-9243860D01*
X22411327Y-9245767D01*
X22577327Y-9296123D01*
X22586354Y-9299862D01*
X22739340Y-9381634D01*
X22747472Y-9387068D01*
X22881562Y-9497114D01*
X22888477Y-9504029D01*
X22998523Y-9638119D01*
X23003957Y-9646251D01*
X23085729Y-9799237D01*
X23089468Y-9808264D01*
X23139823Y-9974260D01*
X23141732Y-9983861D01*
X23158734Y-10156482D01*
X23158734Y-10166270D01*
X23141732Y-10338890D01*
X23139823Y-10348491D01*
X23089468Y-10514487D01*
X23085729Y-10523514D01*
X23003957Y-10676500D01*
X22998523Y-10684632D01*
X22888477Y-10818722D01*
X22881562Y-10825637D01*
X22747472Y-10935683D01*
X22739340Y-10941117D01*
X22586354Y-11022889D01*
X22577327Y-11026628D01*
X22411331Y-11076983D01*
X22401730Y-11078892D01*
X22226659Y-11096135D01*
X22221766Y-11096376D01*
X20956666Y-11096376D01*
X20956666Y-11766376D01*
X20956673Y-11766376D01*
X22221759Y-11766376D01*
X22226656Y-11766616D01*
X22401738Y-11783860D01*
X22411327Y-11785767D01*
X22577327Y-11836123D01*
X22586354Y-11839862D01*
X22739340Y-11921634D01*
X22747472Y-11927068D01*
X22881562Y-12037114D01*
X22888477Y-12044029D01*
X22998523Y-12178119D01*
X23003957Y-12186251D01*
X23085729Y-12339237D01*
X23089468Y-12348264D01*
X23139823Y-12514260D01*
X23141732Y-12523861D01*
X23158734Y-12696482D01*
X23158734Y-12706270D01*
X23141732Y-12878890D01*
X23139823Y-12888491D01*
X23089468Y-13054487D01*
X23085729Y-13063514D01*
X23003957Y-13216500D01*
X22998523Y-13224632D01*
X22888477Y-13358722D01*
X22881562Y-13365637D01*
X22747472Y-13475683D01*
X22739340Y-13481117D01*
X22586354Y-13562889D01*
X22577327Y-13566628D01*
X22411331Y-13616983D01*
X22401730Y-13618892D01*
X22226659Y-13636135D01*
X22221766Y-13636376D01*
X20956666Y-13636376D01*
X20956666Y-14306376D01*
X20956673Y-14306376D01*
X22221759Y-14306376D01*
X22226656Y-14306616D01*
X22401738Y-14323860D01*
X22411327Y-14325767D01*
X22577327Y-14376123D01*
X22586354Y-14379862D01*
X22739340Y-14461634D01*
X22747472Y-14467068D01*
X22881562Y-14577114D01*
X22888477Y-14584029D01*
X22998523Y-14718119D01*
X23003957Y-14726251D01*
X23085729Y-14879237D01*
X23089468Y-14888264D01*
X23139823Y-15054260D01*
X23141732Y-15063861D01*
X23158734Y-15236482D01*
X23158734Y-15246270D01*
X23141732Y-15418890D01*
X23139823Y-15428491D01*
X23089468Y-15594487D01*
X23085729Y-15603514D01*
X23003957Y-15756500D01*
X22998523Y-15764632D01*
X22888477Y-15898722D01*
X22881562Y-15905637D01*
X22747472Y-16015683D01*
X22739340Y-16021117D01*
X22586354Y-16102889D01*
X22577327Y-16106628D01*
X22411331Y-16156983D01*
X22401730Y-16158892D01*
X22226659Y-16176135D01*
X22221766Y-16176376D01*
X20956666Y-16176376D01*
X20956666Y-16846376D01*
X20956673Y-16846376D01*
X22221759Y-16846376D01*
X22226656Y-16846616D01*
X22401738Y-16863860D01*
X22411327Y-16865767D01*
X22577327Y-16916123D01*
X22586354Y-16919862D01*
X22739340Y-17001634D01*
X22747472Y-17007068D01*
X22881562Y-17117114D01*
X22888477Y-17124029D01*
X22998523Y-17258119D01*
X23003957Y-17266251D01*
X23085729Y-17419237D01*
X23089468Y-17428264D01*
X23139823Y-17594260D01*
X23141732Y-17603861D01*
X23158734Y-17776482D01*
X23158734Y-17786270D01*
X23141732Y-17958890D01*
X23139823Y-17968491D01*
X23089468Y-18134487D01*
X23085729Y-18143514D01*
X23003957Y-18296500D01*
X22998523Y-18304632D01*
X22888477Y-18438722D01*
X22881562Y-18445637D01*
X22747472Y-18555683D01*
X22739340Y-18561117D01*
X22586354Y-18642889D01*
X22577327Y-18646628D01*
X22411331Y-18696983D01*
X22401730Y-18698892D01*
X22226659Y-18716135D01*
X22221766Y-18716376D01*
X20956666Y-18716376D01*
X20956666Y-19386376D01*
X20956673Y-19386376D01*
X22221759Y-19386376D01*
X22226656Y-19386616D01*
X22401738Y-19403860D01*
X22411327Y-19405767D01*
X22577327Y-19456123D01*
X22586354Y-19459862D01*
X22739340Y-19541634D01*
X22747472Y-19547068D01*
X22881562Y-19657114D01*
X22888477Y-19664029D01*
X22998523Y-19798119D01*
X23003957Y-19806251D01*
X23085729Y-19959237D01*
X23089468Y-19968264D01*
X23139823Y-20134260D01*
X23141732Y-20143861D01*
X23158734Y-20316482D01*
X23158734Y-20326270D01*
X23141732Y-20498890D01*
X23139823Y-20508491D01*
X23089468Y-20674487D01*
X23085729Y-20683514D01*
X23003957Y-20836500D01*
X22998523Y-20844632D01*
X22888477Y-20978722D01*
X22881562Y-20985637D01*
X22747472Y-21095683D01*
X22739340Y-21101117D01*
X22586354Y-21182889D01*
X22577327Y-21186628D01*
X22411331Y-21236983D01*
X22401730Y-21238892D01*
X22226659Y-21256135D01*
X22221766Y-21256376D01*
X20956666Y-21256376D01*
X20956666Y-21926376D01*
X20956673Y-21926376D01*
X22221759Y-21926376D01*
X22226656Y-21926616D01*
X22401738Y-21943860D01*
X22411327Y-21945767D01*
X22577327Y-21996123D01*
X22586354Y-21999862D01*
X22739340Y-22081634D01*
X22747472Y-22087068D01*
X22881562Y-22197114D01*
X22888477Y-22204029D01*
X22998523Y-22338119D01*
X23003957Y-22346251D01*
X23085729Y-22499237D01*
X23089468Y-22508264D01*
X23139823Y-22674260D01*
X23141732Y-22683861D01*
X23158734Y-22856482D01*
X23158734Y-22866270D01*
X23141732Y-23038890D01*
X23139823Y-23048491D01*
X23089468Y-23214487D01*
X23085729Y-23223514D01*
X23003957Y-23376500D01*
X22998523Y-23384632D01*
X22888477Y-23518722D01*
X22881562Y-23525637D01*
X22747472Y-23635683D01*
X22739340Y-23641117D01*
X22586354Y-23722889D01*
X22577327Y-23726628D01*
X22411331Y-23776983D01*
X22401730Y-23778892D01*
X22226659Y-23796135D01*
X22221766Y-23796376D01*
X20956666Y-23796376D01*
X20956666Y-24466376D01*
X20956673Y-24466376D01*
X22221759Y-24466376D01*
X22226656Y-24466616D01*
X22401738Y-24483860D01*
X22411327Y-24485767D01*
X22577327Y-24536123D01*
X22586354Y-24539862D01*
X22739340Y-24621634D01*
X22747472Y-24627068D01*
X22881562Y-24737114D01*
X22888477Y-24744029D01*
X22998523Y-24878119D01*
X23003957Y-24886251D01*
X23085729Y-25039237D01*
X23089468Y-25048264D01*
X23139823Y-25214260D01*
X23141732Y-25223861D01*
X23158734Y-25396482D01*
X23158734Y-25406270D01*
X23141732Y-25578890D01*
X23139823Y-25588491D01*
X23089468Y-25754487D01*
X23085729Y-25763514D01*
X23003957Y-25916500D01*
X22998523Y-25924632D01*
X22888477Y-26058722D01*
X22881562Y-26065637D01*
X22747472Y-26175683D01*
X22739340Y-26181117D01*
X22586354Y-26262889D01*
X22577327Y-26266628D01*
X22411331Y-26316983D01*
X22401730Y-26318892D01*
X22226659Y-26336135D01*
X22221766Y-26336376D01*
X20956666Y-26336376D01*
X20956666Y-27006376D01*
X20956673Y-27006376D01*
X22221759Y-27006376D01*
X22226656Y-27006616D01*
X22401738Y-27023860D01*
X22411327Y-27025767D01*
X22577327Y-27076123D01*
X22586354Y-27079862D01*
X22739340Y-27161634D01*
X22747472Y-27167068D01*
X22881562Y-27277114D01*
X22888477Y-27284029D01*
X22998523Y-27418119D01*
X23003957Y-27426251D01*
X23085729Y-27579237D01*
X23089468Y-27588264D01*
X23139823Y-27754260D01*
X23141732Y-27763861D01*
X23158734Y-27936482D01*
X23158734Y-27946270D01*
X23141732Y-28118890D01*
X23139823Y-28128491D01*
X23089468Y-28294487D01*
X23085729Y-28303514D01*
X23003957Y-28456500D01*
X22998523Y-28464632D01*
X22888477Y-28598722D01*
X22881562Y-28605637D01*
X22747472Y-28715683D01*
X22739340Y-28721117D01*
X22586354Y-28802889D01*
X22577327Y-28806628D01*
X22411331Y-28856983D01*
X22401730Y-28858892D01*
X22226659Y-28876135D01*
X22221766Y-28876376D01*
X20956666Y-28876376D01*
X20956666Y-29546376D01*
X20956673Y-29546376D01*
X22221759Y-29546376D01*
X22226656Y-29546616D01*
X22401738Y-29563860D01*
X22411327Y-29565767D01*
X22577327Y-29616123D01*
X22586354Y-29619862D01*
X22739340Y-29701634D01*
X22747472Y-29707068D01*
X22881562Y-29817114D01*
X22888477Y-29824029D01*
X22998523Y-29958119D01*
X23003957Y-29966251D01*
X23085729Y-30119237D01*
X23089468Y-30128264D01*
X23139823Y-30294260D01*
X23141732Y-30303861D01*
X23158734Y-30476482D01*
X23158734Y-30486270D01*
X23141732Y-30658890D01*
X23139823Y-30668491D01*
X23089468Y-30834487D01*
X23085729Y-30843514D01*
X23003957Y-30996500D01*
X22998523Y-31004632D01*
X22888477Y-31138722D01*
X22881562Y-31145637D01*
X22747472Y-31255683D01*
X22739340Y-31261117D01*
X22586354Y-31342889D01*
X22577327Y-31346628D01*
X22411331Y-31396983D01*
X22401730Y-31398892D01*
X22226659Y-31416135D01*
X22221766Y-31416376D01*
X20956666Y-31416376D01*
X20956666Y-32086376D01*
X20956673Y-32086376D01*
X22221759Y-32086376D01*
X22226656Y-32086616D01*
X22401738Y-32103860D01*
X22411327Y-32105767D01*
X22577327Y-32156123D01*
X22586354Y-32159862D01*
X22739340Y-32241634D01*
X22747472Y-32247068D01*
X22881562Y-32357114D01*
X22888477Y-32364029D01*
X22998523Y-32498119D01*
X23003957Y-32506251D01*
X23085729Y-32659237D01*
X23089468Y-32668264D01*
X23139823Y-32834260D01*
X23141732Y-32843861D01*
X23158734Y-33016482D01*
X23158734Y-33026270D01*
X23141732Y-33198890D01*
X23139823Y-33208491D01*
X23089468Y-33374487D01*
X23085729Y-33383514D01*
X23003957Y-33536500D01*
X22998523Y-33544632D01*
X22888477Y-33678722D01*
X22881562Y-33685637D01*
X22747472Y-33795683D01*
X22739340Y-33801117D01*
X22586354Y-33882889D01*
X22577327Y-33886628D01*
X22411331Y-33936983D01*
X22401730Y-33938892D01*
X22226659Y-33956135D01*
X22221766Y-33956376D01*
X20956666Y-33956376D01*
X20951773Y-33956135D01*
X20776701Y-33938892D01*
X20767100Y-33936983D01*
X20646423Y-33900376D01*
X20583990Y-33901815D01*
X20546684Y-33925359D01*
X18609513Y-35862530D01*
X18580224Y-35933241D01*
X18580224Y-56777928D01*
X18609513Y-56848639D01*
X20956666Y-59195792D01*
X20956666Y-54276376D01*
X20951773Y-54276135D01*
X20776701Y-54258892D01*
X20767100Y-54256983D01*
X20601104Y-54206628D01*
X20592077Y-54202889D01*
X20439091Y-54121117D01*
X20430959Y-54115683D01*
X20296869Y-54005637D01*
X20289954Y-53998722D01*
X20179908Y-53864632D01*
X20174474Y-53856500D01*
X20092702Y-53703514D01*
X20088963Y-53694487D01*
X20038607Y-53528487D01*
X20036700Y-53518898D01*
X20019697Y-53346260D01*
X20019697Y-53336492D01*
X20036700Y-53163853D01*
X20038607Y-53154264D01*
X20088963Y-52988264D01*
X20092702Y-52979237D01*
X20174474Y-52826251D01*
X20179908Y-52818119D01*
X20289954Y-52684029D01*
X20296869Y-52677114D01*
X20430959Y-52567068D01*
X20439091Y-52561634D01*
X20592077Y-52479862D01*
X20601104Y-52476123D01*
X20767104Y-52425767D01*
X20776693Y-52423860D01*
X20951776Y-52406616D01*
X20956666Y-52406376D01*
X20956666Y-49196376D01*
X20951773Y-49196135D01*
X20776701Y-49178892D01*
X20767100Y-49176983D01*
X20601104Y-49126628D01*
X20592077Y-49122889D01*
X20439091Y-49041117D01*
X20430959Y-49035683D01*
X20296869Y-48925637D01*
X20289954Y-48918722D01*
X20179908Y-48784632D01*
X20174474Y-48776500D01*
X20092702Y-48623514D01*
X20088963Y-48614487D01*
X20038607Y-48448487D01*
X20036700Y-48438898D01*
X20019697Y-48266260D01*
X20019697Y-48256492D01*
X20036700Y-48083853D01*
X20038607Y-48074264D01*
X20088963Y-47908264D01*
X20092702Y-47899237D01*
X20174474Y-47746251D01*
X20179908Y-47738119D01*
X20289954Y-47604029D01*
X20296869Y-47597114D01*
X20430959Y-47487068D01*
X20439091Y-47481634D01*
X20592077Y-47399862D01*
X20601104Y-47396123D01*
X20767104Y-47345767D01*
X20776693Y-47343860D01*
X20951776Y-47326616D01*
X20956666Y-47326376D01*
X20956666Y-46656376D01*
X20951773Y-46656135D01*
X20776701Y-46638892D01*
X20767100Y-46636983D01*
X20601104Y-46586628D01*
X20592077Y-46582889D01*
X20439091Y-46501117D01*
X20430959Y-46495683D01*
X20296869Y-46385637D01*
X20289954Y-46378722D01*
X20179908Y-46244632D01*
X20174474Y-46236500D01*
X20092702Y-46083514D01*
X20088963Y-46074487D01*
X20038607Y-45908487D01*
X20036700Y-45898898D01*
X20019697Y-45726260D01*
X20019697Y-45716492D01*
X20036700Y-45543853D01*
X20038607Y-45534264D01*
X20088963Y-45368264D01*
X20092702Y-45359237D01*
X20174474Y-45206251D01*
X20179908Y-45198119D01*
X20289954Y-45064029D01*
X20296869Y-45057114D01*
X20430959Y-44947068D01*
X20439091Y-44941634D01*
X20592077Y-44859862D01*
X20601104Y-44856123D01*
X20767104Y-44805767D01*
X20776693Y-44803860D01*
X20951776Y-44786616D01*
X20956666Y-44786376D01*
X20956666Y-44116376D01*
X20951773Y-44116135D01*
X20776701Y-44098892D01*
X20767100Y-44096983D01*
X20601104Y-44046628D01*
X20592077Y-44042889D01*
X20439091Y-43961117D01*
X20430959Y-43955683D01*
X20296869Y-43845637D01*
X20289954Y-43838722D01*
X20179908Y-43704632D01*
X20174474Y-43696500D01*
X20092702Y-43543514D01*
X20088963Y-43534487D01*
X20038607Y-43368487D01*
X20036700Y-43358898D01*
X20019697Y-43186260D01*
X20019697Y-43176492D01*
X20036700Y-43003853D01*
X20038607Y-42994264D01*
X20088963Y-42828264D01*
X20092702Y-42819237D01*
X20174474Y-42666251D01*
X20179908Y-42658119D01*
X20289954Y-42524029D01*
X20296869Y-42517114D01*
X20430959Y-42407068D01*
X20439091Y-42401634D01*
X20592077Y-42319862D01*
X20601104Y-42316123D01*
X20767104Y-42265767D01*
X20776693Y-42263860D01*
X20951776Y-42246616D01*
X20956666Y-42246376D01*
X20956666Y-41576376D01*
X20951773Y-41576135D01*
X20776701Y-41558892D01*
X20767100Y-41556983D01*
X20601104Y-41506628D01*
X20592077Y-41502889D01*
X20439091Y-41421117D01*
X20430959Y-41415683D01*
X20296869Y-41305637D01*
X20289954Y-41298722D01*
X20179908Y-41164632D01*
X20174474Y-41156500D01*
X20092702Y-41003514D01*
X20088963Y-40994487D01*
X20038607Y-40828487D01*
X20036700Y-40818898D01*
X20019697Y-40646260D01*
X20019697Y-40636492D01*
X20036700Y-40463853D01*
X20038607Y-40454264D01*
X20088963Y-40288264D01*
X20092702Y-40279237D01*
X20174474Y-40126251D01*
X20179908Y-40118119D01*
X20289954Y-39984029D01*
X20296869Y-39977114D01*
X20430959Y-39867068D01*
X20439091Y-39861634D01*
X20592077Y-39779862D01*
X20601104Y-39776123D01*
X20767104Y-39725767D01*
X20776693Y-39723860D01*
X20951776Y-39706616D01*
X20956666Y-39706376D01*
X20956666Y-39036376D01*
X20951773Y-39036135D01*
X20776701Y-39018892D01*
X20767100Y-39016983D01*
X20601104Y-38966628D01*
X20592077Y-38962889D01*
X20439091Y-38881117D01*
X20430959Y-38875683D01*
X20296869Y-38765637D01*
X20289954Y-38758722D01*
X20179908Y-38624632D01*
X20174474Y-38616500D01*
X20092702Y-38463514D01*
X20088963Y-38454487D01*
X20038607Y-38288487D01*
X20036700Y-38278898D01*
X20019697Y-38106260D01*
X20019697Y-38096492D01*
X20036700Y-37923853D01*
X20038607Y-37914264D01*
X20088963Y-37748264D01*
X20092702Y-37739237D01*
X20174474Y-37586251D01*
X20179908Y-37578119D01*
X20289954Y-37444029D01*
X20296869Y-37437114D01*
X20430959Y-37327068D01*
X20439091Y-37321634D01*
X20592077Y-37239862D01*
X20601104Y-37236123D01*
X20767104Y-37185767D01*
X20776693Y-37183860D01*
X20951776Y-37166616D01*
X20956673Y-37166376D01*
X22221759Y-37166376D01*
X22226656Y-37166616D01*
X22401738Y-37183860D01*
X22411327Y-37185767D01*
X22577327Y-37236123D01*
X22586354Y-37239862D01*
X22739340Y-37321634D01*
X22747472Y-37327068D01*
X22881562Y-37437114D01*
X22888477Y-37444029D01*
X22998523Y-37578119D01*
X23003957Y-37586251D01*
X23085729Y-37739237D01*
X23089468Y-37748264D01*
X23139823Y-37914260D01*
X23141732Y-37923861D01*
X23158734Y-38096482D01*
X23158734Y-38106270D01*
X23141732Y-38278890D01*
X23139823Y-38288491D01*
X23089468Y-38454487D01*
X23085729Y-38463514D01*
X23003957Y-38616500D01*
X22998523Y-38624632D01*
X22888477Y-38758722D01*
X22881562Y-38765637D01*
X22747472Y-38875683D01*
X22739340Y-38881117D01*
X22586354Y-38962889D01*
X22577327Y-38966628D01*
X22411331Y-39016983D01*
X22401730Y-39018892D01*
X22226659Y-39036135D01*
X22221766Y-39036376D01*
X20956666Y-39036376D01*
X20956666Y-39706376D01*
X20956673Y-39706376D01*
X22221759Y-39706376D01*
X22226656Y-39706616D01*
X22401738Y-39723860D01*
X22411327Y-39725767D01*
X22577327Y-39776123D01*
X22586354Y-39779862D01*
X22739340Y-39861634D01*
X22747472Y-39867068D01*
X22881562Y-39977114D01*
X22888477Y-39984029D01*
X22998523Y-40118119D01*
X23003957Y-40126251D01*
X23085729Y-40279237D01*
X23089468Y-40288264D01*
X23139823Y-40454260D01*
X23141732Y-40463861D01*
X23158734Y-40636482D01*
X23158734Y-40646270D01*
X23141732Y-40818890D01*
X23139823Y-40828491D01*
X23089468Y-40994487D01*
X23085729Y-41003514D01*
X23003957Y-41156500D01*
X22998523Y-41164632D01*
X22888477Y-41298722D01*
X22881562Y-41305637D01*
X22747472Y-41415683D01*
X22739340Y-41421117D01*
X22586354Y-41502889D01*
X22577327Y-41506628D01*
X22411331Y-41556983D01*
X22401730Y-41558892D01*
X22226659Y-41576135D01*
X22221766Y-41576376D01*
X20956666Y-41576376D01*
X20956666Y-42246376D01*
X20956673Y-42246376D01*
X22221759Y-42246376D01*
X22226656Y-42246616D01*
X22401738Y-42263860D01*
X22411327Y-42265767D01*
X22577327Y-42316123D01*
X22586354Y-42319862D01*
X22739340Y-42401634D01*
X22747472Y-42407068D01*
X22881562Y-42517114D01*
X22888477Y-42524029D01*
X22998523Y-42658119D01*
X23003957Y-42666251D01*
X23085729Y-42819237D01*
X23089468Y-42828264D01*
X23139823Y-42994260D01*
X23141732Y-43003861D01*
X23158734Y-43176482D01*
X23158734Y-43186270D01*
X23141732Y-43358890D01*
X23139823Y-43368491D01*
X23089468Y-43534487D01*
X23085729Y-43543514D01*
X23003957Y-43696500D01*
X22998523Y-43704632D01*
X22888477Y-43838722D01*
X22881562Y-43845637D01*
X22747472Y-43955683D01*
X22739340Y-43961117D01*
X22586354Y-44042889D01*
X22577327Y-44046628D01*
X22411331Y-44096983D01*
X22401730Y-44098892D01*
X22226659Y-44116135D01*
X22221766Y-44116376D01*
X20956666Y-44116376D01*
X20956666Y-44786376D01*
X20956673Y-44786376D01*
X22221759Y-44786376D01*
X22226656Y-44786616D01*
X22401738Y-44803860D01*
X22411327Y-44805767D01*
X22577327Y-44856123D01*
X22586354Y-44859862D01*
X22739340Y-44941634D01*
X22747472Y-44947068D01*
X22881562Y-45057114D01*
X22888477Y-45064029D01*
X22998523Y-45198119D01*
X23003957Y-45206251D01*
X23085729Y-45359237D01*
X23089468Y-45368264D01*
X23139823Y-45534260D01*
X23141732Y-45543861D01*
X23158734Y-45716482D01*
X23158734Y-45726270D01*
X23141732Y-45898890D01*
X23139823Y-45908491D01*
X23089468Y-46074487D01*
X23085729Y-46083514D01*
X23003957Y-46236500D01*
X22998523Y-46244632D01*
X22888477Y-46378722D01*
X22881562Y-46385637D01*
X22747472Y-46495683D01*
X22739340Y-46501117D01*
X22586354Y-46582889D01*
X22577327Y-46586628D01*
X22411331Y-46636983D01*
X22401730Y-46638892D01*
X22226659Y-46656135D01*
X22221766Y-46656376D01*
X20956666Y-46656376D01*
X20956666Y-47326376D01*
X20956673Y-47326376D01*
X22221759Y-47326376D01*
X22226656Y-47326616D01*
X22401738Y-47343860D01*
X22411327Y-47345767D01*
X22577327Y-47396123D01*
X22586354Y-47399862D01*
X22739340Y-47481634D01*
X22747472Y-47487068D01*
X22881562Y-47597114D01*
X22888477Y-47604029D01*
X22998523Y-47738119D01*
X23003957Y-47746251D01*
X23085729Y-47899237D01*
X23089468Y-47908264D01*
X23139823Y-48074260D01*
X23141732Y-48083861D01*
X23158734Y-48256482D01*
X23158734Y-48266270D01*
X23141732Y-48438890D01*
X23139823Y-48448491D01*
X23089468Y-48614487D01*
X23085729Y-48623514D01*
X23003957Y-48776500D01*
X22998523Y-48784632D01*
X22888477Y-48918722D01*
X22881562Y-48925637D01*
X22747472Y-49035683D01*
X22739340Y-49041117D01*
X22586354Y-49122889D01*
X22577327Y-49126628D01*
X22411331Y-49176983D01*
X22401730Y-49178892D01*
X22226659Y-49196135D01*
X22221766Y-49196376D01*
X20956666Y-49196376D01*
X20956666Y-52406376D01*
X20956673Y-52406376D01*
X22221759Y-52406376D01*
X22226656Y-52406616D01*
X22401738Y-52423860D01*
X22411327Y-52425767D01*
X22577327Y-52476123D01*
X22586354Y-52479862D01*
X22739340Y-52561634D01*
X22747472Y-52567068D01*
X22881562Y-52677114D01*
X22888477Y-52684029D01*
X22998523Y-52818119D01*
X23003957Y-52826251D01*
X23085729Y-52979237D01*
X23089468Y-52988264D01*
X23139823Y-53154260D01*
X23141732Y-53163861D01*
X23158734Y-53336482D01*
X23158734Y-53346270D01*
X23141732Y-53518890D01*
X23139823Y-53528491D01*
X23089468Y-53694487D01*
X23085729Y-53703514D01*
X23003957Y-53856500D01*
X22998523Y-53864632D01*
X22888477Y-53998722D01*
X22881562Y-54005637D01*
X22747472Y-54115683D01*
X22739340Y-54121117D01*
X22586354Y-54202889D01*
X22577327Y-54206628D01*
X22411331Y-54256983D01*
X22401730Y-54258892D01*
X22226659Y-54276135D01*
X22221766Y-54276376D01*
X20956666Y-54276376D01*
X20956666Y-59195792D01*
X23162369Y-61401495D01*
X23233080Y-61430784D01*
X27942975Y-61430784D01*
X27942975Y-60490752D01*
X27937743Y-60490478D01*
X27880469Y-60484458D01*
X27875250Y-60484047D01*
X27820433Y-60481174D01*
X27810146Y-60479545D01*
X27802531Y-60477504D01*
X27787097Y-60474644D01*
X27779240Y-60473818D01*
X27769036Y-60471650D01*
X27716750Y-60454661D01*
X27711730Y-60453174D01*
X27658715Y-60438969D01*
X27648985Y-60435234D01*
X27641964Y-60431656D01*
X27627465Y-60425650D01*
X27619940Y-60423205D01*
X27610423Y-60418968D01*
X27562801Y-60391474D01*
X27558202Y-60388977D01*
X27509310Y-60364065D01*
X27500567Y-60358387D01*
X27494443Y-60353428D01*
X27481515Y-60344543D01*
X27474659Y-60340585D01*
X27466230Y-60334460D01*
X27425398Y-60297694D01*
X27421416Y-60294292D01*
X27376692Y-60258076D01*
X27372816Y-60254587D01*
X26106504Y-58988275D01*
X26103003Y-58984387D01*
X26066777Y-58939651D01*
X26063376Y-58935669D01*
X26026627Y-58894856D01*
X26020501Y-58886424D01*
X26016556Y-58879591D01*
X26007664Y-58866653D01*
X26002697Y-58860520D01*
X25997022Y-58851781D01*
X25972087Y-58802843D01*
X25969588Y-58798242D01*
X25942120Y-58750666D01*
X25937882Y-58741146D01*
X25935440Y-58733631D01*
X25929432Y-58719126D01*
X25925847Y-58712092D01*
X25922118Y-58702376D01*
X25907905Y-58649333D01*
X25906418Y-58644313D01*
X25889437Y-58592050D01*
X25887269Y-58581849D01*
X25886444Y-58573998D01*
X25883584Y-58558566D01*
X25881544Y-58550952D01*
X25879912Y-58540647D01*
X25877038Y-58485811D01*
X25876627Y-58480591D01*
X25870610Y-58423345D01*
X25870336Y-58418114D01*
X25870336Y-38473273D01*
X25841047Y-38402562D01*
X23828222Y-36389737D01*
X23757511Y-36360448D01*
X22728222Y-36360448D01*
X22681082Y-36372256D01*
X22586354Y-36422889D01*
X22577327Y-36426628D01*
X22411331Y-36476983D01*
X22401730Y-36478892D01*
X22226659Y-36496135D01*
X22221766Y-36496376D01*
X20956666Y-36496376D01*
X20951773Y-36496135D01*
X20776701Y-36478892D01*
X20767100Y-36476983D01*
X20601104Y-36426628D01*
X20592077Y-36422889D01*
X20439091Y-36341117D01*
X20430959Y-36335683D01*
X20296869Y-36225637D01*
X20289954Y-36218722D01*
X20179908Y-36084632D01*
X20174474Y-36076500D01*
X20092702Y-35923514D01*
X20088963Y-35914487D01*
X20038607Y-35748487D01*
X20036700Y-35738898D01*
X20019697Y-35566260D01*
X20019697Y-35556492D01*
X20036700Y-35383853D01*
X20038607Y-35374264D01*
X20088963Y-35208264D01*
X20092702Y-35199237D01*
X20174474Y-35046251D01*
X20179908Y-35038119D01*
X20289954Y-34904029D01*
X20296869Y-34897114D01*
X20430959Y-34787068D01*
X20439091Y-34781634D01*
X20592077Y-34699862D01*
X20601104Y-34696123D01*
X20767104Y-34645767D01*
X20776693Y-34643860D01*
X20951776Y-34626616D01*
X20956673Y-34626376D01*
X22221759Y-34626376D01*
X22226656Y-34626616D01*
X22401738Y-34643860D01*
X22411327Y-34645767D01*
X22577327Y-34696123D01*
X22586358Y-34699864D01*
X22677613Y-34748640D01*
X22724752Y-34760448D01*
X24127682Y-34760448D01*
X24132913Y-34760722D01*
X24190176Y-34766741D01*
X24195396Y-34767152D01*
X24250222Y-34770025D01*
X24260514Y-34771655D01*
X24268132Y-34773696D01*
X24283560Y-34776555D01*
X24291420Y-34777381D01*
X24301616Y-34779548D01*
X24353897Y-34796535D01*
X24358916Y-34798022D01*
X24411946Y-34812232D01*
X24421665Y-34815962D01*
X24428694Y-34819544D01*
X24443199Y-34825552D01*
X24450706Y-34827991D01*
X24460236Y-34832234D01*
X24507802Y-34859696D01*
X24512401Y-34862193D01*
X24561342Y-34887131D01*
X24570091Y-34892812D01*
X24576225Y-34897779D01*
X24589149Y-34906661D01*
X24595989Y-34910610D01*
X24604424Y-34916739D01*
X24645238Y-34953489D01*
X24649220Y-34956890D01*
X24693955Y-34993115D01*
X24697843Y-34996616D01*
X27234171Y-37532944D01*
X27237670Y-37536831D01*
X27273875Y-37581541D01*
X27277276Y-37585524D01*
X27314044Y-37626358D01*
X27320167Y-37634787D01*
X27324121Y-37641634D01*
X27333005Y-37654560D01*
X27337971Y-37660693D01*
X27343649Y-37669437D01*
X27368570Y-37718346D01*
X27371067Y-37722946D01*
X27398554Y-37770556D01*
X27402790Y-37780069D01*
X27405232Y-37787587D01*
X27411240Y-37802092D01*
X27414820Y-37809117D01*
X27418554Y-37818844D01*
X27432765Y-37871880D01*
X27434253Y-37876900D01*
X27451233Y-37929159D01*
X27453402Y-37939363D01*
X27454228Y-37947221D01*
X27457088Y-37962651D01*
X27459128Y-37970265D01*
X27460759Y-37980563D01*
X27463633Y-38035398D01*
X27464044Y-38040617D01*
X27470062Y-38097871D01*
X27470336Y-38103103D01*
X27470336Y-58047943D01*
X27499625Y-58118654D01*
X28242434Y-58861463D01*
X28313145Y-58890752D01*
X33390480Y-58890752D01*
X33449807Y-58871252D01*
X33490480Y-58790752D01*
X33490480Y-55096685D01*
X33492046Y-55091920D01*
X33506493Y-55084620D01*
X33506493Y-51600672D01*
X33501728Y-51599106D01*
X33490480Y-51576844D01*
X33490480Y-49716915D01*
X33490433Y-49530827D01*
X33490322Y-49530827D01*
X33490322Y-49530624D01*
X33490432Y-49530624D01*
X33490432Y-48633401D01*
X33461143Y-48562690D01*
X32454732Y-47556279D01*
X32454730Y-47556276D01*
X28646533Y-43748079D01*
X28643034Y-43744192D01*
X28606837Y-43699492D01*
X28603436Y-43695509D01*
X28566659Y-43654665D01*
X28560532Y-43646231D01*
X28556577Y-43639382D01*
X28547695Y-43626458D01*
X28542732Y-43620329D01*
X28537051Y-43611581D01*
X28512122Y-43562656D01*
X28509625Y-43558056D01*
X28482152Y-43510471D01*
X28477911Y-43500945D01*
X28475470Y-43493433D01*
X28469462Y-43478928D01*
X28465883Y-43471905D01*
X28462149Y-43462176D01*
X28447940Y-43409153D01*
X28446454Y-43404137D01*
X28429469Y-43351861D01*
X28427301Y-43341659D01*
X28426475Y-43333801D01*
X28423615Y-43318371D01*
X28421574Y-43310756D01*
X28419944Y-43300460D01*
X28417070Y-43245619D01*
X28416659Y-43240399D01*
X28410642Y-43183153D01*
X28410368Y-43177922D01*
X28410368Y-19052862D01*
X28410642Y-19047631D01*
X28416659Y-18990385D01*
X28417070Y-18985165D01*
X28419944Y-18930328D01*
X28421576Y-18920023D01*
X28423616Y-18912409D01*
X28426476Y-18896977D01*
X28427301Y-18889128D01*
X28429470Y-18878919D01*
X28446454Y-18826646D01*
X28447940Y-18821630D01*
X28462149Y-18768607D01*
X28465883Y-18758878D01*
X28469462Y-18751855D01*
X28475470Y-18737350D01*
X28477911Y-18729838D01*
X28482152Y-18720312D01*
X28509625Y-18672727D01*
X28512122Y-18668127D01*
X28537051Y-18619202D01*
X28542732Y-18610454D01*
X28547695Y-18604325D01*
X28556577Y-18591401D01*
X28560531Y-18584554D01*
X28566663Y-18576114D01*
X28603425Y-18535286D01*
X28606826Y-18531305D01*
X28643035Y-18486590D01*
X28646536Y-18482702D01*
X32452878Y-14676360D01*
X32456766Y-14672859D01*
X32501481Y-14636650D01*
X32505462Y-14633249D01*
X32546290Y-14596487D01*
X32554730Y-14590355D01*
X32561577Y-14586401D01*
X32574501Y-14577519D01*
X32580630Y-14572556D01*
X32589378Y-14566875D01*
X32638303Y-14541946D01*
X32642903Y-14539449D01*
X32690488Y-14511976D01*
X32700014Y-14507735D01*
X32707526Y-14505294D01*
X32722031Y-14499286D01*
X32729054Y-14495707D01*
X32738783Y-14491973D01*
X32791806Y-14477764D01*
X32796822Y-14476278D01*
X32849095Y-14459294D01*
X32859304Y-14457125D01*
X32867153Y-14456300D01*
X32882585Y-14453440D01*
X32890199Y-14451400D01*
X32900504Y-14449768D01*
X32955341Y-14446894D01*
X32960561Y-14446483D01*
X33017807Y-14440466D01*
X33023038Y-14440192D01*
X33153039Y-14440192D01*
X33200178Y-14428384D01*
X33293289Y-14378616D01*
X33302320Y-14374875D01*
X33468320Y-14324519D01*
X33477909Y-14322612D01*
X33652992Y-14305368D01*
X33657889Y-14305128D01*
X34922975Y-14305128D01*
X34927872Y-14305368D01*
X35102954Y-14322612D01*
X35112543Y-14324519D01*
X35278543Y-14374875D01*
X35287570Y-14378614D01*
X35380672Y-14428378D01*
X35427813Y-14440186D01*
X43313275Y-14440135D01*
X43360414Y-14428327D01*
X43453421Y-14378614D01*
X43462448Y-14374875D01*
X43628448Y-14324519D01*
X43638037Y-14322612D01*
X43813120Y-14305368D01*
X43818017Y-14305128D01*
X45083103Y-14305128D01*
X45088000Y-14305368D01*
X45263082Y-14322612D01*
X45272671Y-14324519D01*
X45438671Y-14374875D01*
X45447698Y-14378614D01*
X45600684Y-14460386D01*
X45608816Y-14465820D01*
X45742906Y-14575866D01*
X45749821Y-14582781D01*
X45859867Y-14716871D01*
X45865301Y-14725003D01*
X45947073Y-14877989D01*
X45950812Y-14887016D01*
X46001167Y-15053012D01*
X46003076Y-15062613D01*
X46020078Y-15235234D01*
X46020078Y-15245022D01*
X46003076Y-15417642D01*
X46001167Y-15427243D01*
X45950812Y-15593239D01*
X45947073Y-15602266D01*
X45865301Y-15755252D01*
X45859867Y-15763384D01*
X45749821Y-15897474D01*
X45742906Y-15904389D01*
X45608816Y-16014435D01*
X45600684Y-16019869D01*
X45447698Y-16101641D01*
X45438671Y-16105380D01*
X45272675Y-16155735D01*
X45263074Y-16157644D01*
X45088003Y-16174887D01*
X45083110Y-16175128D01*
X43818010Y-16175128D01*
X43813117Y-16174887D01*
X43638045Y-16157644D01*
X43628444Y-16155735D01*
X43462448Y-16105380D01*
X43453421Y-16101641D01*
X43360441Y-16051942D01*
X43313300Y-16040134D01*
X35427594Y-16040185D01*
X35380456Y-16051993D01*
X35287579Y-16101636D01*
X35278535Y-16105383D01*
X35112547Y-16155735D01*
X35102946Y-16157644D01*
X34927875Y-16174887D01*
X34922982Y-16175128D01*
X33657882Y-16175128D01*
X33652989Y-16174887D01*
X33477917Y-16157644D01*
X33468316Y-16155735D01*
X33347614Y-16119120D01*
X33285181Y-16120558D01*
X33247875Y-16144103D01*
X30039657Y-19352321D01*
X30010368Y-19423032D01*
X30010368Y-42807752D01*
X30039657Y-42878463D01*
X33586093Y-46424899D01*
X33586112Y-46424917D01*
X34854267Y-47693072D01*
X34857766Y-47696959D01*
X34893971Y-47741669D01*
X34897372Y-47745652D01*
X34934140Y-47786486D01*
X34943344Y-47799155D01*
X34945540Y-47797559D01*
X34984291Y-47832269D01*
X35024416Y-47840672D01*
X35074467Y-47840672D01*
X35079232Y-47842238D01*
X35090480Y-47864500D01*
X35090480Y-51584659D01*
X35088914Y-51589424D01*
X35066652Y-51600672D01*
X33506493Y-51600672D01*
X33506493Y-55084620D01*
X33514308Y-55080672D01*
X35074467Y-55080672D01*
X35079232Y-55082238D01*
X35090480Y-55104500D01*
X35090480Y-58790752D01*
X35109980Y-58850079D01*
X35190480Y-58890752D01*
X35930480Y-58890752D01*
X35989807Y-58871252D01*
X36030480Y-58790752D01*
X36030480Y-55096685D01*
X36032046Y-55091920D01*
X36046493Y-55084620D01*
X36046493Y-51600672D01*
X36041728Y-51599106D01*
X36030480Y-51576844D01*
X36030480Y-49708861D01*
X36030465Y-49530692D01*
X36030391Y-49530692D01*
X36030391Y-49530624D01*
X36030464Y-49530624D01*
X36030464Y-46093369D01*
X36001175Y-46022658D01*
X35258366Y-45279849D01*
X35187655Y-45250560D01*
X34293055Y-45250560D01*
X34287823Y-45250286D01*
X34230549Y-45244266D01*
X34225330Y-45243855D01*
X34170513Y-45240982D01*
X34160226Y-45239353D01*
X34152611Y-45237312D01*
X34137177Y-45234452D01*
X34129320Y-45233626D01*
X34119116Y-45231458D01*
X34066830Y-45214469D01*
X34061810Y-45212982D01*
X34008795Y-45198777D01*
X33999065Y-45195042D01*
X33992044Y-45191464D01*
X33977545Y-45185458D01*
X33970020Y-45183013D01*
X33960503Y-45178776D01*
X33912881Y-45151282D01*
X33908282Y-45148785D01*
X33859390Y-45123873D01*
X33850647Y-45118195D01*
X33844523Y-45113236D01*
X33831595Y-45104351D01*
X33824739Y-45100393D01*
X33816310Y-45094268D01*
X33775478Y-45057502D01*
X33771496Y-45054100D01*
X33726772Y-45017884D01*
X33722896Y-45014395D01*
X31186568Y-42478067D01*
X31183067Y-42474179D01*
X31146841Y-42429443D01*
X31143440Y-42425461D01*
X31106691Y-42384648D01*
X31100565Y-42376216D01*
X31096620Y-42369383D01*
X31087728Y-42356445D01*
X31082761Y-42350312D01*
X31077086Y-42341573D01*
X31052151Y-42292635D01*
X31049652Y-42288034D01*
X31022184Y-42240458D01*
X31017946Y-42230938D01*
X31015504Y-42223423D01*
X31009496Y-42208918D01*
X31005911Y-42201884D01*
X31002182Y-42192168D01*
X30987969Y-42139125D01*
X30986482Y-42134105D01*
X30969501Y-42081842D01*
X30967333Y-42071641D01*
X30966508Y-42063790D01*
X30963648Y-42048358D01*
X30961608Y-42040744D01*
X30959976Y-42030439D01*
X30957102Y-41975603D01*
X30956691Y-41970383D01*
X30950674Y-41913137D01*
X30950400Y-41907906D01*
X30950400Y-38103102D01*
X30950674Y-38097871D01*
X30956693Y-38040608D01*
X30957104Y-38035388D01*
X30959977Y-37980561D01*
X30961607Y-37970269D01*
X30963648Y-37962651D01*
X30966507Y-37947223D01*
X30967333Y-37939363D01*
X30969500Y-37929167D01*
X30986487Y-37876886D01*
X30987974Y-37871867D01*
X31002184Y-37818837D01*
X31005914Y-37809118D01*
X31009496Y-37802089D01*
X31015504Y-37787584D01*
X31017943Y-37780077D01*
X31022186Y-37770547D01*
X31049648Y-37722981D01*
X31052145Y-37718382D01*
X31077083Y-37669441D01*
X31082764Y-37660693D01*
X31087730Y-37654560D01*
X31096617Y-37641628D01*
X31100564Y-37634792D01*
X31106693Y-37626356D01*
X31143456Y-37585527D01*
X31146856Y-37581546D01*
X31183065Y-37536832D01*
X31186565Y-37532944D01*
X32452886Y-36266623D01*
X32456765Y-36263130D01*
X32501481Y-36226920D01*
X32505462Y-36223520D01*
X32546290Y-36186758D01*
X32554724Y-36180630D01*
X32561560Y-36176684D01*
X32574498Y-36167792D01*
X32580631Y-36162825D01*
X32589374Y-36157147D01*
X32638325Y-36132205D01*
X32642924Y-36129708D01*
X32690488Y-36102248D01*
X32700015Y-36098006D01*
X32707518Y-36095568D01*
X32722015Y-36089564D01*
X32729055Y-36085977D01*
X32738776Y-36082245D01*
X32791828Y-36068030D01*
X32796848Y-36066543D01*
X32849100Y-36049565D01*
X32859295Y-36047398D01*
X32867152Y-36046573D01*
X32882588Y-36043712D01*
X32890203Y-36041671D01*
X32900504Y-36040040D01*
X32955342Y-36037166D01*
X32960562Y-36036755D01*
X33017807Y-36030738D01*
X33023038Y-36030464D01*
X33506493Y-36030464D01*
X33506493Y-35090464D01*
X33501728Y-35088898D01*
X33490480Y-35066636D01*
X33490480Y-33211333D01*
X33490432Y-33209502D01*
X33490432Y-29012235D01*
X33454706Y-28935626D01*
X33451719Y-28933120D01*
X33297659Y-28779060D01*
X33292070Y-28772399D01*
X33167102Y-28593928D01*
X33162754Y-28586397D01*
X33070675Y-28388933D01*
X33067702Y-28380764D01*
X33011311Y-28170309D01*
X33009801Y-28161747D01*
X32990812Y-27944696D01*
X32990812Y-27936008D01*
X33009801Y-27718956D01*
X33011311Y-27710394D01*
X33067702Y-27499939D01*
X33070675Y-27491770D01*
X33162754Y-27294307D01*
X33167102Y-27286776D01*
X33292070Y-27108304D01*
X33297659Y-27101643D01*
X33451723Y-26947579D01*
X33458384Y-26941990D01*
X33636856Y-26817022D01*
X33644387Y-26812674D01*
X33841850Y-26720595D01*
X33850019Y-26717622D01*
X34060474Y-26661231D01*
X34069036Y-26659721D01*
X34286088Y-26640732D01*
X34294776Y-26640732D01*
X34511827Y-26659721D01*
X34520389Y-26661231D01*
X34730844Y-26717622D01*
X34739013Y-26720595D01*
X34936477Y-26812674D01*
X34944008Y-26817022D01*
X35122479Y-26941990D01*
X35129140Y-26947579D01*
X35283204Y-27101643D01*
X35288793Y-27108304D01*
X35413761Y-27286776D01*
X35418109Y-27294307D01*
X35510188Y-27491770D01*
X35513161Y-27499939D01*
X35569552Y-27710390D01*
X35571063Y-27718965D01*
X35590051Y-27935997D01*
X35590051Y-27944707D01*
X35571063Y-28161738D01*
X35569552Y-28170313D01*
X35513161Y-28380764D01*
X35510188Y-28388933D01*
X35418109Y-28586397D01*
X35413761Y-28593928D01*
X35288793Y-28772399D01*
X35283204Y-28779060D01*
X35129142Y-28933122D01*
X35126152Y-28935631D01*
X35090432Y-29012235D01*
X35090432Y-31330369D01*
X35090480Y-31330570D01*
X35090480Y-35074451D01*
X35088914Y-35079216D01*
X35066652Y-35090464D01*
X33506493Y-35090464D01*
X33506493Y-36030464D01*
X35187655Y-36030464D01*
X35258366Y-36001175D01*
X36001175Y-35258366D01*
X36030464Y-35187655D01*
X36030464Y-30483006D01*
X36030738Y-30477775D01*
X36036757Y-30420512D01*
X36037168Y-30415292D01*
X36040041Y-30360465D01*
X36041671Y-30350173D01*
X36043712Y-30342555D01*
X36046571Y-30327127D01*
X36047397Y-30319267D01*
X36049564Y-30309071D01*
X36066551Y-30256790D01*
X36068038Y-30251771D01*
X36082248Y-30198741D01*
X36085978Y-30189022D01*
X36089560Y-30181993D01*
X36095568Y-30167488D01*
X36098007Y-30159981D01*
X36102250Y-30150451D01*
X36129712Y-30102885D01*
X36132209Y-30098286D01*
X36157147Y-30049345D01*
X36162828Y-30040597D01*
X36167794Y-30034464D01*
X36176681Y-30021532D01*
X36180628Y-30014696D01*
X36186757Y-30006260D01*
X36223520Y-29965431D01*
X36226920Y-29961450D01*
X36263129Y-29916736D01*
X36266629Y-29912848D01*
X38802966Y-27376511D01*
X38806845Y-27373018D01*
X38851561Y-27336808D01*
X38855542Y-27333408D01*
X38896370Y-27296646D01*
X38904804Y-27290518D01*
X38911640Y-27286572D01*
X38924578Y-27277680D01*
X38930711Y-27272713D01*
X38939454Y-27267035D01*
X38988405Y-27242093D01*
X38993004Y-27239596D01*
X39040568Y-27212136D01*
X39050095Y-27207894D01*
X39057598Y-27205456D01*
X39072095Y-27199452D01*
X39079135Y-27195865D01*
X39088856Y-27192133D01*
X39141908Y-27177918D01*
X39146928Y-27176431D01*
X39199180Y-27159453D01*
X39209375Y-27157286D01*
X39217232Y-27156461D01*
X39232668Y-27153600D01*
X39240283Y-27151559D01*
X39250584Y-27149928D01*
X39305422Y-27147054D01*
X39310642Y-27146643D01*
X39367887Y-27140626D01*
X39373118Y-27140352D01*
X40001939Y-27140352D01*
X40001939Y-25295041D01*
X39752906Y-25277229D01*
X39745844Y-25276214D01*
X39501876Y-25223143D01*
X39495036Y-25221134D01*
X39261105Y-25133882D01*
X39254621Y-25130921D01*
X39035486Y-25011264D01*
X39029489Y-25007410D01*
X38829613Y-24857786D01*
X38824230Y-24853121D01*
X38647678Y-24676569D01*
X38643013Y-24671186D01*
X38493389Y-24471310D01*
X38489535Y-24465313D01*
X38369878Y-24246178D01*
X38366917Y-24239694D01*
X38279665Y-24005763D01*
X38277656Y-23998923D01*
X38224585Y-23754955D01*
X38223570Y-23747893D01*
X38205759Y-23498861D01*
X38205759Y-23491731D01*
X38223570Y-23242697D01*
X38224585Y-23235636D01*
X38277656Y-22991668D01*
X38279665Y-22984828D01*
X38366917Y-22750897D01*
X38369878Y-22744413D01*
X38489535Y-22525278D01*
X38493389Y-22519281D01*
X38643013Y-22319405D01*
X38647678Y-22314022D01*
X38824230Y-22137470D01*
X38829613Y-22132805D01*
X39029489Y-21983181D01*
X39035486Y-21979327D01*
X39254621Y-21859670D01*
X39261105Y-21856709D01*
X39495036Y-21769457D01*
X39501876Y-21767448D01*
X39745844Y-21714377D01*
X39752905Y-21713362D01*
X40001939Y-21695551D01*
X40009069Y-21695551D01*
X40258101Y-21713362D01*
X40265163Y-21714377D01*
X40509131Y-21767448D01*
X40515971Y-21769457D01*
X40749902Y-21856709D01*
X40756386Y-21859670D01*
X40975521Y-21979327D01*
X40981518Y-21983181D01*
X41181394Y-22132805D01*
X41186777Y-22137470D01*
X41363329Y-22314022D01*
X41367994Y-22319405D01*
X41517618Y-22519281D01*
X41521472Y-22525278D01*
X41641129Y-22744413D01*
X41644090Y-22750897D01*
X41731342Y-22984828D01*
X41733351Y-22991668D01*
X41786422Y-23235636D01*
X41787437Y-23242698D01*
X41805249Y-23491731D01*
X41805249Y-23498861D01*
X41787437Y-23747893D01*
X41786422Y-23754955D01*
X41733351Y-23998923D01*
X41731342Y-24005763D01*
X41644090Y-24239694D01*
X41641129Y-24246178D01*
X41521472Y-24465313D01*
X41517618Y-24471310D01*
X41367994Y-24671186D01*
X41363329Y-24676569D01*
X41186777Y-24853121D01*
X41181394Y-24857786D01*
X40981518Y-25007410D01*
X40975521Y-25011264D01*
X40756386Y-25130921D01*
X40749902Y-25133882D01*
X40515971Y-25221134D01*
X40509131Y-25223143D01*
X40265163Y-25276214D01*
X40258101Y-25277229D01*
X40009069Y-25295041D01*
X40001939Y-25295041D01*
X40001939Y-27140352D01*
X45347783Y-27140352D01*
X45418494Y-27111063D01*
X47431319Y-25098238D01*
X47460608Y-25027527D01*
X47460608Y-13072953D01*
X47431319Y-13002242D01*
X45493165Y-11064088D01*
X45437425Y-11035926D01*
X45393426Y-11039105D01*
X45272675Y-11075735D01*
X45263074Y-11077644D01*
X45088003Y-11094887D01*
X45083110Y-11095128D01*
X43818010Y-11095128D01*
X43813117Y-11094887D01*
X43638045Y-11077644D01*
X43628444Y-11075735D01*
X43462448Y-11025380D01*
X43453421Y-11021641D01*
X43360429Y-10971936D01*
X43313289Y-10960128D01*
X35427702Y-10960128D01*
X35380562Y-10971936D01*
X35287570Y-11021641D01*
X35278543Y-11025380D01*
X35112547Y-11075735D01*
X35102946Y-11077644D01*
X34927875Y-11094887D01*
X34922982Y-11095128D01*
X33657882Y-11095128D01*
X33652989Y-11094887D01*
X33477917Y-11077644D01*
X33468316Y-11075735D01*
X33302320Y-11025380D01*
X33293293Y-11021641D01*
X33140307Y-10939869D01*
X33132175Y-10934435D01*
X32998085Y-10824389D01*
X32991170Y-10817474D01*
X32881124Y-10683384D01*
X32875690Y-10675252D01*
X32793918Y-10522266D01*
X32790179Y-10513239D01*
X32739823Y-10347239D01*
X32737916Y-10337650D01*
X32720913Y-10165012D01*
X32720913Y-10155244D01*
X32737916Y-9982605D01*
X32739823Y-9973016D01*
X32790179Y-9807016D01*
X32793918Y-9797989D01*
X32875690Y-9645003D01*
X32881124Y-9636871D01*
X32991170Y-9502781D01*
X32998085Y-9495866D01*
X33132175Y-9385820D01*
X33140307Y-9380386D01*
X33293293Y-9298614D01*
X33302320Y-9294875D01*
X33468320Y-9244519D01*
X33477909Y-9242612D01*
X33652992Y-9225368D01*
X33657882Y-9225128D01*
X33657882Y-6015128D01*
X33652989Y-6014887D01*
X33477917Y-5997644D01*
X33468316Y-5995735D01*
X33302320Y-5945380D01*
X33293293Y-5941641D01*
X33140307Y-5859869D01*
X33132175Y-5854435D01*
X32998085Y-5744389D01*
X32991170Y-5737474D01*
X32881124Y-5603384D01*
X32875690Y-5595252D01*
X32793918Y-5442266D01*
X32790179Y-5433239D01*
X32739823Y-5267239D01*
X32737916Y-5257650D01*
X32720913Y-5085012D01*
X32720913Y-5075244D01*
X32737916Y-4902605D01*
X32739823Y-4893016D01*
X32790179Y-4727016D01*
X32793918Y-4717989D01*
X32875690Y-4565003D01*
X32881124Y-4556871D01*
X32991170Y-4422781D01*
X32998085Y-4415866D01*
X33132175Y-4305820D01*
X33140307Y-4300386D01*
X33293293Y-4218614D01*
X33302320Y-4214875D01*
X33468320Y-4164519D01*
X33477909Y-4162612D01*
X33652992Y-4145368D01*
X33657889Y-4145128D01*
X34922975Y-4145128D01*
X34927872Y-4145368D01*
X35102954Y-4162612D01*
X35112543Y-4164519D01*
X35278535Y-4214872D01*
X35287579Y-4218619D01*
X35380458Y-4268263D01*
X35427596Y-4280071D01*
X43313298Y-4280122D01*
X43360439Y-4268314D01*
X43453421Y-4218614D01*
X43462448Y-4214875D01*
X43628448Y-4164519D01*
X43638037Y-4162612D01*
X43813120Y-4145368D01*
X43818017Y-4145128D01*
X45083103Y-4145128D01*
X45088000Y-4145368D01*
X45263082Y-4162612D01*
X45272671Y-4164519D01*
X45438671Y-4214875D01*
X45447698Y-4218614D01*
X45600684Y-4300386D01*
X45608816Y-4305820D01*
X45742906Y-4415866D01*
X45749821Y-4422781D01*
X45859867Y-4556871D01*
X45865301Y-4565003D01*
X45947073Y-4717989D01*
X45950812Y-4727016D01*
X46001167Y-4893012D01*
X46003076Y-4902613D01*
X46020078Y-5075234D01*
X46020078Y-5085022D01*
X46003076Y-5257642D01*
X46001167Y-5267243D01*
X45950812Y-5433239D01*
X45947073Y-5442266D01*
X45865301Y-5595252D01*
X45859867Y-5603384D01*
X45749821Y-5737474D01*
X45742906Y-5744389D01*
X45608816Y-5854435D01*
X45600684Y-5859869D01*
X45447698Y-5941641D01*
X45438671Y-5945380D01*
X45272675Y-5995735D01*
X45263074Y-5997644D01*
X45088003Y-6014887D01*
X45083110Y-6015128D01*
X43818010Y-6015128D01*
X43813117Y-6014887D01*
X43638045Y-5997644D01*
X43628444Y-5995735D01*
X43462448Y-5945380D01*
X43453421Y-5941641D01*
X43360416Y-5891929D01*
X43313277Y-5880121D01*
X35427811Y-5880070D01*
X35380670Y-5891878D01*
X35287570Y-5941641D01*
X35278543Y-5945380D01*
X35112547Y-5995735D01*
X35102946Y-5997644D01*
X34927875Y-6014887D01*
X34922982Y-6015128D01*
X33657882Y-6015128D01*
X33657882Y-9225128D01*
X33657889Y-9225128D01*
X34922975Y-9225128D01*
X34927872Y-9225368D01*
X35102954Y-9242612D01*
X35112543Y-9244519D01*
X35278543Y-9294875D01*
X35287570Y-9298614D01*
X35380564Y-9348320D01*
X35427704Y-9360128D01*
X43313287Y-9360128D01*
X43360427Y-9348320D01*
X43453421Y-9298614D01*
X43462448Y-9294875D01*
X43628448Y-9244519D01*
X43638037Y-9242612D01*
X43813120Y-9225368D01*
X43818017Y-9225128D01*
X45083103Y-9225128D01*
X45088000Y-9225368D01*
X45263082Y-9242612D01*
X45272671Y-9244519D01*
X45438671Y-9294875D01*
X45447698Y-9298614D01*
X45540692Y-9348320D01*
X45587832Y-9360128D01*
X45717954Y-9360128D01*
X45723185Y-9360402D01*
X45780411Y-9366417D01*
X45785631Y-9366828D01*
X45840491Y-9369703D01*
X45850786Y-9371333D01*
X45858409Y-9373376D01*
X45873842Y-9376236D01*
X45881692Y-9377061D01*
X45891888Y-9379228D01*
X45944112Y-9396198D01*
X45949135Y-9397686D01*
X46002208Y-9411906D01*
X46011938Y-9415641D01*
X46018980Y-9419229D01*
X46033477Y-9425233D01*
X46040981Y-9427671D01*
X46050504Y-9431911D01*
X46098069Y-9459372D01*
X46102668Y-9461869D01*
X46151617Y-9486810D01*
X46160368Y-9492493D01*
X46166504Y-9497462D01*
X46179435Y-9506350D01*
X46186267Y-9510295D01*
X46194701Y-9516422D01*
X46235518Y-9553173D01*
X46239496Y-9556571D01*
X46284233Y-9592800D01*
X46288106Y-9596287D01*
X48824443Y-12132624D01*
X48827942Y-12136511D01*
X48864147Y-12181221D01*
X48867548Y-12185204D01*
X48904316Y-12226038D01*
X48910439Y-12234467D01*
X48914393Y-12241314D01*
X48923277Y-12254240D01*
X48928243Y-12260373D01*
X48933921Y-12269117D01*
X48958842Y-12318026D01*
X48961339Y-12322626D01*
X48988826Y-12370236D01*
X48993062Y-12379749D01*
X48995504Y-12387267D01*
X49001512Y-12401772D01*
X49005092Y-12408797D01*
X49008826Y-12418524D01*
X49023037Y-12471560D01*
X49024525Y-12476580D01*
X49041505Y-12528839D01*
X49043674Y-12539043D01*
X49044500Y-12546901D01*
X49047360Y-12562331D01*
X49049400Y-12569945D01*
X49051031Y-12580243D01*
X49053905Y-12635078D01*
X49054316Y-12640297D01*
X49060334Y-12697551D01*
X49060608Y-12702783D01*
X49060608Y-25397699D01*
X49060334Y-25402928D01*
X49054315Y-25460189D01*
X49053904Y-25465410D01*
X49051031Y-25520235D01*
X49049401Y-25530531D01*
X49047360Y-25538146D01*
X49044500Y-25553577D01*
X49043674Y-25561434D01*
X49041506Y-25571634D01*
X49024521Y-25623910D01*
X49023034Y-25628929D01*
X49008824Y-25681959D01*
X49005094Y-25691678D01*
X49001512Y-25698707D01*
X48995504Y-25713212D01*
X48993064Y-25720722D01*
X48988823Y-25730247D01*
X48961357Y-25777820D01*
X48958860Y-25782421D01*
X48933928Y-25831353D01*
X48928243Y-25840106D01*
X48923277Y-25846239D01*
X48914392Y-25859167D01*
X48910443Y-25866006D01*
X48904312Y-25874445D01*
X48867570Y-25915251D01*
X48864169Y-25919233D01*
X48827949Y-25963962D01*
X48824440Y-25967859D01*
X46288115Y-28504184D01*
X46284218Y-28507693D01*
X46239489Y-28543913D01*
X46235507Y-28547314D01*
X46194703Y-28584054D01*
X46186266Y-28590184D01*
X46179429Y-28594131D01*
X46166493Y-28603022D01*
X46160358Y-28607990D01*
X46151619Y-28613666D01*
X46102683Y-28638600D01*
X46098083Y-28641097D01*
X46050505Y-28668566D01*
X46040978Y-28672808D01*
X46033467Y-28675248D01*
X46018969Y-28681254D01*
X46011945Y-28684833D01*
X46002209Y-28688570D01*
X45949179Y-28702779D01*
X45944157Y-28704267D01*
X45891892Y-28721249D01*
X45881688Y-28723418D01*
X45873830Y-28724244D01*
X45858396Y-28727104D01*
X45850781Y-28729145D01*
X45840494Y-28730774D01*
X45785678Y-28733647D01*
X45780459Y-28734058D01*
X45723185Y-28740078D01*
X45717953Y-28740352D01*
X39743289Y-28740352D01*
X39672578Y-28769641D01*
X37659753Y-30782466D01*
X37630464Y-30853177D01*
X37630464Y-31330432D01*
X37630480Y-31330500D01*
X37630480Y-35090412D01*
X37630464Y-35090513D01*
X37630464Y-35557826D01*
X37630190Y-35563057D01*
X37624170Y-35620331D01*
X37623759Y-35625550D01*
X37620886Y-35680365D01*
X37619256Y-35690659D01*
X37617215Y-35698276D01*
X37614356Y-35713704D01*
X37613530Y-35721564D01*
X37611363Y-35731760D01*
X37594376Y-35784041D01*
X37592889Y-35789060D01*
X37578679Y-35842090D01*
X37574949Y-35851809D01*
X37571367Y-35858838D01*
X37565359Y-35873343D01*
X37562920Y-35880850D01*
X37558677Y-35890380D01*
X37531215Y-35937946D01*
X37528718Y-35942545D01*
X37503780Y-35991486D01*
X37498099Y-36000235D01*
X37493132Y-36006369D01*
X37484250Y-36019293D01*
X37480299Y-36026136D01*
X37474169Y-36034574D01*
X37437420Y-36075387D01*
X37434019Y-36079368D01*
X37397797Y-36124099D01*
X37394296Y-36127987D01*
X36127987Y-37394296D01*
X36124090Y-37397805D01*
X36079361Y-37434025D01*
X36075379Y-37437426D01*
X36034575Y-37474166D01*
X36026138Y-37480296D01*
X36019301Y-37484243D01*
X36006365Y-37493134D01*
X36000230Y-37498102D01*
X35991491Y-37503778D01*
X35942555Y-37528712D01*
X35937955Y-37531209D01*
X35890377Y-37558678D01*
X35880850Y-37562920D01*
X35873339Y-37565360D01*
X35858841Y-37571366D01*
X35851817Y-37574945D01*
X35842081Y-37578682D01*
X35789051Y-37592891D01*
X35784029Y-37594379D01*
X35731764Y-37611361D01*
X35721560Y-37613530D01*
X35713702Y-37614356D01*
X35698268Y-37617216D01*
X35690653Y-37619257D01*
X35680366Y-37620886D01*
X35625550Y-37623759D01*
X35620331Y-37624170D01*
X35563057Y-37630190D01*
X35557825Y-37630464D01*
X33393209Y-37630464D01*
X33322498Y-37659753D01*
X32579689Y-38402562D01*
X32550400Y-38473273D01*
X32550400Y-41537735D01*
X32579689Y-41608446D01*
X33319769Y-42348526D01*
X33375509Y-42376688D01*
X33437087Y-42366290D01*
X33480488Y-42321386D01*
X33490480Y-42277815D01*
X33490480Y-38586477D01*
X33492046Y-38581712D01*
X33514308Y-38570464D01*
X35074467Y-38570464D01*
X35079232Y-38572030D01*
X35090480Y-38594292D01*
X35090480Y-42314451D01*
X35088914Y-42319216D01*
X35066652Y-42330464D01*
X33543129Y-42330464D01*
X33483802Y-42349964D01*
X33447612Y-42400859D01*
X33448674Y-42463300D01*
X33472418Y-42501175D01*
X34592514Y-43621271D01*
X34663225Y-43650560D01*
X35557826Y-43650560D01*
X35563057Y-43650834D01*
X35620283Y-43656849D01*
X35625503Y-43657260D01*
X35680363Y-43660135D01*
X35690658Y-43661765D01*
X35698281Y-43663808D01*
X35713714Y-43666668D01*
X35721564Y-43667493D01*
X35731760Y-43669660D01*
X35783984Y-43686630D01*
X35789007Y-43688118D01*
X35842080Y-43702338D01*
X35851810Y-43706073D01*
X35858852Y-43709661D01*
X35873349Y-43715665D01*
X35880853Y-43718103D01*
X35890376Y-43722343D01*
X35937941Y-43749804D01*
X35942540Y-43752301D01*
X35991489Y-43777242D01*
X36000240Y-43782925D01*
X36006376Y-43787894D01*
X36019307Y-43796782D01*
X36026139Y-43800727D01*
X36034573Y-43806854D01*
X36046493Y-43817586D01*
X36046493Y-42330464D01*
X36041728Y-42328898D01*
X36030480Y-42306636D01*
X36030480Y-38586477D01*
X36032046Y-38581712D01*
X36054308Y-38570464D01*
X37614467Y-38570464D01*
X37619232Y-38572030D01*
X37630480Y-38594292D01*
X37630480Y-42314451D01*
X37628914Y-42319216D01*
X37606652Y-42330464D01*
X36046493Y-42330464D01*
X36046493Y-43817586D01*
X36075390Y-43843605D01*
X36079368Y-43847003D01*
X36124105Y-43883232D01*
X36127978Y-43886719D01*
X37394299Y-45153040D01*
X37397798Y-45156927D01*
X37434003Y-45201637D01*
X37437404Y-45205620D01*
X37474172Y-45246454D01*
X37480295Y-45254883D01*
X37484249Y-45261730D01*
X37493133Y-45274656D01*
X37498097Y-45280786D01*
X37503781Y-45289539D01*
X37528712Y-45338468D01*
X37531209Y-45343068D01*
X37558678Y-45390646D01*
X37562920Y-45400173D01*
X37565360Y-45407684D01*
X37571366Y-45422182D01*
X37574945Y-45429206D01*
X37578682Y-45438942D01*
X37592891Y-45491972D01*
X37594379Y-45496994D01*
X37611361Y-45549259D01*
X37613530Y-45559463D01*
X37614356Y-45567321D01*
X37617216Y-45582755D01*
X37619257Y-45590370D01*
X37620886Y-45600657D01*
X37623759Y-45655474D01*
X37624170Y-45660693D01*
X37630190Y-45717967D01*
X37630464Y-45723199D01*
X37630464Y-47840640D01*
X37630480Y-47840708D01*
X37630480Y-51584659D01*
X37628914Y-51589424D01*
X37606652Y-51600672D01*
X36046493Y-51600672D01*
X36046493Y-55084620D01*
X36054308Y-55080672D01*
X37614467Y-55080672D01*
X37619232Y-55082238D01*
X37630480Y-55104500D01*
X37630480Y-58790752D01*
X37649980Y-58850079D01*
X37730480Y-58890752D01*
X38470480Y-58890752D01*
X38529807Y-58871252D01*
X38570480Y-58790752D01*
X38570480Y-55096685D01*
X38572046Y-55091920D01*
X38586493Y-55084620D01*
X38586493Y-51600672D01*
X38581728Y-51599106D01*
X38570480Y-51576844D01*
X38570480Y-47856685D01*
X38572046Y-47851920D01*
X38586493Y-47844620D01*
X38586493Y-42330464D01*
X38581728Y-42328898D01*
X38570480Y-42306636D01*
X38570480Y-38586477D01*
X38572046Y-38581712D01*
X38586493Y-38574412D01*
X38586493Y-35090464D01*
X38581728Y-35088898D01*
X38570480Y-35066636D01*
X38570480Y-31346477D01*
X38572046Y-31341712D01*
X38594308Y-31330464D01*
X40154467Y-31330464D01*
X40159232Y-31332030D01*
X40170480Y-31354292D01*
X40170480Y-35074451D01*
X40168914Y-35079216D01*
X40146652Y-35090464D01*
X38586493Y-35090464D01*
X38586493Y-38574412D01*
X38594308Y-38570464D01*
X40154467Y-38570464D01*
X40159232Y-38572030D01*
X40170480Y-38594292D01*
X40170480Y-42314451D01*
X40168914Y-42319216D01*
X40146652Y-42330464D01*
X38586493Y-42330464D01*
X38586493Y-47844620D01*
X38594308Y-47840672D01*
X40154467Y-47840672D01*
X40159232Y-47842238D01*
X40170480Y-47864500D01*
X40170480Y-51584659D01*
X40168914Y-51589424D01*
X40146652Y-51600672D01*
X38586493Y-51600672D01*
X38586493Y-55084620D01*
X38594308Y-55080672D01*
X40154467Y-55080672D01*
X40159232Y-55082238D01*
X40170480Y-55104500D01*
X40170480Y-58787991D01*
X40189980Y-58847318D01*
X40240875Y-58883508D01*
X40303316Y-58882446D01*
X40341191Y-58858702D01*
X41081239Y-58118654D01*
X41110528Y-58047943D01*
X41110528Y-50803262D01*
X41110802Y-50798031D01*
X41116821Y-50740768D01*
X41117232Y-50735548D01*
X41120105Y-50680721D01*
X41121735Y-50670429D01*
X41123776Y-50662811D01*
X41126635Y-50647383D01*
X41127461Y-50639523D01*
X41129628Y-50629327D01*
X41146615Y-50577046D01*
X41148102Y-50572027D01*
X41162312Y-50518997D01*
X41166042Y-50509278D01*
X41169624Y-50502249D01*
X41175632Y-50487744D01*
X41178071Y-50480237D01*
X41182314Y-50470707D01*
X41209776Y-50423141D01*
X41212273Y-50418542D01*
X41237211Y-50369601D01*
X41242892Y-50360853D01*
X41247858Y-50354720D01*
X41256745Y-50341788D01*
X41260692Y-50334952D01*
X41266821Y-50326516D01*
X41303584Y-50285687D01*
X41306984Y-50281706D01*
X41343193Y-50236992D01*
X41346693Y-50233104D01*
X43621191Y-47958606D01*
X43650480Y-47887895D01*
X43650480Y-47840928D01*
X43650560Y-47840429D01*
X43650560Y-45005280D01*
X43639815Y-44960184D01*
X43635544Y-44951731D01*
X43635544Y-43941573D01*
X43637110Y-43936808D01*
X43659372Y-43925560D01*
X43793951Y-43925560D01*
X43864662Y-43896271D01*
X43928387Y-43832546D01*
X43936482Y-43825991D01*
X44067955Y-43740612D01*
X44077247Y-43735877D01*
X44223593Y-43679699D01*
X44233669Y-43677000D01*
X44388501Y-43652477D01*
X44398909Y-43651931D01*
X44555460Y-43660136D01*
X44565755Y-43661767D01*
X44717178Y-43702341D01*
X44726904Y-43706074D01*
X44866588Y-43777247D01*
X44875326Y-43782921D01*
X44967338Y-43857431D01*
X44971491Y-43860617D01*
X44981619Y-43867975D01*
X44990931Y-43876360D01*
X44994915Y-43879762D01*
X44999200Y-43883232D01*
X45003071Y-43886717D01*
X45012625Y-43896271D01*
X45083336Y-43925560D01*
X45219531Y-43925560D01*
X45224296Y-43927126D01*
X45235544Y-43949388D01*
X45235544Y-44307984D01*
X45238951Y-44333866D01*
X45239354Y-44335368D01*
X45240983Y-44345658D01*
X45243857Y-44400493D01*
X45244268Y-44405712D01*
X45250286Y-44462967D01*
X45250560Y-44468199D01*
X45250560Y-50799109D01*
X45250480Y-50802166D01*
X45250480Y-51584659D01*
X45248914Y-51589424D01*
X45226652Y-51600672D01*
X43666493Y-51600672D01*
X43661728Y-51599106D01*
X43650480Y-51576844D01*
X43650480Y-50433481D01*
X43630980Y-50374154D01*
X43580085Y-50337964D01*
X43517644Y-50339026D01*
X43479769Y-50362770D01*
X42739817Y-51102722D01*
X42710528Y-51173433D01*
X42710528Y-58418115D01*
X42710254Y-58423344D01*
X42704235Y-58480605D01*
X42703824Y-58485826D01*
X42700951Y-58540651D01*
X42699321Y-58550947D01*
X42697280Y-58558562D01*
X42694420Y-58573993D01*
X42693594Y-58581850D01*
X42691426Y-58592050D01*
X42674441Y-58644326D01*
X42672954Y-58649345D01*
X42658744Y-58702375D01*
X42655014Y-58712094D01*
X42651432Y-58719123D01*
X42645424Y-58733628D01*
X42642984Y-58741138D01*
X42638743Y-58750663D01*
X42611277Y-58798236D01*
X42608780Y-58802837D01*
X42583848Y-58851769D01*
X42578163Y-58860522D01*
X42573197Y-58866655D01*
X42564312Y-58879583D01*
X42560363Y-58886422D01*
X42554232Y-58894861D01*
X42517490Y-58935667D01*
X42514089Y-58939649D01*
X42477869Y-58984378D01*
X42474360Y-58988275D01*
X41208051Y-60254584D01*
X41204154Y-60258093D01*
X41159425Y-60294313D01*
X41155443Y-60297714D01*
X41114639Y-60334454D01*
X41106202Y-60340584D01*
X41099365Y-60344531D01*
X41086429Y-60353422D01*
X41080294Y-60358390D01*
X41071555Y-60364066D01*
X41022619Y-60389000D01*
X41018019Y-60391497D01*
X40970441Y-60418966D01*
X40960914Y-60423208D01*
X40953403Y-60425648D01*
X40938905Y-60431654D01*
X40931881Y-60435233D01*
X40922145Y-60438970D01*
X40869115Y-60453179D01*
X40864093Y-60454667D01*
X40811828Y-60471649D01*
X40801624Y-60473818D01*
X40793766Y-60474644D01*
X40778332Y-60477504D01*
X40770717Y-60479545D01*
X40760430Y-60481174D01*
X40705614Y-60484047D01*
X40700395Y-60484458D01*
X40643121Y-60490478D01*
X40637889Y-60490752D01*
X27942975Y-60490752D01*
X27942975Y-61430784D01*
X44077767Y-61430784D01*
X44148478Y-61401495D01*
X46161303Y-59388670D01*
X46190592Y-59317959D01*
X46190592Y-32123193D01*
X46161303Y-32052482D01*
X45421271Y-31312450D01*
X45365531Y-31284288D01*
X45303953Y-31294686D01*
X45260552Y-31339590D01*
X45250560Y-31383161D01*
X45250560Y-31750400D01*
X45250639Y-31750400D01*
X45250639Y-31750444D01*
X45250560Y-31750444D01*
X45250480Y-33192476D01*
X45250480Y-35074451D01*
X45248914Y-35079216D01*
X45226652Y-35090464D01*
X43666493Y-35090464D01*
X43661728Y-35088898D01*
X43650480Y-35066636D01*
X43650480Y-31384943D01*
X43630980Y-31325616D01*
X43551648Y-31284950D01*
X43158804Y-31280360D01*
X43153577Y-31280024D01*
X42995274Y-31261513D01*
X42985103Y-31259226D01*
X42836590Y-31209045D01*
X42827115Y-31204693D01*
X42692277Y-31124730D01*
X42683920Y-31118508D01*
X42589915Y-31031856D01*
X42522138Y-31005384D01*
X42381541Y-31005384D01*
X42376776Y-31003818D01*
X42365528Y-30981556D01*
X42365528Y-29971397D01*
X42367094Y-29966632D01*
X42389356Y-29955384D01*
X42520018Y-29955384D01*
X42586058Y-29930475D01*
X42698960Y-29831182D01*
X42707464Y-29825153D01*
X42844131Y-29748363D01*
X42853710Y-29744232D01*
X43003354Y-29697536D01*
X43013567Y-29695490D01*
X43172266Y-29680683D01*
X43177505Y-29680470D01*
X44313011Y-29693739D01*
X44334971Y-29691561D01*
X44361817Y-29685854D01*
X44372173Y-29684766D01*
X44403628Y-29684766D01*
X44414080Y-29684218D01*
X44447949Y-29680658D01*
X44453183Y-29680384D01*
X45717954Y-29680384D01*
X45723185Y-29680658D01*
X45780411Y-29686673D01*
X45785631Y-29687084D01*
X45840491Y-29689959D01*
X45850786Y-29691589D01*
X45858409Y-29693632D01*
X45873842Y-29696492D01*
X45881692Y-29697317D01*
X45891888Y-29699484D01*
X45944112Y-29716454D01*
X45949135Y-29717942D01*
X46002208Y-29732162D01*
X46011938Y-29735897D01*
X46018980Y-29739485D01*
X46033477Y-29745489D01*
X46040981Y-29747927D01*
X46050504Y-29752167D01*
X46098069Y-29779628D01*
X46102668Y-29782125D01*
X46151617Y-29807066D01*
X46160368Y-29812749D01*
X46166504Y-29817718D01*
X46179435Y-29826606D01*
X46186267Y-29830551D01*
X46194701Y-29836678D01*
X46235518Y-29873429D01*
X46239496Y-29876827D01*
X46284233Y-29913056D01*
X46288106Y-29916543D01*
X47554427Y-31182864D01*
X47557926Y-31186751D01*
X47594131Y-31231461D01*
X47597532Y-31235444D01*
X47634300Y-31276278D01*
X47640423Y-31284707D01*
X47644377Y-31291554D01*
X47653261Y-31304480D01*
X47658225Y-31310610D01*
X47663909Y-31319363D01*
X47688840Y-31368292D01*
X47691337Y-31372892D01*
X47718806Y-31420470D01*
X47723048Y-31429997D01*
X47725488Y-31437508D01*
X47731494Y-31452006D01*
X47735073Y-31459030D01*
X47738810Y-31468766D01*
X47753019Y-31521796D01*
X47754507Y-31526818D01*
X47771489Y-31579083D01*
X47773658Y-31589287D01*
X47774484Y-31597145D01*
X47777344Y-31612579D01*
X47779385Y-31620194D01*
X47781014Y-31630481D01*
X47783887Y-31685298D01*
X47784298Y-31690517D01*
X47790318Y-31747791D01*
X47790592Y-31753023D01*
X47790592Y-59688129D01*
X47790318Y-59693361D01*
X47784298Y-59750635D01*
X47783887Y-59755854D01*
X47781014Y-59810670D01*
X47779385Y-59820957D01*
X47777344Y-59828572D01*
X47774484Y-59844006D01*
X47773658Y-59851863D01*
X47771490Y-59862067D01*
X47754501Y-59914353D01*
X47753014Y-59919373D01*
X47738809Y-59972388D01*
X47735074Y-59982118D01*
X47731496Y-59989139D01*
X47725490Y-60003638D01*
X47723045Y-60011163D01*
X47718808Y-60020680D01*
X47691314Y-60068302D01*
X47688817Y-60072901D01*
X47663905Y-60121793D01*
X47658225Y-60130539D01*
X47653266Y-60136663D01*
X47644381Y-60149590D01*
X47640425Y-60156442D01*
X47634299Y-60164874D01*
X47597530Y-60205710D01*
X47594130Y-60209692D01*
X47557926Y-60254401D01*
X47554427Y-60258288D01*
X45018099Y-62794616D01*
X45014202Y-62798125D01*
X44969473Y-62834345D01*
X44965491Y-62837746D01*
X44924687Y-62874486D01*
X44916250Y-62880616D01*
X44909413Y-62884563D01*
X44896477Y-62893454D01*
X44890342Y-62898422D01*
X44881603Y-62904098D01*
X44832667Y-62929032D01*
X44828067Y-62931529D01*
X44780489Y-62958998D01*
X44770962Y-62963240D01*
X44763451Y-62965680D01*
X44748953Y-62971686D01*
X44741929Y-62975265D01*
X44732193Y-62979002D01*
X44679163Y-62993211D01*
X44674141Y-62994699D01*
X44621876Y-63011681D01*
X44611672Y-63013850D01*
X44603814Y-63014676D01*
X44588380Y-63017536D01*
X44580765Y-63019577D01*
X44570478Y-63021206D01*
X44515662Y-63024079D01*
X44510443Y-63024490D01*
X44453169Y-63030510D01*
X44447937Y-63030784D01*
X22862911Y-63030784D01*
X22862911Y-64700000D01*
X44258578Y-64700000D01*
X44329289Y-64670711D01*
G37*
D18*
X46973190Y-63799656D02*
X47932499Y-64254562D01*
X47478772Y-63294075D01*
X47549482Y-62516259D02*
X48205912Y-61859828D01*
X48256588Y-62617611D01*
X48408616Y-62465583D01*
X48559465Y-62416085D01*
X48660818Y-62416085D01*
X48811667Y-62465583D01*
X49065046Y-62718963D01*
X49114545Y-62869812D01*
X49114544Y-62971164D01*
X49065046Y-63122014D01*
X48762169Y-63424890D01*
X48610141Y-63475565D01*
X48508790Y-63475566D01*
G04 --- BOARD END --- *
%TF.MD5,b2db1c7a6996057cec6dc8761edd550d*%
M02*
