G04 --- HEADER BEGIN --- *
%TF.GenerationSoftware,LibrePCB,LibrePCB,0.1.0*%
%TF.CreationDate,2018-07-30T22:42:00*%
%TF.ProjectId,desklift - bottom,cc45967b-cddc-4eac-8902-aaf571f4ea35,v2*%
%TF.Part,Single*%
%FSLAX66Y66*%
%MOMM*%
G01*
G74*
G04 --- HEADER END --- *
G04 --- APERTURE LIST BEGIN --- *
%ADD10C,0.25*%
%ADD11C,0.2*%
%ADD12O,2.74X1.47*%
%ADD13C,1.8*%
G04 --- APERTURE LIST END --- *
G04 --- BOARD BEGIN --- *
D10*
X76201808Y33019696D02*
X73661808Y33019696D01*
X76201808Y81279696D02*
X73661808Y81279696D01*
X73661808Y30479696D01*
X76201808Y30479696D01*
X76201808Y81279696D01*
X67311808Y50879696D02*
X72311808Y55879696D01*
X67311808Y60879696D01*
X62311808Y55879696D01*
X67311808Y50879696D01*
X78741808Y82549696D02*
X55881808Y82549696D01*
X55881808Y29209696D01*
X78741808Y29209696D01*
X78741808Y82549696D01*
X60961808Y30479696D02*
X58421808Y30479696D01*
X58421808Y81279696D01*
X60961808Y81279696D01*
X60961808Y30479696D01*
X60961808Y33019696D02*
X58421808Y33019696D01*
X71121808Y83819696D02*
X63501808Y83819696D01*
X63501808Y80009696D01*
X71121808Y80009696D01*
X71121808Y83819696D01*
D11*
X68568362Y81915000D02*
X68568362Y81105000D01*
X68520584Y81010556D01*
X68472806Y80962778D01*
X68378362Y80915000D01*
X68187251Y80915000D01*
X68091695Y80962778D01*
X68045029Y81010556D01*
X67997251Y81105000D01*
X67997251Y81915000D01*
X67597251Y80962778D02*
X67453918Y80915000D01*
X67216140Y80915000D01*
X67120584Y80962778D01*
X67073918Y81010556D01*
X67026140Y81105000D01*
X67026140Y81200556D01*
X67073918Y81296111D01*
X67120584Y81343889D01*
X67216140Y81391667D01*
X67407251Y81438333D01*
X67501695Y81486111D01*
X67549473Y81533889D01*
X67597251Y81629444D01*
X67597251Y81725000D01*
X67549473Y81819444D01*
X67501695Y81867222D01*
X67407251Y81915000D01*
X67168362Y81915000D01*
X67026140Y81867222D01*
X66292807Y81438333D02*
X66149473Y81391667D01*
X66102807Y81343889D01*
X66055029Y81248333D01*
X66055029Y81105000D01*
X66102807Y81010556D01*
X66149473Y80962778D01*
X66245029Y80915000D01*
X66626140Y80915000D01*
X66626140Y81915000D01*
X66292807Y81915000D01*
X66197251Y81867222D01*
X66149473Y81819444D01*
X66102807Y81725000D01*
X66102807Y81629444D01*
X66149473Y81533889D01*
X66197251Y81486111D01*
X66292807Y81438333D01*
X66626140Y81438333D01*
X68082807Y28575000D02*
X68082807Y27765000D01*
X68035029Y27670556D01*
X67987251Y27622778D01*
X67892807Y27575000D01*
X67701696Y27575000D01*
X67606140Y27622778D01*
X67559474Y27670556D01*
X67511696Y27765000D01*
X67511696Y28575000D01*
X66540585Y27575000D02*
X67111696Y27575000D01*
X66826140Y27575000D02*
X66826140Y28575000D01*
X66921696Y28431667D01*
X67016140Y28337222D01*
X67111696Y28289444D01*
%LPC*%
D12*
X43180000Y79851250D03*
X43180000Y69691250D03*
X43180000Y74771250D03*
X43338750Y61118750D03*
X43338750Y50958750D03*
X43338750Y56038750D03*
X59691808Y41909696D03*
X59691808Y67309696D03*
X59691808Y77469696D03*
X59691808Y72389696D03*
X74931808Y57149696D03*
X74931808Y72389696D03*
X59691808Y54609696D03*
X59691808Y34289696D03*
X59691808Y44449696D03*
X74931808Y80009696D03*
X74931808Y54609696D03*
X59691808Y62229696D03*
X74931808Y31749696D03*
X74931808Y62229696D03*
X59691808Y69849696D03*
X74931808Y52069696D03*
X59691808Y31749696D03*
X74931808Y77469696D03*
X59691808Y57149696D03*
X74931808Y59689696D03*
X74931808Y44449696D03*
X59691808Y39369696D03*
X59691808Y46989696D03*
X74931808Y36829696D03*
X59691808Y64769696D03*
X74931808Y67309696D03*
X59691808Y80009696D03*
X59691808Y49529696D03*
X59691808Y52069696D03*
X74931808Y74929696D03*
X74931808Y69849696D03*
X74931808Y64769696D03*
X59691808Y36829696D03*
X74931808Y41909696D03*
X74931808Y46989696D03*
X74931808Y39369696D03*
X59691808Y59689696D03*
X74931808Y34289696D03*
X74931808Y49529696D03*
X59691808Y74929696D03*
D13*
X43180000Y71755000D03*
X68381560Y77311344D03*
G04 --- BOARD END --- *
%TF.MD5,31279f07007173f9185874c1254e8dab*%
M02*
