G04 --- HEADER BEGIN --- *
%TF.GenerationSoftware,LibrePCB,LibrePCB,0.1.0*%
%TF.CreationDate,2018-07-30T22:42:00*%
%TF.ProjectId,desklift - bottom,cc45967b-cddc-4eac-8902-aaf571f4ea35,v2*%
%TF.Part,Single*%
%FSLAX66Y66*%
%MOMM*%
G01*
G74*
G04 --- HEADER END --- *
G04 --- APERTURE LIST BEGIN --- *
%ADD10O,2.54X1.27*%
%ADD11C,1.6*%
%ADD12C,0.6*%
G04 --- APERTURE LIST END --- *
G04 --- BOARD BEGIN --- *
D10*
X43180000Y79851250D03*
X43180000Y69691250D03*
X43180000Y74771250D03*
X43338750Y61118750D03*
X43338750Y50958750D03*
X43338750Y56038750D03*
X59691808Y41909696D03*
X59691808Y67309696D03*
X59691808Y77469696D03*
X59691808Y72389696D03*
X74931808Y57149696D03*
X74931808Y72389696D03*
X59691808Y54609696D03*
X59691808Y34289696D03*
X59691808Y44449696D03*
X74931808Y80009696D03*
X74931808Y54609696D03*
X59691808Y62229696D03*
X74931808Y31749696D03*
X74931808Y62229696D03*
X59691808Y69849696D03*
X74931808Y52069696D03*
X59691808Y31749696D03*
X74931808Y77469696D03*
X59691808Y57149696D03*
X74931808Y59689696D03*
X74931808Y44449696D03*
X59691808Y39369696D03*
X59691808Y46989696D03*
X74931808Y36829696D03*
X59691808Y64769696D03*
X74931808Y67309696D03*
X59691808Y80009696D03*
X59691808Y49529696D03*
X59691808Y52069696D03*
X74931808Y74929696D03*
X74931808Y69849696D03*
X74931808Y64769696D03*
X59691808Y36829696D03*
X74931808Y41909696D03*
X74931808Y46989696D03*
X74931808Y39369696D03*
X59691808Y59689696D03*
X74931808Y34289696D03*
X74931808Y49529696D03*
X59691808Y74929696D03*
D11*
X43180000Y71755000D03*
X68381560Y77311344D03*
D12*
X47308096Y71755904D02*
X43180000Y71755000D01*
X47943104Y71120896D02*
X47308096Y71755904D01*
X62389536Y71120896D02*
X47943104Y71120896D01*
X68381560Y77311344D02*
X68381560Y77112920D01*
X68381560Y77112920D02*
X62389536Y71120896D01*
G04 --- BOARD END --- *
%TF.MD5,b44decde9a272218034082ed593b62b6*%
M02*
