G04 --- HEADER BEGIN --- *
%TF.GenerationSoftware,LibrePCB,LibrePCB,0.1.0*%
%TF.CreationDate,2018-07-30T22:42:00*%
%TF.ProjectId,desklift - bottom,cc45967b-cddc-4eac-8902-aaf571f4ea35,v2*%
%TF.Part,Single*%
%FSLAX66Y66*%
%MOMM*%
G01*
G74*
G04 --- HEADER END --- *
G04 --- APERTURE LIST BEGIN --- *
%ADD10C,0.25*%
%ADD11C,0.2*%
%ADD12O,2.74X1.47*%
%ADD13R,1.6X1.2*%
%ADD14R,1.6X2.2*%
%ADD15R,2.003X1.8*%
%ADD16R,1.8X2.003*%
%ADD17C,1.8*%
G04 --- APERTURE LIST END --- *
G04 --- BOARD BEGIN --- *
D10*
X45720000Y82391250D02*
X45720000Y67151250D01*
X40640000Y67151250D01*
X40640000Y82391250D01*
X45720000Y82391250D01*
D11*
X38370000Y74475694D02*
X38370000Y74000139D01*
X38846667Y73952361D01*
X38798889Y74000139D01*
X38751111Y74095694D01*
X38751111Y74333472D01*
X38798889Y74429028D01*
X38846667Y74475694D01*
X38941111Y74523472D01*
X39180000Y74523472D01*
X39274444Y74475694D01*
X39322222Y74429028D01*
X39370000Y74333472D01*
X39370000Y74095694D01*
X39322222Y74000139D01*
X39274444Y73952361D01*
X38370000Y74923472D02*
X39370000Y75256805D01*
X38370000Y75590139D01*
X39370000Y67948473D02*
X38370000Y67948473D01*
X38370000Y68186251D01*
X38417778Y68329584D01*
X38513333Y68425140D01*
X38607778Y68471806D01*
X38798889Y68519584D01*
X38941111Y68519584D01*
X39132222Y68471806D01*
X39226667Y68425140D01*
X39322222Y68329584D01*
X39370000Y68186251D01*
X39370000Y67948473D01*
X39370000Y69109584D02*
X39322222Y69015140D01*
X39274444Y68967362D01*
X39180000Y68919584D01*
X38893333Y68919584D01*
X38798889Y68967362D01*
X38751111Y69015140D01*
X38703333Y69109584D01*
X38703333Y69252917D01*
X38751111Y69348473D01*
X38798889Y69396251D01*
X38893333Y69442917D01*
X39180000Y69442917D01*
X39274444Y69396251D01*
X39322222Y69348473D01*
X39370000Y69252917D01*
X39370000Y69109584D01*
X38703333Y69842917D02*
X39370000Y70032917D01*
X38893333Y70224028D01*
X39370000Y70414028D01*
X38703333Y70605139D01*
X38703333Y71005139D02*
X39370000Y71005139D01*
X38798889Y71005139D02*
X38751111Y71052917D01*
X38703333Y71148472D01*
X38703333Y71290695D01*
X38751111Y71386250D01*
X38846667Y71434028D01*
X39370000Y71434028D01*
X38370000Y79127361D02*
X39180000Y79127361D01*
X39274444Y79175139D01*
X39322222Y79222917D01*
X39370000Y79317361D01*
X39370000Y79508472D01*
X39322222Y79604028D01*
X39274444Y79650694D01*
X39180000Y79698472D01*
X38370000Y79698472D01*
X38703333Y80098472D02*
X39703333Y80098472D01*
X38751111Y80098472D02*
X38703333Y80194028D01*
X38703333Y80384028D01*
X38751111Y80479583D01*
X38798889Y80527361D01*
X38893333Y80575139D01*
X39180000Y80575139D01*
X39274444Y80527361D01*
X39322222Y80479583D01*
X39370000Y80384028D01*
X39370000Y80194028D01*
X39322222Y80098472D01*
D10*
X64836728Y77700112D02*
X64836728Y74700112D01*
X63436728Y74700112D01*
X63436728Y77700112D01*
X64836728Y77700112D01*
X45878750Y63658750D02*
X45878750Y48418750D01*
X40798750Y48418750D01*
X40798750Y63658750D01*
X45878750Y63658750D01*
D11*
X38528750Y55743194D02*
X38528750Y55267639D01*
X39005417Y55219861D01*
X38957639Y55267639D01*
X38909861Y55363194D01*
X38909861Y55600972D01*
X38957639Y55696528D01*
X39005417Y55743194D01*
X39099861Y55790972D01*
X39338750Y55790972D01*
X39433194Y55743194D01*
X39480972Y55696528D01*
X39528750Y55600972D01*
X39528750Y55363194D01*
X39480972Y55267639D01*
X39433194Y55219861D01*
X38528750Y56190972D02*
X39528750Y56524305D01*
X38528750Y56857639D01*
X38528750Y60394861D02*
X39338750Y60394861D01*
X39433194Y60442639D01*
X39480972Y60490417D01*
X39528750Y60584861D01*
X39528750Y60775972D01*
X39480972Y60871528D01*
X39433194Y60918194D01*
X39338750Y60965972D01*
X38528750Y60965972D01*
X38862083Y61365972D02*
X39862083Y61365972D01*
X38909861Y61365972D02*
X38862083Y61461528D01*
X38862083Y61651528D01*
X38909861Y61747083D01*
X38957639Y61794861D01*
X39052083Y61842639D01*
X39338750Y61842639D01*
X39433194Y61794861D01*
X39480972Y61747083D01*
X39528750Y61651528D01*
X39528750Y61461528D01*
X39480972Y61365972D01*
X39528750Y49215973D02*
X38528750Y49215973D01*
X38528750Y49453751D01*
X38576528Y49597084D01*
X38672083Y49692640D01*
X38766528Y49739306D01*
X38957639Y49787084D01*
X39099861Y49787084D01*
X39290972Y49739306D01*
X39385417Y49692640D01*
X39480972Y49597084D01*
X39528750Y49453751D01*
X39528750Y49215973D01*
X39528750Y50377084D02*
X39480972Y50282640D01*
X39433194Y50234862D01*
X39338750Y50187084D01*
X39052083Y50187084D01*
X38957639Y50234862D01*
X38909861Y50282640D01*
X38862083Y50377084D01*
X38862083Y50520417D01*
X38909861Y50615973D01*
X38957639Y50663751D01*
X39052083Y50710417D01*
X39338750Y50710417D01*
X39433194Y50663751D01*
X39480972Y50615973D01*
X39528750Y50520417D01*
X39528750Y50377084D01*
X38862083Y51110417D02*
X39528750Y51300417D01*
X39052083Y51491528D01*
X39528750Y51681528D01*
X38862083Y51872639D01*
X38862083Y52272639D02*
X39528750Y52272639D01*
X38957639Y52272639D02*
X38909861Y52320417D01*
X38862083Y52415972D01*
X38862083Y52558195D01*
X38909861Y52653750D01*
X39005417Y52701528D01*
X39528750Y52701528D01*
D10*
X67692696Y46267512D02*
X67692696Y43267512D01*
X66292696Y43267512D01*
X66292696Y46267512D01*
X67692696Y46267512D01*
D11*
X46990000Y81420139D02*
X47704444Y81420139D01*
X47846667Y81372361D01*
X47942222Y81276806D01*
X47990000Y81134584D01*
X47990000Y81039028D01*
X47990000Y82391250D02*
X47990000Y81820139D01*
X47990000Y82105695D02*
X46990000Y82105695D01*
X47133333Y82010139D01*
X47227778Y81915695D01*
X47275556Y81820139D01*
X68026243Y74334540D02*
X67930688Y74382318D01*
X67835132Y74477874D01*
X67692910Y74620096D01*
X67597355Y74667874D01*
X67501799Y74667874D01*
X67549577Y74430096D02*
X67455132Y74477874D01*
X67359577Y74573429D01*
X67311799Y74763429D01*
X67311799Y75096763D01*
X67359577Y75286763D01*
X67455132Y75382318D01*
X67549577Y75430096D01*
X67740688Y75430096D01*
X67835132Y75382318D01*
X67930688Y75286763D01*
X67978466Y75096763D01*
X67978466Y74763429D01*
X67930688Y74573429D01*
X67835132Y74477874D01*
X67740688Y74430096D01*
X67549577Y74430096D01*
X68474021Y75334540D02*
X68521799Y75382318D01*
X68616243Y75430096D01*
X68855132Y75430096D01*
X68949576Y75382318D01*
X68997354Y75334540D01*
X69045132Y75240096D01*
X69045132Y75144540D01*
X68997354Y75001207D01*
X68426243Y74430096D01*
X69045132Y74430096D01*
X47148750Y62639861D02*
X47863194Y62639861D01*
X48005417Y62592083D01*
X48100972Y62496528D01*
X48148750Y62354306D01*
X48148750Y62258750D01*
X47244306Y63087639D02*
X47196528Y63135417D01*
X47148750Y63229861D01*
X47148750Y63468750D01*
X47196528Y63563194D01*
X47244306Y63610972D01*
X47338750Y63658750D01*
X47434306Y63658750D01*
X47577639Y63610972D01*
X48148750Y63039861D01*
X48148750Y63658750D01*
X68762728Y33112379D02*
X68286061Y32779046D01*
X68762728Y32541268D02*
X67762728Y32541268D01*
X67762728Y32922379D01*
X67810506Y33017935D01*
X67858284Y33064601D01*
X67952728Y33112379D01*
X68096061Y33112379D01*
X68191617Y33064601D01*
X68239395Y33017935D01*
X68286061Y32922379D01*
X68286061Y32541268D01*
X67858284Y33560157D02*
X67810506Y33607935D01*
X67762728Y33702379D01*
X67762728Y33941268D01*
X67810506Y34035712D01*
X67858284Y34083490D01*
X67952728Y34131268D01*
X68048284Y34131268D01*
X68191617Y34083490D01*
X68762728Y33512379D01*
X68762728Y34131268D01*
X65167139Y41631956D02*
X65071584Y41679734D01*
X64976028Y41775290D01*
X64833806Y41917512D01*
X64738251Y41965290D01*
X64642695Y41965290D01*
X64690473Y41727512D02*
X64596028Y41775290D01*
X64500473Y41870845D01*
X64452695Y42060845D01*
X64452695Y42394179D01*
X64500473Y42584179D01*
X64596028Y42679734D01*
X64690473Y42727512D01*
X64881584Y42727512D01*
X64976028Y42679734D01*
X65071584Y42584179D01*
X65119362Y42394179D01*
X65119362Y42060845D01*
X65071584Y41870845D01*
X64976028Y41775290D01*
X64881584Y41727512D01*
X64690473Y41727512D01*
X66138250Y41727512D02*
X65567139Y41727512D01*
X65852695Y41727512D02*
X65852695Y42727512D01*
X65757139Y42584179D01*
X65662695Y42489734D01*
X65567139Y42441956D01*
X69309839Y72445664D02*
X68976506Y72922331D01*
X68738728Y72445664D02*
X68738728Y73445664D01*
X69119839Y73445664D01*
X69215395Y73397886D01*
X69262061Y73350108D01*
X69309839Y73255664D01*
X69309839Y73112331D01*
X69262061Y73016775D01*
X69215395Y72968997D01*
X69119839Y72922331D01*
X68738728Y72922331D01*
X70280950Y72445664D02*
X69709839Y72445664D01*
X69995395Y72445664D02*
X69995395Y73445664D01*
X69899839Y73302331D01*
X69805395Y73207886D01*
X69709839Y73160108D01*
X47990000Y67151250D02*
X46990000Y67151250D01*
X46990000Y67389028D01*
X47037778Y67532361D01*
X47133333Y67627917D01*
X47227778Y67674583D01*
X47418889Y67722361D01*
X47561111Y67722361D01*
X47752222Y67674583D01*
X47846667Y67627917D01*
X47942222Y67532361D01*
X47990000Y67389028D01*
X47990000Y67151250D01*
X47942222Y68551250D02*
X47990000Y68455694D01*
X47990000Y68265694D01*
X47942222Y68170139D01*
X47846667Y68122361D01*
X47466667Y68122361D01*
X47371111Y68170139D01*
X47323333Y68265694D01*
X47323333Y68455694D01*
X47371111Y68551250D01*
X47466667Y68599028D01*
X47561111Y68599028D01*
X47656667Y68122361D01*
X47942222Y68999028D02*
X47990000Y69094584D01*
X47990000Y69284584D01*
X47942222Y69380139D01*
X47846667Y69427917D01*
X47800000Y69427917D01*
X47704444Y69380139D01*
X47656667Y69284584D01*
X47656667Y69142361D01*
X47608889Y69046806D01*
X47513333Y68999028D01*
X47466667Y68999028D01*
X47371111Y69046806D01*
X47323333Y69142361D01*
X47323333Y69284584D01*
X47371111Y69380139D01*
X47990000Y69827917D02*
X46990000Y69827917D01*
X47608889Y69923473D02*
X47990000Y70209028D01*
X47323333Y70209028D02*
X47704444Y69827917D01*
X48371111Y71694583D02*
X48323333Y71646805D01*
X48180000Y71552360D01*
X48085556Y71504583D01*
X47942222Y71456805D01*
X47704444Y71409027D01*
X47513333Y71409027D01*
X47275556Y71456805D01*
X47133333Y71504583D01*
X47037778Y71552360D01*
X46894444Y71646805D01*
X46846667Y71694583D01*
X47990000Y72094583D02*
X46990000Y72094583D01*
X47704444Y72427916D01*
X46990000Y72761250D01*
X47990000Y72761250D01*
X48371111Y73161250D02*
X48323333Y73209028D01*
X48180000Y73304583D01*
X48085556Y73351250D01*
X47942222Y73399028D01*
X47704444Y73446806D01*
X47513333Y73446806D01*
X47275556Y73399028D01*
X47133333Y73351250D01*
X47037778Y73304583D01*
X46894444Y73209028D01*
X46846667Y73161250D01*
X48148750Y48989861D02*
X47672083Y48656528D01*
X48148750Y48418750D02*
X47148750Y48418750D01*
X47148750Y48799861D01*
X47196528Y48895417D01*
X47244306Y48942083D01*
X47338750Y48989861D01*
X47482083Y48989861D01*
X47577639Y48942083D01*
X47625417Y48895417D01*
X47672083Y48799861D01*
X47672083Y48418750D01*
X48100972Y49818750D02*
X48148750Y49723194D01*
X48148750Y49533194D01*
X48100972Y49437639D01*
X48005417Y49389861D01*
X47625417Y49389861D01*
X47529861Y49437639D01*
X47482083Y49533194D01*
X47482083Y49723194D01*
X47529861Y49818750D01*
X47625417Y49866528D01*
X47719861Y49866528D01*
X47815417Y49389861D01*
X48148750Y50266528D02*
X47482083Y50266528D01*
X47577639Y50266528D02*
X47529861Y50314306D01*
X47482083Y50409861D01*
X47482083Y50552084D01*
X47529861Y50647639D01*
X47625417Y50695417D01*
X48148750Y50695417D01*
X47625417Y50695417D02*
X47529861Y50743195D01*
X47482083Y50837639D01*
X47482083Y50980972D01*
X47529861Y51076528D01*
X47625417Y51123195D01*
X48148750Y51123195D01*
X48148750Y51713195D02*
X48100972Y51618751D01*
X48053194Y51570973D01*
X47958750Y51523195D01*
X47672083Y51523195D01*
X47577639Y51570973D01*
X47529861Y51618751D01*
X47482083Y51713195D01*
X47482083Y51856528D01*
X47529861Y51952084D01*
X47577639Y51999862D01*
X47672083Y52046528D01*
X47958750Y52046528D01*
X48053194Y51999862D01*
X48100972Y51952084D01*
X48148750Y51856528D01*
X48148750Y51713195D01*
X47482083Y52446528D02*
X47482083Y52827639D01*
X47148750Y52589861D02*
X48005417Y52589861D01*
X48100972Y52636528D01*
X48148750Y52732084D01*
X48148750Y52827639D01*
X48100972Y53656528D02*
X48148750Y53560972D01*
X48148750Y53370972D01*
X48100972Y53275417D01*
X48005417Y53227639D01*
X47625417Y53227639D01*
X47529861Y53275417D01*
X47482083Y53370972D01*
X47482083Y53560972D01*
X47529861Y53656528D01*
X47625417Y53704306D01*
X47719861Y53704306D01*
X47815417Y53227639D01*
X48529861Y55189861D02*
X48482083Y55142083D01*
X48338750Y55047638D01*
X48244306Y54999861D01*
X48100972Y54952083D01*
X47863194Y54904305D01*
X47672083Y54904305D01*
X47434306Y54952083D01*
X47292083Y54999861D01*
X47196528Y55047638D01*
X47053194Y55142083D01*
X47005417Y55189861D01*
X47625417Y55923194D02*
X47625417Y55589861D01*
X48148750Y55589861D02*
X47148750Y55589861D01*
X47148750Y56066528D01*
X48529861Y56466528D02*
X48482083Y56514306D01*
X48338750Y56609861D01*
X48244306Y56656528D01*
X48100972Y56704306D01*
X47863194Y56752084D01*
X47672083Y56752084D01*
X47434306Y56704306D01*
X47292083Y56656528D01*
X47196528Y56609861D01*
X47053194Y56514306D01*
X47005417Y56466528D01*
%LPC*%
D12*
X43180000Y79851250D03*
X43180000Y69691250D03*
X43180000Y74771250D03*
D13*
X65436728Y77300112D03*
X65436728Y75100112D03*
D14*
X62836728Y76200112D03*
D12*
X43338750Y61118750D03*
X43338750Y50958750D03*
X43338750Y56038750D03*
X59691808Y41909696D03*
X59691808Y67309696D03*
X59691808Y77469696D03*
X59691808Y72389696D03*
X74931808Y57149696D03*
X74931808Y72389696D03*
X59691808Y54609696D03*
X59691808Y34289696D03*
X59691808Y44449696D03*
X74931808Y80009696D03*
X74931808Y54609696D03*
X59691808Y62229696D03*
X74931808Y31749696D03*
X74931808Y62229696D03*
X59691808Y69849696D03*
X74931808Y52069696D03*
X59691808Y31749696D03*
X74931808Y77469696D03*
X59691808Y57149696D03*
X74931808Y59689696D03*
X74931808Y44449696D03*
X59691808Y39369696D03*
X59691808Y46989696D03*
X74931808Y36829696D03*
X59691808Y64769696D03*
X74931808Y67309696D03*
X59691808Y80009696D03*
X59691808Y49529696D03*
X59691808Y52069696D03*
X74931808Y74929696D03*
X74931808Y69849696D03*
X74931808Y64769696D03*
X59691808Y36829696D03*
X74931808Y41909696D03*
X74931808Y46989696D03*
X74931808Y39369696D03*
X59691808Y59689696D03*
X74931808Y34289696D03*
X74931808Y49529696D03*
X59691808Y74929696D03*
D15*
X68262728Y38728264D03*
X68262728Y35884264D03*
D13*
X68292696Y45867512D03*
X68292696Y43667512D03*
D14*
X65692696Y44767512D03*
D16*
X65411740Y71040672D03*
X68255740Y71040672D03*
D17*
X43180000Y71755000D03*
X68381560Y77311344D03*
G04 --- BOARD END --- *
%TF.MD5,fe1a005ad7dce07e9b80046b24ac8875*%
M02*
