G04 --- HEADER BEGIN --- *
%TF.GenerationSoftware,LibrePCB,LibrePCB,0.1.0*%
%TF.CreationDate,2018-07-30T22:42:00*%
%TF.ProjectId,desklift - bottom,cc45967b-cddc-4eac-8902-aaf571f4ea35,v2*%
%TF.Part,Single*%
%FSLAX66Y66*%
%MOMM*%
G01*
G74*
G04 --- HEADER END --- *
G04 --- APERTURE LIST BEGIN --- *
%ADD10O,2.54X1.27*%
%ADD11R,1.4X1.0*%
%ADD12R,1.4X2.0*%
%ADD13R,1.803X1.6*%
%ADD14R,1.6X1.803*%
%ADD15C,1.6*%
%ADD16C,1.0*%
%ADD17C,0.0*%
G04 --- APERTURE LIST END --- *
G04 --- BOARD BEGIN --- *
D10*
X43180000Y79851250D03*
X43180000Y69691250D03*
X43180000Y74771250D03*
D11*
X65436728Y77300112D03*
X65436728Y75100112D03*
D12*
X62836728Y76200112D03*
D10*
X43338750Y61118750D03*
X43338750Y50958750D03*
X43338750Y56038750D03*
X59691808Y41909696D03*
X59691808Y67309696D03*
X59691808Y77469696D03*
X59691808Y72389696D03*
X74931808Y57149696D03*
X74931808Y72389696D03*
X59691808Y54609696D03*
X59691808Y34289696D03*
X59691808Y44449696D03*
X74931808Y80009696D03*
X74931808Y54609696D03*
X59691808Y62229696D03*
X74931808Y31749696D03*
X74931808Y62229696D03*
X59691808Y69849696D03*
X74931808Y52069696D03*
X59691808Y31749696D03*
X74931808Y77469696D03*
X59691808Y57149696D03*
X74931808Y59689696D03*
X74931808Y44449696D03*
X59691808Y39369696D03*
X59691808Y46989696D03*
X74931808Y36829696D03*
X59691808Y64769696D03*
X74931808Y67309696D03*
X59691808Y80009696D03*
X59691808Y49529696D03*
X59691808Y52069696D03*
X74931808Y74929696D03*
X74931808Y69849696D03*
X74931808Y64769696D03*
X59691808Y36829696D03*
X74931808Y41909696D03*
X74931808Y46989696D03*
X74931808Y39369696D03*
X59691808Y59689696D03*
X74931808Y34289696D03*
X74931808Y49529696D03*
X59691808Y74929696D03*
D13*
X68262728Y38728264D03*
X68262728Y35884264D03*
D11*
X68292696Y45867512D03*
X68292696Y43667512D03*
D12*
X65692696Y44767512D03*
D14*
X65411740Y71040672D03*
X68255740Y71040672D03*
D15*
X43180000Y71755000D03*
X68381560Y77311344D03*
D16*
X43180000Y79851250D02*
X43340302Y79851250D01*
X67310848Y47625600D02*
X68263360Y46673088D01*
X54610688Y57150720D02*
X54610688Y31750400D01*
X67310848Y47625600D02*
X64135808Y47625600D01*
X62865792Y29845376D02*
X62230784Y29210368D01*
X57150720Y29210368D02*
X62230784Y29210368D01*
X57150720Y29210368D02*
X54610688Y31750400D01*
X46990592Y64770816D02*
X54610688Y57150720D01*
X62865792Y46355584D02*
X64135808Y47625600D01*
X62865792Y29845376D02*
X62865792Y43815552D01*
X62865792Y43815552D02*
X62865792Y46355584D01*
X68263360Y46673088D02*
X68292696Y45867512D01*
X46990592Y76200960D02*
X46990592Y64770816D01*
X46990592Y64770816D02*
X43338750Y61118750D01*
X43340302Y79851250D02*
X46990592Y76200960D01*
X39370496Y43815552D02*
X39370496Y48260608D01*
X39370000Y52070000D02*
X39370496Y48260608D01*
X63500800Y27305344D02*
X55880704Y27305344D01*
X39370496Y78740992D02*
X39370000Y82550000D01*
X64770816Y42575616D02*
X64770816Y28575360D01*
X62836728Y76200112D02*
X62865792Y81281024D01*
X40640512Y83821056D02*
X39370000Y82550000D01*
X55880704Y27305344D02*
X39370496Y43815552D01*
X63500800Y27305344D02*
X64770816Y28575360D01*
X39370496Y78740992D02*
X43180000Y74771250D01*
X62865792Y81281024D02*
X60325760Y83821056D01*
X43338750Y56038750D02*
X43022498Y56038750D01*
X65723328Y43528128D02*
X65692696Y44767512D01*
X39370496Y78740992D02*
X39370496Y59690752D01*
X64770816Y42575616D02*
X65723328Y43528128D01*
X39370000Y52070000D02*
X43338750Y56038750D01*
X40640512Y83821056D02*
X60325760Y83821056D01*
X43022498Y56038750D02*
X39370496Y59690752D01*
X68262728Y35884264D02*
X69856560Y34290432D01*
X69856560Y34290432D02*
X74931808Y34289696D01*
X71120896Y45085568D02*
X71120896Y49530624D01*
X68292696Y43667512D02*
X69702840Y43667512D01*
X73660928Y52070656D02*
X74931808Y52069696D01*
X68262728Y38728264D02*
X68262696Y38728296D01*
X68262696Y38728296D02*
X68292696Y43667512D01*
X71120896Y49530624D02*
X73660928Y52070656D01*
X69702840Y43667512D02*
X71120896Y45085568D01*
X45403072Y57785728D02*
X46355584Y56833216D01*
X65436728Y77300112D02*
X68381560Y77311344D01*
X43815552Y57785728D02*
X45403072Y57785728D01*
X43180544Y58420736D02*
X40958016Y60643264D01*
X43338750Y50958750D02*
X46355584Y53975680D01*
X46355584Y56833216D02*
X46355584Y53975680D01*
X43180544Y58420736D02*
X43815552Y57785728D01*
X43180544Y71754456D02*
X43180000Y69691250D01*
X40958016Y60643264D02*
X40958016Y64135808D01*
X43180000Y71755000D02*
X43180544Y71754456D01*
X43180544Y66358336D02*
X43180000Y69691250D01*
X40958016Y64135808D02*
X43180544Y66358336D01*
X71755904Y67310848D02*
X71755904Y82551040D01*
X74931808Y49529696D02*
X76835040Y49529696D01*
X67310848Y66040832D02*
X65405824Y67945856D01*
X73025920Y83821056D02*
X71755904Y82551040D01*
X78105984Y81281024D02*
X78105984Y50800640D01*
X65405824Y67945856D02*
X65411740Y71040672D01*
X65436728Y75100112D02*
X65411740Y71040672D01*
X71755904Y67310848D02*
X70485888Y66040832D01*
X78105984Y82551040D02*
X76835968Y83821056D01*
X73025920Y83821056D02*
X76835968Y83821056D01*
X78105984Y81281024D02*
X78105984Y82551040D01*
X67310848Y66040832D02*
X70485888Y66040832D01*
X76835040Y49529696D02*
X78105984Y50800640D01*
D17*
G36*
X79669327Y25719500D02*
X79710000Y25800000D01*
X79710000Y85960000D01*
X79690500Y86019327D01*
X79610000Y86060000D01*
X37230000Y86060000D01*
X37170673Y86040500D01*
X37130000Y85960000D01*
X37130000Y25800000D01*
X37149500Y25740673D01*
X37230000Y25700000D01*
X55883327Y25700000D01*
X55883327Y26505344D01*
X55878095Y26505618D01*
X55820850Y26511635D01*
X55815630Y26512046D01*
X55760788Y26514920D01*
X55750492Y26516550D01*
X55742877Y26518591D01*
X55727446Y26521451D01*
X55719586Y26522277D01*
X55709387Y26524445D01*
X55657098Y26541435D01*
X55652076Y26542923D01*
X55599066Y26557127D01*
X55589346Y26560858D01*
X55582322Y26564437D01*
X55567818Y26570445D01*
X55560299Y26572888D01*
X55550776Y26577128D01*
X55503184Y26604605D01*
X55498584Y26607102D01*
X55449662Y26632029D01*
X55440922Y26637705D01*
X55434798Y26642665D01*
X55421859Y26651558D01*
X55415012Y26655511D01*
X55406582Y26661635D01*
X55365747Y26698404D01*
X55361764Y26701806D01*
X55317042Y26738020D01*
X55313177Y26741500D01*
X38806654Y43248023D01*
X38803161Y43251902D01*
X38766950Y43296619D01*
X38763550Y43300600D01*
X38726789Y43341427D01*
X38720664Y43349858D01*
X38716714Y43356699D01*
X38707827Y43369630D01*
X38702854Y43375771D01*
X38697182Y43384505D01*
X38672243Y43433451D01*
X38669744Y43438052D01*
X38642280Y43485621D01*
X38638042Y43495141D01*
X38635601Y43502653D01*
X38629593Y43517157D01*
X38626008Y43524192D01*
X38622275Y43533916D01*
X38608057Y43586983D01*
X38606569Y43592006D01*
X38589596Y43644240D01*
X38587429Y43654434D01*
X38586604Y43662285D01*
X38583745Y43677716D01*
X38581700Y43685347D01*
X38580071Y43695636D01*
X38577196Y43750497D01*
X38576785Y43755717D01*
X38570770Y43812943D01*
X38570496Y43818175D01*
X38570496Y48260608D01*
X38570497Y48260639D01*
X38570000Y52067276D01*
X38570273Y52072495D01*
X38576290Y52129815D01*
X38576699Y52135022D01*
X38579576Y52189915D01*
X38581207Y52200212D01*
X38583235Y52207784D01*
X38586094Y52223216D01*
X38586913Y52231015D01*
X38589078Y52241207D01*
X38606068Y52293520D01*
X38607551Y52298529D01*
X38621780Y52351634D01*
X38625516Y52361368D01*
X38629073Y52368349D01*
X38635080Y52382853D01*
X38637501Y52390307D01*
X38641742Y52399835D01*
X38669230Y52447461D01*
X38671721Y52452050D01*
X38696683Y52501040D01*
X38702363Y52509786D01*
X38707293Y52515874D01*
X38716185Y52528813D01*
X38720102Y52535600D01*
X38726232Y52544039D01*
X38763023Y52584910D01*
X38766415Y52588882D01*
X38802674Y52633658D01*
X38806164Y52637535D01*
X41799785Y55631156D01*
X41827947Y55686896D01*
X41824768Y55730895D01*
X41788141Y55851638D01*
X41786234Y55861227D01*
X41769231Y56033866D01*
X41769231Y56043634D01*
X41775086Y56103087D01*
X41746278Y56183599D01*
X38806654Y59123223D01*
X38803161Y59127102D01*
X38766950Y59171819D01*
X38763550Y59175800D01*
X38726789Y59216627D01*
X38720664Y59225058D01*
X38716714Y59231899D01*
X38707827Y59244830D01*
X38702854Y59250971D01*
X38697182Y59259705D01*
X38672243Y59308651D01*
X38669744Y59313252D01*
X38642280Y59360821D01*
X38638042Y59370341D01*
X38635601Y59377853D01*
X38629593Y59392357D01*
X38626008Y59399392D01*
X38622275Y59409116D01*
X38608057Y59462183D01*
X38606569Y59467206D01*
X38589596Y59519440D01*
X38587429Y59529634D01*
X38586604Y59537485D01*
X38583745Y59552916D01*
X38581700Y59560547D01*
X38580071Y59570836D01*
X38577196Y59625697D01*
X38576785Y59630917D01*
X38570770Y59688143D01*
X38570496Y59693375D01*
X38570496Y78740888D01*
X38570001Y82547275D01*
X38570274Y82552497D01*
X38576278Y82609697D01*
X38576688Y82614923D01*
X38579550Y82669745D01*
X38581178Y82680040D01*
X38583232Y82687712D01*
X38586086Y82703129D01*
X38586913Y82711010D01*
X38589081Y82721213D01*
X38606031Y82773406D01*
X38607519Y82778432D01*
X38621719Y82831472D01*
X38625454Y82841208D01*
X38629051Y82848270D01*
X38635053Y82862766D01*
X38637503Y82870309D01*
X38641741Y82879833D01*
X38669182Y82927375D01*
X38671684Y82931985D01*
X38696593Y82980898D01*
X38702272Y82989648D01*
X38707258Y82995807D01*
X38716142Y83008738D01*
X38720101Y83015597D01*
X38726233Y83024040D01*
X38762954Y83064833D01*
X38766359Y83068822D01*
X38802540Y83113522D01*
X38806047Y83117419D01*
X40072851Y84384765D01*
X40076742Y84388269D01*
X40121532Y84424556D01*
X40125496Y84427942D01*
X40166393Y84464766D01*
X40174822Y84470890D01*
X40181577Y84474790D01*
X40194527Y84483692D01*
X40200586Y84488600D01*
X40209325Y84494279D01*
X40258341Y84519267D01*
X40262923Y84521755D01*
X40310582Y84549271D01*
X40320112Y84553514D01*
X40327527Y84555923D01*
X40342047Y84561939D01*
X40348992Y84565479D01*
X40358716Y84569215D01*
X40411849Y84583464D01*
X40416848Y84584945D01*
X40469195Y84601954D01*
X40479400Y84604122D01*
X40487151Y84604937D01*
X40502601Y84607802D01*
X40510127Y84609820D01*
X40520431Y84611455D01*
X40575367Y84614345D01*
X40580567Y84614755D01*
X40637904Y84620782D01*
X40643133Y84621056D01*
X60323137Y84621056D01*
X60328369Y84620782D01*
X60385604Y84614766D01*
X60390823Y84614355D01*
X60445676Y84611480D01*
X60455971Y84609850D01*
X60463594Y84607807D01*
X60479027Y84604947D01*
X60486875Y84604122D01*
X60497072Y84601955D01*
X60549296Y84584985D01*
X60554319Y84583497D01*
X60607392Y84569277D01*
X60617122Y84565542D01*
X60624164Y84561954D01*
X60638661Y84555950D01*
X60646165Y84553512D01*
X60655688Y84549272D01*
X60703253Y84521811D01*
X60707852Y84519314D01*
X60756803Y84494372D01*
X60765544Y84488695D01*
X60771688Y84483720D01*
X60784615Y84474836D01*
X60791450Y84470890D01*
X60799885Y84464761D01*
X60840693Y84428017D01*
X60844674Y84424617D01*
X60889411Y84388390D01*
X60893290Y84384897D01*
X63429624Y81848563D01*
X63433133Y81844666D01*
X63470988Y81797918D01*
X63474007Y81794362D01*
X63512199Y81751454D01*
X63518273Y81742993D01*
X63520904Y81738375D01*
X63530074Y81724952D01*
X63533426Y81720812D01*
X63539105Y81712067D01*
X63565214Y81660826D01*
X63567427Y81656722D01*
X63595879Y81606784D01*
X63600067Y81597231D01*
X63601680Y81592169D01*
X63607860Y81577129D01*
X63610273Y81572392D01*
X63614011Y81562656D01*
X63628894Y81507113D01*
X63630205Y81502639D01*
X63647656Y81447865D01*
X63649764Y81437664D01*
X63650289Y81432374D01*
X63653208Y81416371D01*
X63654586Y81411230D01*
X63656215Y81400941D01*
X63659224Y81343523D01*
X63659577Y81338871D01*
X63665519Y81279052D01*
X63665763Y81273827D01*
X63644751Y77600684D01*
X63663911Y77541246D01*
X63744749Y77500112D01*
X63820715Y77500112D01*
X63825480Y77498546D01*
X63836728Y77476284D01*
X63836728Y74916125D01*
X63835162Y74911360D01*
X63812900Y74900112D01*
X61852741Y74900112D01*
X61847976Y74901678D01*
X61836728Y74923940D01*
X61836728Y77484099D01*
X61838294Y77488864D01*
X61860556Y77500112D01*
X61944723Y77500112D01*
X62004050Y77519612D01*
X62044721Y77599540D01*
X62063656Y80909793D01*
X62034369Y80981076D01*
X60023678Y82991767D01*
X59952967Y83021056D01*
X41013418Y83021056D01*
X40942692Y82991752D01*
X40199322Y82248064D01*
X40170048Y82177355D01*
X40170448Y79103009D01*
X40198296Y79033783D01*
X43361994Y75737011D01*
X43434146Y75706250D01*
X43812550Y75706250D01*
X43817443Y75706009D01*
X43992514Y75688766D01*
X44002115Y75686857D01*
X44168111Y75636502D01*
X44177138Y75632763D01*
X44330124Y75550991D01*
X44338256Y75545557D01*
X44472346Y75435511D01*
X44479261Y75428596D01*
X44589307Y75294506D01*
X44594741Y75286374D01*
X44676513Y75133388D01*
X44680252Y75124361D01*
X44730607Y74958365D01*
X44732516Y74948764D01*
X44749518Y74776144D01*
X44749518Y74766356D01*
X44732516Y74593735D01*
X44730607Y74584134D01*
X44680252Y74418138D01*
X44676513Y74409111D01*
X44594741Y74256125D01*
X44589307Y74247993D01*
X44479261Y74113903D01*
X44472346Y74106988D01*
X44338256Y73996942D01*
X44330124Y73991508D01*
X44177138Y73909736D01*
X44168111Y73905997D01*
X44002111Y73855641D01*
X43992522Y73853734D01*
X43817440Y73836490D01*
X43812543Y73836250D01*
X42547457Y73836250D01*
X42542560Y73836490D01*
X42367477Y73853734D01*
X42357888Y73855641D01*
X42191888Y73905997D01*
X42182861Y73909736D01*
X42029875Y73991508D01*
X42021743Y73996942D01*
X41887653Y74106988D01*
X41880738Y74113903D01*
X41770692Y74247993D01*
X41765258Y74256125D01*
X41683486Y74409111D01*
X41679747Y74418138D01*
X41629391Y74584138D01*
X41627484Y74593727D01*
X41610481Y74766366D01*
X41610481Y74776134D01*
X41627484Y74948772D01*
X41629391Y74958361D01*
X41675391Y75110002D01*
X41673953Y75172435D01*
X41651849Y75208269D01*
X40342648Y76572539D01*
X40287500Y76601844D01*
X40225721Y76592716D01*
X40181404Y76548716D01*
X40170496Y76503300D01*
X40170496Y64710719D01*
X40189996Y64651392D01*
X40240891Y64615202D01*
X40303332Y64616264D01*
X40344811Y64643806D01*
X40351085Y64650774D01*
X40354485Y64654756D01*
X40390682Y64699456D01*
X40394181Y64703343D01*
X42351194Y66660356D01*
X42380483Y66731083D01*
X42380164Y68694735D01*
X42360654Y68754060D01*
X42309193Y68790413D01*
X42191885Y68825998D01*
X42182861Y68829736D01*
X42029875Y68911508D01*
X42021743Y68916942D01*
X41887653Y69026988D01*
X41880738Y69033903D01*
X41770692Y69167993D01*
X41765258Y69176125D01*
X41683486Y69329111D01*
X41679747Y69338138D01*
X41629391Y69504138D01*
X41627484Y69513727D01*
X41610481Y69686366D01*
X41610481Y69696134D01*
X41627484Y69868772D01*
X41629391Y69878361D01*
X41679747Y70044361D01*
X41683486Y70053388D01*
X41765258Y70206374D01*
X41770692Y70214506D01*
X41880738Y70348596D01*
X41887653Y70355511D01*
X42021743Y70465557D01*
X42029875Y70470991D01*
X42182861Y70552763D01*
X42191888Y70556502D01*
X42309292Y70592116D01*
X42360405Y70627998D01*
X42380264Y70687783D01*
X42380337Y70962849D01*
X42360139Y71023140D01*
X42247541Y71172243D01*
X42242701Y71180060D01*
X42156341Y71353496D01*
X42153016Y71362078D01*
X42099994Y71548431D01*
X42098302Y71557480D01*
X42080427Y71750392D01*
X42080427Y71759608D01*
X42098302Y71952519D01*
X42099994Y71961568D01*
X42153016Y72147921D01*
X42156341Y72156503D01*
X42242701Y72329939D01*
X42247545Y72337762D01*
X42364301Y72492371D01*
X42370509Y72499181D01*
X42513686Y72629704D01*
X42521032Y72635252D01*
X42685759Y72737247D01*
X42693998Y72741349D01*
X42874653Y72811336D01*
X42883521Y72813859D01*
X43073960Y72849458D01*
X43083125Y72850307D01*
X43276874Y72850307D01*
X43286039Y72849458D01*
X43476478Y72813859D01*
X43485346Y72811336D01*
X43666001Y72741349D01*
X43674240Y72737247D01*
X43838967Y72635252D01*
X43846313Y72629704D01*
X43989490Y72499181D01*
X43995698Y72492371D01*
X44112454Y72337762D01*
X44117298Y72329939D01*
X44203658Y72156503D01*
X44206983Y72147921D01*
X44260005Y71961568D01*
X44261697Y71952519D01*
X44279573Y71759608D01*
X44279573Y71750392D01*
X44261697Y71557480D01*
X44260005Y71548431D01*
X44206983Y71362078D01*
X44203658Y71353496D01*
X44117298Y71180060D01*
X44112454Y71172237D01*
X44000533Y71024029D01*
X43980335Y70963792D01*
X43980262Y70687676D01*
X43999746Y70628344D01*
X44051234Y70591956D01*
X44168111Y70556502D01*
X44177138Y70552763D01*
X44330124Y70470991D01*
X44338256Y70465557D01*
X44472346Y70355511D01*
X44479261Y70348596D01*
X44589307Y70214506D01*
X44594741Y70206374D01*
X44676513Y70053388D01*
X44680252Y70044361D01*
X44730607Y69878365D01*
X44732516Y69868764D01*
X44749518Y69696144D01*
X44749518Y69686356D01*
X44732516Y69513735D01*
X44730607Y69504134D01*
X44680252Y69338138D01*
X44676513Y69329111D01*
X44594741Y69176125D01*
X44589307Y69167993D01*
X44479261Y69033903D01*
X44472346Y69026988D01*
X44338256Y68916942D01*
X44330124Y68911508D01*
X44177138Y68829736D01*
X44168113Y68825998D01*
X44051134Y68790512D01*
X44000022Y68754629D01*
X43980163Y68694802D01*
X43980543Y66361087D01*
X43980270Y66355863D01*
X43974254Y66298542D01*
X43973845Y66293338D01*
X43970967Y66238419D01*
X43969337Y66228126D01*
X43967313Y66220572D01*
X43964452Y66205130D01*
X43963635Y66197344D01*
X43961470Y66187153D01*
X43944484Y66134850D01*
X43943001Y66129843D01*
X43928763Y66076703D01*
X43925028Y66066975D01*
X43921479Y66060010D01*
X43915466Y66045489D01*
X43913049Y66038045D01*
X43908813Y66028526D01*
X43881316Y65980883D01*
X43878825Y65976296D01*
X43853855Y65927289D01*
X43848182Y65918554D01*
X43843260Y65912476D01*
X43834361Y65899525D01*
X43830456Y65892758D01*
X43824325Y65884316D01*
X43787542Y65843451D01*
X43784154Y65839483D01*
X43747887Y65794698D01*
X43744376Y65790798D01*
X41787305Y63833727D01*
X41758016Y63763016D01*
X41758016Y61712605D01*
X41777516Y61653278D01*
X41828411Y61617088D01*
X41890852Y61618150D01*
X41935317Y61649165D01*
X42039488Y61776096D01*
X42046403Y61783011D01*
X42180493Y61893057D01*
X42188625Y61898491D01*
X42341611Y61980263D01*
X42350638Y61984002D01*
X42516634Y62034357D01*
X42526235Y62036266D01*
X42701307Y62053509D01*
X42706200Y62053750D01*
X43100932Y62053750D01*
X43171645Y62083041D01*
X46161305Y65072884D01*
X46190592Y65143593D01*
X46190592Y75828168D01*
X46161303Y75898879D01*
X43173221Y78886961D01*
X43102510Y78916250D01*
X42547457Y78916250D01*
X42542560Y78916490D01*
X42367477Y78933734D01*
X42357888Y78935641D01*
X42191888Y78985997D01*
X42182861Y78989736D01*
X42029875Y79071508D01*
X42021743Y79076942D01*
X41887653Y79186988D01*
X41880738Y79193903D01*
X41770692Y79327993D01*
X41765258Y79336125D01*
X41683486Y79489111D01*
X41679747Y79498138D01*
X41629391Y79664138D01*
X41627484Y79673727D01*
X41610481Y79846366D01*
X41610481Y79856134D01*
X41627484Y80028772D01*
X41629391Y80038361D01*
X41679747Y80204361D01*
X41683486Y80213388D01*
X41765258Y80366374D01*
X41770692Y80374506D01*
X41880738Y80508596D01*
X41887653Y80515511D01*
X42021743Y80625557D01*
X42029875Y80630991D01*
X42182861Y80712763D01*
X42191888Y80716502D01*
X42357884Y80766857D01*
X42367485Y80768766D01*
X42542557Y80786009D01*
X42547450Y80786250D01*
X43812550Y80786250D01*
X43817443Y80786009D01*
X43992514Y80768766D01*
X44002115Y80766857D01*
X44168111Y80716502D01*
X44177138Y80712763D01*
X44330124Y80630991D01*
X44338256Y80625557D01*
X44472346Y80515511D01*
X44479261Y80508596D01*
X44589307Y80374506D01*
X44594741Y80366374D01*
X44676513Y80213388D01*
X44680252Y80204361D01*
X44730607Y80038365D01*
X44732516Y80028764D01*
X44749518Y79856144D01*
X44749518Y79846356D01*
X44732516Y79673733D01*
X44729649Y79659318D01*
X44731465Y79658957D01*
X44732722Y79603973D01*
X44756273Y79566649D01*
X47554435Y76768487D01*
X47557915Y76764622D01*
X47594137Y76719890D01*
X47597539Y76715907D01*
X47634298Y76675083D01*
X47640427Y76666647D01*
X47644373Y76659811D01*
X47653266Y76646870D01*
X47658232Y76640738D01*
X47663907Y76632000D01*
X47688837Y76583072D01*
X47691334Y76578472D01*
X47718807Y76530887D01*
X47723048Y76521361D01*
X47725489Y76513849D01*
X47731497Y76499344D01*
X47735076Y76492321D01*
X47738810Y76482592D01*
X47753019Y76429569D01*
X47754505Y76424553D01*
X47771490Y76372277D01*
X47773658Y76362075D01*
X47774484Y76354217D01*
X47777344Y76338787D01*
X47779384Y76331173D01*
X47781015Y76320875D01*
X47783889Y76266043D01*
X47784300Y76260824D01*
X47790318Y76203569D01*
X47790592Y76198337D01*
X47790592Y65143609D01*
X47819881Y65072898D01*
X55174532Y57718247D01*
X55178012Y57714382D01*
X55214243Y57669639D01*
X55217645Y57665656D01*
X55254397Y57624839D01*
X55260521Y57616411D01*
X55264472Y57609567D01*
X55273357Y57596639D01*
X55278323Y57590506D01*
X55284005Y57581756D01*
X55308942Y57532817D01*
X55311439Y57528218D01*
X55338901Y57480652D01*
X55343144Y57471122D01*
X55345583Y57463615D01*
X55351591Y57449110D01*
X55355173Y57442081D01*
X55358907Y57432354D01*
X55373126Y57379288D01*
X55374614Y57374268D01*
X55391586Y57322034D01*
X55393753Y57311839D01*
X55394580Y57303977D01*
X55397439Y57288554D01*
X55399481Y57280931D01*
X55401112Y57270636D01*
X55403987Y57215784D01*
X55404398Y57210565D01*
X55410414Y57153329D01*
X55410688Y57148097D01*
X55410688Y32123193D01*
X55439977Y32052482D01*
X57452802Y30039657D01*
X57523513Y30010368D01*
X59059265Y30010368D01*
X59059265Y30814696D01*
X59054368Y30814936D01*
X58879285Y30832180D01*
X58869696Y30834087D01*
X58703696Y30884443D01*
X58694669Y30888182D01*
X58541683Y30969954D01*
X58533551Y30975388D01*
X58399461Y31085434D01*
X58392546Y31092349D01*
X58282500Y31226439D01*
X58277066Y31234571D01*
X58195294Y31387557D01*
X58191555Y31396584D01*
X58141199Y31562584D01*
X58139292Y31572173D01*
X58122289Y31744812D01*
X58122289Y31754580D01*
X58139292Y31927218D01*
X58141199Y31936807D01*
X58191555Y32102807D01*
X58195294Y32111834D01*
X58277066Y32264820D01*
X58282500Y32272952D01*
X58392546Y32407042D01*
X58399461Y32413957D01*
X58533551Y32524003D01*
X58541683Y32529437D01*
X58694669Y32611209D01*
X58703696Y32614948D01*
X58869692Y32665303D01*
X58879293Y32667212D01*
X59054365Y32684455D01*
X59059258Y32684696D01*
X59059265Y32684696D01*
X59059265Y33354696D01*
X59054368Y33354936D01*
X58879285Y33372180D01*
X58869696Y33374087D01*
X58703696Y33424443D01*
X58694669Y33428182D01*
X58541683Y33509954D01*
X58533551Y33515388D01*
X58399461Y33625434D01*
X58392546Y33632349D01*
X58282500Y33766439D01*
X58277066Y33774571D01*
X58195294Y33927557D01*
X58191555Y33936584D01*
X58141199Y34102584D01*
X58139292Y34112173D01*
X58122289Y34284812D01*
X58122289Y34294580D01*
X58139292Y34467218D01*
X58141199Y34476807D01*
X58191555Y34642807D01*
X58195294Y34651834D01*
X58277066Y34804820D01*
X58282500Y34812952D01*
X58392546Y34947042D01*
X58399461Y34953957D01*
X58533551Y35064003D01*
X58541683Y35069437D01*
X58694669Y35151209D01*
X58703696Y35154948D01*
X58869692Y35205303D01*
X58879293Y35207212D01*
X59054365Y35224455D01*
X59059258Y35224696D01*
X59059265Y35224696D01*
X59059265Y35894696D01*
X59054368Y35894936D01*
X58879285Y35912180D01*
X58869696Y35914087D01*
X58703696Y35964443D01*
X58694669Y35968182D01*
X58541683Y36049954D01*
X58533551Y36055388D01*
X58399461Y36165434D01*
X58392546Y36172349D01*
X58282500Y36306439D01*
X58277066Y36314571D01*
X58195294Y36467557D01*
X58191555Y36476584D01*
X58141199Y36642584D01*
X58139292Y36652173D01*
X58122289Y36824812D01*
X58122289Y36834580D01*
X58139292Y37007218D01*
X58141199Y37016807D01*
X58191555Y37182807D01*
X58195294Y37191834D01*
X58277066Y37344820D01*
X58282500Y37352952D01*
X58392546Y37487042D01*
X58399461Y37493957D01*
X58533551Y37604003D01*
X58541683Y37609437D01*
X58694669Y37691209D01*
X58703696Y37694948D01*
X58869692Y37745303D01*
X58879293Y37747212D01*
X59054365Y37764455D01*
X59059258Y37764696D01*
X59059265Y37764696D01*
X59059265Y38434696D01*
X59054368Y38434936D01*
X58879285Y38452180D01*
X58869696Y38454087D01*
X58703696Y38504443D01*
X58694669Y38508182D01*
X58541683Y38589954D01*
X58533551Y38595388D01*
X58399461Y38705434D01*
X58392546Y38712349D01*
X58282500Y38846439D01*
X58277066Y38854571D01*
X58195294Y39007557D01*
X58191555Y39016584D01*
X58141199Y39182584D01*
X58139292Y39192173D01*
X58122289Y39364812D01*
X58122289Y39374580D01*
X58139292Y39547218D01*
X58141199Y39556807D01*
X58191555Y39722807D01*
X58195294Y39731834D01*
X58277066Y39884820D01*
X58282500Y39892952D01*
X58392546Y40027042D01*
X58399461Y40033957D01*
X58533551Y40144003D01*
X58541683Y40149437D01*
X58694669Y40231209D01*
X58703696Y40234948D01*
X58869692Y40285303D01*
X58879293Y40287212D01*
X59054365Y40304455D01*
X59059258Y40304696D01*
X59059265Y40304696D01*
X59059265Y40974696D01*
X59054368Y40974936D01*
X58879285Y40992180D01*
X58869696Y40994087D01*
X58703696Y41044443D01*
X58694669Y41048182D01*
X58541683Y41129954D01*
X58533551Y41135388D01*
X58399461Y41245434D01*
X58392546Y41252349D01*
X58282500Y41386439D01*
X58277066Y41394571D01*
X58195294Y41547557D01*
X58191555Y41556584D01*
X58141199Y41722584D01*
X58139292Y41732173D01*
X58122289Y41904812D01*
X58122289Y41914580D01*
X58139292Y42087218D01*
X58141199Y42096807D01*
X58191555Y42262807D01*
X58195294Y42271834D01*
X58277066Y42424820D01*
X58282500Y42432952D01*
X58392546Y42567042D01*
X58399461Y42573957D01*
X58533551Y42684003D01*
X58541683Y42689437D01*
X58694669Y42771209D01*
X58703696Y42774948D01*
X58869692Y42825303D01*
X58879293Y42827212D01*
X59054365Y42844455D01*
X59059258Y42844696D01*
X59059265Y42844696D01*
X59059265Y43514696D01*
X59054368Y43514936D01*
X58879285Y43532180D01*
X58869696Y43534087D01*
X58703696Y43584443D01*
X58694669Y43588182D01*
X58541683Y43669954D01*
X58533551Y43675388D01*
X58399461Y43785434D01*
X58392546Y43792349D01*
X58282500Y43926439D01*
X58277066Y43934571D01*
X58195294Y44087557D01*
X58191555Y44096584D01*
X58141199Y44262584D01*
X58139292Y44272173D01*
X58122289Y44444812D01*
X58122289Y44454580D01*
X58139292Y44627218D01*
X58141199Y44636807D01*
X58191555Y44802807D01*
X58195294Y44811834D01*
X58277066Y44964820D01*
X58282500Y44972952D01*
X58392546Y45107042D01*
X58399461Y45113957D01*
X58533551Y45224003D01*
X58541683Y45229437D01*
X58694669Y45311209D01*
X58703696Y45314948D01*
X58869692Y45365303D01*
X58879293Y45367212D01*
X59054365Y45384455D01*
X59059258Y45384696D01*
X59059265Y45384696D01*
X59059265Y46054696D01*
X59054368Y46054936D01*
X58879285Y46072180D01*
X58869696Y46074087D01*
X58703696Y46124443D01*
X58694669Y46128182D01*
X58541683Y46209954D01*
X58533551Y46215388D01*
X58399461Y46325434D01*
X58392546Y46332349D01*
X58282500Y46466439D01*
X58277066Y46474571D01*
X58195294Y46627557D01*
X58191555Y46636584D01*
X58141199Y46802584D01*
X58139292Y46812173D01*
X58122289Y46984812D01*
X58122289Y46994580D01*
X58139292Y47167218D01*
X58141199Y47176807D01*
X58191555Y47342807D01*
X58195294Y47351834D01*
X58277066Y47504820D01*
X58282500Y47512952D01*
X58392546Y47647042D01*
X58399461Y47653957D01*
X58533551Y47764003D01*
X58541683Y47769437D01*
X58694669Y47851209D01*
X58703696Y47854948D01*
X58869692Y47905303D01*
X58879293Y47907212D01*
X59054365Y47924455D01*
X59059258Y47924696D01*
X59059265Y47924696D01*
X59059265Y48594696D01*
X59054368Y48594936D01*
X58879285Y48612180D01*
X58869696Y48614087D01*
X58703696Y48664443D01*
X58694669Y48668182D01*
X58541683Y48749954D01*
X58533551Y48755388D01*
X58399461Y48865434D01*
X58392546Y48872349D01*
X58282500Y49006439D01*
X58277066Y49014571D01*
X58195294Y49167557D01*
X58191555Y49176584D01*
X58141199Y49342584D01*
X58139292Y49352173D01*
X58122289Y49524812D01*
X58122289Y49534580D01*
X58139292Y49707218D01*
X58141199Y49716807D01*
X58191555Y49882807D01*
X58195294Y49891834D01*
X58277066Y50044820D01*
X58282500Y50052952D01*
X58392546Y50187042D01*
X58399461Y50193957D01*
X58533551Y50304003D01*
X58541683Y50309437D01*
X58694669Y50391209D01*
X58703696Y50394948D01*
X58869692Y50445303D01*
X58879293Y50447212D01*
X59054365Y50464455D01*
X59059258Y50464696D01*
X59059265Y50464696D01*
X59059265Y51134696D01*
X59054368Y51134936D01*
X58879285Y51152180D01*
X58869696Y51154087D01*
X58703696Y51204443D01*
X58694669Y51208182D01*
X58541683Y51289954D01*
X58533551Y51295388D01*
X58399461Y51405434D01*
X58392546Y51412349D01*
X58282500Y51546439D01*
X58277066Y51554571D01*
X58195294Y51707557D01*
X58191555Y51716584D01*
X58141199Y51882584D01*
X58139292Y51892173D01*
X58122289Y52064812D01*
X58122289Y52074580D01*
X58139292Y52247218D01*
X58141199Y52256807D01*
X58191555Y52422807D01*
X58195294Y52431834D01*
X58277066Y52584820D01*
X58282500Y52592952D01*
X58392546Y52727042D01*
X58399461Y52733957D01*
X58533551Y52844003D01*
X58541683Y52849437D01*
X58694669Y52931209D01*
X58703696Y52934948D01*
X58869692Y52985303D01*
X58879293Y52987212D01*
X59054365Y53004455D01*
X59059258Y53004696D01*
X59059265Y53004696D01*
X59059265Y53674696D01*
X59054368Y53674936D01*
X58879285Y53692180D01*
X58869696Y53694087D01*
X58703696Y53744443D01*
X58694669Y53748182D01*
X58541683Y53829954D01*
X58533551Y53835388D01*
X58399461Y53945434D01*
X58392546Y53952349D01*
X58282500Y54086439D01*
X58277066Y54094571D01*
X58195294Y54247557D01*
X58191555Y54256584D01*
X58141199Y54422584D01*
X58139292Y54432173D01*
X58122289Y54604812D01*
X58122289Y54614580D01*
X58139292Y54787218D01*
X58141199Y54796807D01*
X58191555Y54962807D01*
X58195294Y54971834D01*
X58277066Y55124820D01*
X58282500Y55132952D01*
X58392546Y55267042D01*
X58399461Y55273957D01*
X58533551Y55384003D01*
X58541683Y55389437D01*
X58694669Y55471209D01*
X58703696Y55474948D01*
X58869692Y55525303D01*
X58879293Y55527212D01*
X59054365Y55544455D01*
X59059258Y55544696D01*
X59059265Y55544696D01*
X59059265Y56214696D01*
X59054368Y56214936D01*
X58879285Y56232180D01*
X58869696Y56234087D01*
X58703696Y56284443D01*
X58694669Y56288182D01*
X58541683Y56369954D01*
X58533551Y56375388D01*
X58399461Y56485434D01*
X58392546Y56492349D01*
X58282500Y56626439D01*
X58277066Y56634571D01*
X58195294Y56787557D01*
X58191555Y56796584D01*
X58141199Y56962584D01*
X58139292Y56972173D01*
X58122289Y57144812D01*
X58122289Y57154580D01*
X58139292Y57327218D01*
X58141199Y57336807D01*
X58191555Y57502807D01*
X58195294Y57511834D01*
X58277066Y57664820D01*
X58282500Y57672952D01*
X58392546Y57807042D01*
X58399461Y57813957D01*
X58533551Y57924003D01*
X58541683Y57929437D01*
X58694669Y58011209D01*
X58703696Y58014948D01*
X58869692Y58065303D01*
X58879293Y58067212D01*
X59054365Y58084455D01*
X59059258Y58084696D01*
X59059265Y58084696D01*
X59059265Y58754696D01*
X59054368Y58754936D01*
X58879285Y58772180D01*
X58869696Y58774087D01*
X58703696Y58824443D01*
X58694669Y58828182D01*
X58541683Y58909954D01*
X58533551Y58915388D01*
X58399461Y59025434D01*
X58392546Y59032349D01*
X58282500Y59166439D01*
X58277066Y59174571D01*
X58195294Y59327557D01*
X58191555Y59336584D01*
X58141199Y59502584D01*
X58139292Y59512173D01*
X58122289Y59684812D01*
X58122289Y59694580D01*
X58139292Y59867218D01*
X58141199Y59876807D01*
X58191555Y60042807D01*
X58195294Y60051834D01*
X58277066Y60204820D01*
X58282500Y60212952D01*
X58392546Y60347042D01*
X58399461Y60353957D01*
X58533551Y60464003D01*
X58541683Y60469437D01*
X58694669Y60551209D01*
X58703696Y60554948D01*
X58869692Y60605303D01*
X58879293Y60607212D01*
X59054365Y60624455D01*
X59059258Y60624696D01*
X59059265Y60624696D01*
X59059265Y61294696D01*
X59054368Y61294936D01*
X58879285Y61312180D01*
X58869696Y61314087D01*
X58703696Y61364443D01*
X58694669Y61368182D01*
X58541683Y61449954D01*
X58533551Y61455388D01*
X58399461Y61565434D01*
X58392546Y61572349D01*
X58282500Y61706439D01*
X58277066Y61714571D01*
X58195294Y61867557D01*
X58191555Y61876584D01*
X58141199Y62042584D01*
X58139292Y62052173D01*
X58122289Y62224812D01*
X58122289Y62234580D01*
X58139292Y62407218D01*
X58141199Y62416807D01*
X58191555Y62582807D01*
X58195294Y62591834D01*
X58277066Y62744820D01*
X58282500Y62752952D01*
X58392546Y62887042D01*
X58399461Y62893957D01*
X58533551Y63004003D01*
X58541683Y63009437D01*
X58694669Y63091209D01*
X58703696Y63094948D01*
X58869692Y63145303D01*
X58879293Y63147212D01*
X59054365Y63164455D01*
X59059258Y63164696D01*
X59059265Y63164696D01*
X59059265Y63834696D01*
X59054368Y63834936D01*
X58879285Y63852180D01*
X58869696Y63854087D01*
X58703696Y63904443D01*
X58694669Y63908182D01*
X58541683Y63989954D01*
X58533551Y63995388D01*
X58399461Y64105434D01*
X58392546Y64112349D01*
X58282500Y64246439D01*
X58277066Y64254571D01*
X58195294Y64407557D01*
X58191555Y64416584D01*
X58141199Y64582584D01*
X58139292Y64592173D01*
X58122289Y64764812D01*
X58122289Y64774580D01*
X58139292Y64947218D01*
X58141199Y64956807D01*
X58191555Y65122807D01*
X58195294Y65131834D01*
X58277066Y65284820D01*
X58282500Y65292952D01*
X58392546Y65427042D01*
X58399461Y65433957D01*
X58533551Y65544003D01*
X58541683Y65549437D01*
X58694669Y65631209D01*
X58703696Y65634948D01*
X58869692Y65685303D01*
X58879293Y65687212D01*
X59054365Y65704455D01*
X59059258Y65704696D01*
X59059265Y65704696D01*
X59059265Y66374696D01*
X59054368Y66374936D01*
X58879285Y66392180D01*
X58869696Y66394087D01*
X58703696Y66444443D01*
X58694669Y66448182D01*
X58541683Y66529954D01*
X58533551Y66535388D01*
X58399461Y66645434D01*
X58392546Y66652349D01*
X58282500Y66786439D01*
X58277066Y66794571D01*
X58195294Y66947557D01*
X58191555Y66956584D01*
X58141199Y67122584D01*
X58139292Y67132173D01*
X58122289Y67304812D01*
X58122289Y67314580D01*
X58139292Y67487218D01*
X58141199Y67496807D01*
X58191555Y67662807D01*
X58195294Y67671834D01*
X58277066Y67824820D01*
X58282500Y67832952D01*
X58392546Y67967042D01*
X58399461Y67973957D01*
X58533551Y68084003D01*
X58541683Y68089437D01*
X58694669Y68171209D01*
X58703696Y68174948D01*
X58869692Y68225303D01*
X58879293Y68227212D01*
X59054365Y68244455D01*
X59059258Y68244696D01*
X59059265Y68244696D01*
X59059265Y68914696D01*
X59054368Y68914936D01*
X58879285Y68932180D01*
X58869696Y68934087D01*
X58703696Y68984443D01*
X58694669Y68988182D01*
X58541683Y69069954D01*
X58533551Y69075388D01*
X58399461Y69185434D01*
X58392546Y69192349D01*
X58282500Y69326439D01*
X58277066Y69334571D01*
X58195294Y69487557D01*
X58191555Y69496584D01*
X58141199Y69662584D01*
X58139292Y69672173D01*
X58122289Y69844812D01*
X58122289Y69854580D01*
X58139292Y70027218D01*
X58141199Y70036807D01*
X58191555Y70202807D01*
X58195294Y70211834D01*
X58277066Y70364820D01*
X58282500Y70372952D01*
X58392546Y70507042D01*
X58399461Y70513957D01*
X58533551Y70624003D01*
X58541683Y70629437D01*
X58694669Y70711209D01*
X58703696Y70714948D01*
X58869692Y70765303D01*
X58879293Y70767212D01*
X59054365Y70784455D01*
X59059258Y70784696D01*
X59059265Y70784696D01*
X59059265Y71454696D01*
X59054368Y71454936D01*
X58879285Y71472180D01*
X58869696Y71474087D01*
X58703696Y71524443D01*
X58694669Y71528182D01*
X58541683Y71609954D01*
X58533551Y71615388D01*
X58399461Y71725434D01*
X58392546Y71732349D01*
X58282500Y71866439D01*
X58277066Y71874571D01*
X58195294Y72027557D01*
X58191555Y72036584D01*
X58141199Y72202584D01*
X58139292Y72212173D01*
X58122289Y72384812D01*
X58122289Y72394580D01*
X58139292Y72567218D01*
X58141199Y72576807D01*
X58191555Y72742807D01*
X58195294Y72751834D01*
X58277066Y72904820D01*
X58282500Y72912952D01*
X58392546Y73047042D01*
X58399461Y73053957D01*
X58533551Y73164003D01*
X58541683Y73169437D01*
X58694669Y73251209D01*
X58703696Y73254948D01*
X58869692Y73305303D01*
X58879293Y73307212D01*
X59054365Y73324455D01*
X59059258Y73324696D01*
X59059265Y73324696D01*
X59059265Y73994696D01*
X59054368Y73994936D01*
X58879285Y74012180D01*
X58869696Y74014087D01*
X58703696Y74064443D01*
X58694669Y74068182D01*
X58541683Y74149954D01*
X58533551Y74155388D01*
X58399461Y74265434D01*
X58392546Y74272349D01*
X58282500Y74406439D01*
X58277066Y74414571D01*
X58195294Y74567557D01*
X58191555Y74576584D01*
X58141199Y74742584D01*
X58139292Y74752173D01*
X58122289Y74924812D01*
X58122289Y74934580D01*
X58139292Y75107218D01*
X58141199Y75116807D01*
X58191555Y75282807D01*
X58195294Y75291834D01*
X58277066Y75444820D01*
X58282500Y75452952D01*
X58392546Y75587042D01*
X58399461Y75593957D01*
X58533551Y75704003D01*
X58541683Y75709437D01*
X58694669Y75791209D01*
X58703696Y75794948D01*
X58869692Y75845303D01*
X58879293Y75847212D01*
X59054365Y75864455D01*
X59059258Y75864696D01*
X60324358Y75864696D01*
X60329251Y75864455D01*
X60504322Y75847212D01*
X60513923Y75845303D01*
X60679919Y75794948D01*
X60688946Y75791209D01*
X60841932Y75709437D01*
X60850064Y75704003D01*
X60984154Y75593957D01*
X60991069Y75587042D01*
X61101115Y75452952D01*
X61106549Y75444820D01*
X61188321Y75291834D01*
X61192060Y75282807D01*
X61242415Y75116811D01*
X61244324Y75107210D01*
X61261326Y74934590D01*
X61261326Y74924802D01*
X61244324Y74752181D01*
X61242415Y74742580D01*
X61192060Y74576584D01*
X61188321Y74567557D01*
X61106549Y74414571D01*
X61101115Y74406439D01*
X60991069Y74272349D01*
X60984154Y74265434D01*
X60850064Y74155388D01*
X60841932Y74149954D01*
X60688946Y74068182D01*
X60679919Y74064443D01*
X60513919Y74014087D01*
X60504330Y74012180D01*
X60329248Y73994936D01*
X60324351Y73994696D01*
X59059265Y73994696D01*
X59059265Y73324696D01*
X60324358Y73324696D01*
X60329251Y73324455D01*
X60504322Y73307212D01*
X60513923Y73305303D01*
X60679919Y73254948D01*
X60688946Y73251209D01*
X60841932Y73169437D01*
X60850064Y73164003D01*
X60984154Y73053957D01*
X60991069Y73047042D01*
X61101115Y72912952D01*
X61106549Y72904820D01*
X61188321Y72751834D01*
X61192060Y72742807D01*
X61242415Y72576811D01*
X61244324Y72567210D01*
X61261326Y72394590D01*
X61261326Y72384802D01*
X61244324Y72212181D01*
X61242415Y72202580D01*
X61192060Y72036584D01*
X61188321Y72027557D01*
X61106549Y71874571D01*
X61101115Y71866439D01*
X60991069Y71732349D01*
X60984154Y71725434D01*
X60850064Y71615388D01*
X60841932Y71609954D01*
X60688946Y71528182D01*
X60679919Y71524443D01*
X60513919Y71474087D01*
X60504330Y71472180D01*
X60329248Y71454936D01*
X60324351Y71454696D01*
X59059265Y71454696D01*
X59059265Y70784696D01*
X60324358Y70784696D01*
X60329251Y70784455D01*
X60504322Y70767212D01*
X60513923Y70765303D01*
X60679919Y70714948D01*
X60688946Y70711209D01*
X60841932Y70629437D01*
X60850064Y70624003D01*
X60984154Y70513957D01*
X60991069Y70507042D01*
X61101115Y70372952D01*
X61106549Y70364820D01*
X61188321Y70211834D01*
X61192060Y70202807D01*
X61242415Y70036811D01*
X61244324Y70027210D01*
X61261326Y69854590D01*
X61261326Y69844802D01*
X61244324Y69672181D01*
X61242415Y69662580D01*
X61192060Y69496584D01*
X61188321Y69487557D01*
X61106549Y69334571D01*
X61101115Y69326439D01*
X60991069Y69192349D01*
X60984154Y69185434D01*
X60850064Y69075388D01*
X60841932Y69069954D01*
X60688946Y68988182D01*
X60679919Y68984443D01*
X60513919Y68934087D01*
X60504330Y68932180D01*
X60329248Y68914936D01*
X60324351Y68914696D01*
X59059265Y68914696D01*
X59059265Y68244696D01*
X60324358Y68244696D01*
X60329251Y68244455D01*
X60504322Y68227212D01*
X60513923Y68225303D01*
X60679919Y68174948D01*
X60688946Y68171209D01*
X60841932Y68089437D01*
X60850064Y68084003D01*
X60984154Y67973957D01*
X60991069Y67967042D01*
X61101115Y67832952D01*
X61106549Y67824820D01*
X61188321Y67671834D01*
X61192060Y67662807D01*
X61242415Y67496811D01*
X61244324Y67487210D01*
X61261326Y67314590D01*
X61261326Y67304802D01*
X61244324Y67132181D01*
X61242415Y67122580D01*
X61192060Y66956584D01*
X61188321Y66947557D01*
X61106549Y66794571D01*
X61101115Y66786439D01*
X60991069Y66652349D01*
X60984154Y66645434D01*
X60850064Y66535388D01*
X60841932Y66529954D01*
X60688946Y66448182D01*
X60679919Y66444443D01*
X60513919Y66394087D01*
X60504330Y66392180D01*
X60329248Y66374936D01*
X60324351Y66374696D01*
X59059265Y66374696D01*
X59059265Y65704696D01*
X60324358Y65704696D01*
X60329251Y65704455D01*
X60504322Y65687212D01*
X60513923Y65685303D01*
X60679919Y65634948D01*
X60688946Y65631209D01*
X60841932Y65549437D01*
X60850064Y65544003D01*
X60984154Y65433957D01*
X60991069Y65427042D01*
X61101115Y65292952D01*
X61106549Y65284820D01*
X61188321Y65131834D01*
X61192060Y65122807D01*
X61242415Y64956811D01*
X61244324Y64947210D01*
X61261326Y64774590D01*
X61261326Y64764802D01*
X61244324Y64592181D01*
X61242415Y64582580D01*
X61192060Y64416584D01*
X61188321Y64407557D01*
X61106549Y64254571D01*
X61101115Y64246439D01*
X60991069Y64112349D01*
X60984154Y64105434D01*
X60850064Y63995388D01*
X60841932Y63989954D01*
X60688946Y63908182D01*
X60679919Y63904443D01*
X60513919Y63854087D01*
X60504330Y63852180D01*
X60329248Y63834936D01*
X60324351Y63834696D01*
X59059265Y63834696D01*
X59059265Y63164696D01*
X60324358Y63164696D01*
X60329251Y63164455D01*
X60504322Y63147212D01*
X60513923Y63145303D01*
X60679919Y63094948D01*
X60688946Y63091209D01*
X60841932Y63009437D01*
X60850064Y63004003D01*
X60984154Y62893957D01*
X60991069Y62887042D01*
X61101115Y62752952D01*
X61106549Y62744820D01*
X61188321Y62591834D01*
X61192060Y62582807D01*
X61242415Y62416811D01*
X61244324Y62407210D01*
X61261326Y62234590D01*
X61261326Y62224802D01*
X61244324Y62052181D01*
X61242415Y62042580D01*
X61192060Y61876584D01*
X61188321Y61867557D01*
X61106549Y61714571D01*
X61101115Y61706439D01*
X60991069Y61572349D01*
X60984154Y61565434D01*
X60850064Y61455388D01*
X60841932Y61449954D01*
X60688946Y61368182D01*
X60679919Y61364443D01*
X60513919Y61314087D01*
X60504330Y61312180D01*
X60329248Y61294936D01*
X60324351Y61294696D01*
X59059265Y61294696D01*
X59059265Y60624696D01*
X60324358Y60624696D01*
X60329251Y60624455D01*
X60504322Y60607212D01*
X60513923Y60605303D01*
X60679919Y60554948D01*
X60688946Y60551209D01*
X60841932Y60469437D01*
X60850064Y60464003D01*
X60984154Y60353957D01*
X60991069Y60347042D01*
X61101115Y60212952D01*
X61106549Y60204820D01*
X61188321Y60051834D01*
X61192060Y60042807D01*
X61242415Y59876811D01*
X61244324Y59867210D01*
X61261326Y59694590D01*
X61261326Y59684802D01*
X61244324Y59512181D01*
X61242415Y59502580D01*
X61192060Y59336584D01*
X61188321Y59327557D01*
X61106549Y59174571D01*
X61101115Y59166439D01*
X60991069Y59032349D01*
X60984154Y59025434D01*
X60850064Y58915388D01*
X60841932Y58909954D01*
X60688946Y58828182D01*
X60679919Y58824443D01*
X60513919Y58774087D01*
X60504330Y58772180D01*
X60329248Y58754936D01*
X60324351Y58754696D01*
X59059265Y58754696D01*
X59059265Y58084696D01*
X60324358Y58084696D01*
X60329251Y58084455D01*
X60504322Y58067212D01*
X60513923Y58065303D01*
X60679919Y58014948D01*
X60688946Y58011209D01*
X60841932Y57929437D01*
X60850064Y57924003D01*
X60984154Y57813957D01*
X60991069Y57807042D01*
X61101115Y57672952D01*
X61106549Y57664820D01*
X61188321Y57511834D01*
X61192060Y57502807D01*
X61242415Y57336811D01*
X61244324Y57327210D01*
X61261326Y57154590D01*
X61261326Y57144802D01*
X61244324Y56972181D01*
X61242415Y56962580D01*
X61192060Y56796584D01*
X61188321Y56787557D01*
X61106549Y56634571D01*
X61101115Y56626439D01*
X60991069Y56492349D01*
X60984154Y56485434D01*
X60850064Y56375388D01*
X60841932Y56369954D01*
X60688946Y56288182D01*
X60679919Y56284443D01*
X60513919Y56234087D01*
X60504330Y56232180D01*
X60329248Y56214936D01*
X60324351Y56214696D01*
X59059265Y56214696D01*
X59059265Y55544696D01*
X60324358Y55544696D01*
X60329251Y55544455D01*
X60504322Y55527212D01*
X60513923Y55525303D01*
X60679919Y55474948D01*
X60688946Y55471209D01*
X60841932Y55389437D01*
X60850064Y55384003D01*
X60984154Y55273957D01*
X60991069Y55267042D01*
X61101115Y55132952D01*
X61106549Y55124820D01*
X61188321Y54971834D01*
X61192060Y54962807D01*
X61242415Y54796811D01*
X61244324Y54787210D01*
X61261326Y54614590D01*
X61261326Y54604802D01*
X61244324Y54432181D01*
X61242415Y54422580D01*
X61192060Y54256584D01*
X61188321Y54247557D01*
X61106549Y54094571D01*
X61101115Y54086439D01*
X60991069Y53952349D01*
X60984154Y53945434D01*
X60850064Y53835388D01*
X60841932Y53829954D01*
X60688946Y53748182D01*
X60679919Y53744443D01*
X60513919Y53694087D01*
X60504330Y53692180D01*
X60329248Y53674936D01*
X60324351Y53674696D01*
X59059265Y53674696D01*
X59059265Y53004696D01*
X60324358Y53004696D01*
X60329251Y53004455D01*
X60504322Y52987212D01*
X60513923Y52985303D01*
X60679919Y52934948D01*
X60688946Y52931209D01*
X60841932Y52849437D01*
X60850064Y52844003D01*
X60984154Y52733957D01*
X60991069Y52727042D01*
X61101115Y52592952D01*
X61106549Y52584820D01*
X61188321Y52431834D01*
X61192060Y52422807D01*
X61242415Y52256811D01*
X61244324Y52247210D01*
X61261326Y52074590D01*
X61261326Y52064802D01*
X61244324Y51892181D01*
X61242415Y51882580D01*
X61192060Y51716584D01*
X61188321Y51707557D01*
X61106549Y51554571D01*
X61101115Y51546439D01*
X60991069Y51412349D01*
X60984154Y51405434D01*
X60850064Y51295388D01*
X60841932Y51289954D01*
X60688946Y51208182D01*
X60679919Y51204443D01*
X60513919Y51154087D01*
X60504330Y51152180D01*
X60329248Y51134936D01*
X60324351Y51134696D01*
X59059265Y51134696D01*
X59059265Y50464696D01*
X60324358Y50464696D01*
X60329251Y50464455D01*
X60504322Y50447212D01*
X60513923Y50445303D01*
X60679919Y50394948D01*
X60688946Y50391209D01*
X60841932Y50309437D01*
X60850064Y50304003D01*
X60984154Y50193957D01*
X60991069Y50187042D01*
X61101115Y50052952D01*
X61106549Y50044820D01*
X61188321Y49891834D01*
X61192060Y49882807D01*
X61242415Y49716811D01*
X61244324Y49707210D01*
X61261326Y49534590D01*
X61261326Y49524802D01*
X61244324Y49352181D01*
X61242415Y49342580D01*
X61192060Y49176584D01*
X61188321Y49167557D01*
X61106549Y49014571D01*
X61101115Y49006439D01*
X60991069Y48872349D01*
X60984154Y48865434D01*
X60850064Y48755388D01*
X60841932Y48749954D01*
X60688946Y48668182D01*
X60679919Y48664443D01*
X60513919Y48614087D01*
X60504330Y48612180D01*
X60329248Y48594936D01*
X60324351Y48594696D01*
X59059265Y48594696D01*
X59059265Y47924696D01*
X60324358Y47924696D01*
X60329251Y47924455D01*
X60504322Y47907212D01*
X60513923Y47905303D01*
X60679919Y47854948D01*
X60688946Y47851209D01*
X60841932Y47769437D01*
X60850064Y47764003D01*
X60984154Y47653957D01*
X60991069Y47647042D01*
X61101115Y47512952D01*
X61106549Y47504820D01*
X61188321Y47351834D01*
X61192060Y47342807D01*
X61242415Y47176811D01*
X61244324Y47167210D01*
X61261326Y46994590D01*
X61261326Y46984802D01*
X61244324Y46812181D01*
X61242415Y46802580D01*
X61192060Y46636584D01*
X61188321Y46627557D01*
X61106549Y46474571D01*
X61101115Y46466439D01*
X60991069Y46332349D01*
X60984154Y46325434D01*
X60850064Y46215388D01*
X60841932Y46209954D01*
X60688946Y46128182D01*
X60679919Y46124443D01*
X60513919Y46074087D01*
X60504330Y46072180D01*
X60329248Y46054936D01*
X60324351Y46054696D01*
X59059265Y46054696D01*
X59059265Y45384696D01*
X60324358Y45384696D01*
X60329251Y45384455D01*
X60504322Y45367212D01*
X60513923Y45365303D01*
X60679919Y45314948D01*
X60688946Y45311209D01*
X60841932Y45229437D01*
X60850064Y45224003D01*
X60984154Y45113957D01*
X60991069Y45107042D01*
X61101115Y44972952D01*
X61106549Y44964820D01*
X61188321Y44811834D01*
X61192060Y44802807D01*
X61242415Y44636811D01*
X61244324Y44627210D01*
X61261326Y44454590D01*
X61261326Y44444802D01*
X61244324Y44272181D01*
X61242415Y44262580D01*
X61192060Y44096584D01*
X61188321Y44087557D01*
X61106549Y43934571D01*
X61101115Y43926439D01*
X60991069Y43792349D01*
X60984154Y43785434D01*
X60850064Y43675388D01*
X60841932Y43669954D01*
X60688946Y43588182D01*
X60679919Y43584443D01*
X60513919Y43534087D01*
X60504330Y43532180D01*
X60329248Y43514936D01*
X60324351Y43514696D01*
X59059265Y43514696D01*
X59059265Y42844696D01*
X60324358Y42844696D01*
X60329251Y42844455D01*
X60504322Y42827212D01*
X60513923Y42825303D01*
X60679919Y42774948D01*
X60688946Y42771209D01*
X60841932Y42689437D01*
X60850064Y42684003D01*
X60984154Y42573957D01*
X60991069Y42567042D01*
X61101115Y42432952D01*
X61106549Y42424820D01*
X61188321Y42271834D01*
X61192060Y42262807D01*
X61242415Y42096811D01*
X61244324Y42087210D01*
X61261326Y41914590D01*
X61261326Y41904802D01*
X61244324Y41732181D01*
X61242415Y41722580D01*
X61192060Y41556584D01*
X61188321Y41547557D01*
X61106549Y41394571D01*
X61101115Y41386439D01*
X60991069Y41252349D01*
X60984154Y41245434D01*
X60850064Y41135388D01*
X60841932Y41129954D01*
X60688946Y41048182D01*
X60679919Y41044443D01*
X60513919Y40994087D01*
X60504330Y40992180D01*
X60329248Y40974936D01*
X60324351Y40974696D01*
X59059265Y40974696D01*
X59059265Y40304696D01*
X60324358Y40304696D01*
X60329251Y40304455D01*
X60504322Y40287212D01*
X60513923Y40285303D01*
X60679919Y40234948D01*
X60688946Y40231209D01*
X60841932Y40149437D01*
X60850064Y40144003D01*
X60984154Y40033957D01*
X60991069Y40027042D01*
X61101115Y39892952D01*
X61106549Y39884820D01*
X61188321Y39731834D01*
X61192060Y39722807D01*
X61242415Y39556811D01*
X61244324Y39547210D01*
X61261326Y39374590D01*
X61261326Y39364802D01*
X61244324Y39192181D01*
X61242415Y39182580D01*
X61192060Y39016584D01*
X61188321Y39007557D01*
X61106549Y38854571D01*
X61101115Y38846439D01*
X60991069Y38712349D01*
X60984154Y38705434D01*
X60850064Y38595388D01*
X60841932Y38589954D01*
X60688946Y38508182D01*
X60679919Y38504443D01*
X60513919Y38454087D01*
X60504330Y38452180D01*
X60329248Y38434936D01*
X60324351Y38434696D01*
X59059265Y38434696D01*
X59059265Y37764696D01*
X60324358Y37764696D01*
X60329251Y37764455D01*
X60504322Y37747212D01*
X60513923Y37745303D01*
X60679919Y37694948D01*
X60688946Y37691209D01*
X60841932Y37609437D01*
X60850064Y37604003D01*
X60984154Y37493957D01*
X60991069Y37487042D01*
X61101115Y37352952D01*
X61106549Y37344820D01*
X61188321Y37191834D01*
X61192060Y37182807D01*
X61242415Y37016811D01*
X61244324Y37007210D01*
X61261326Y36834590D01*
X61261326Y36824802D01*
X61244324Y36652181D01*
X61242415Y36642580D01*
X61192060Y36476584D01*
X61188321Y36467557D01*
X61106549Y36314571D01*
X61101115Y36306439D01*
X60991069Y36172349D01*
X60984154Y36165434D01*
X60850064Y36055388D01*
X60841932Y36049954D01*
X60688946Y35968182D01*
X60679919Y35964443D01*
X60513919Y35914087D01*
X60504330Y35912180D01*
X60329248Y35894936D01*
X60324351Y35894696D01*
X59059265Y35894696D01*
X59059265Y35224696D01*
X60324358Y35224696D01*
X60329251Y35224455D01*
X60504322Y35207212D01*
X60513923Y35205303D01*
X60679919Y35154948D01*
X60688946Y35151209D01*
X60841932Y35069437D01*
X60850064Y35064003D01*
X60984154Y34953957D01*
X60991069Y34947042D01*
X61101115Y34812952D01*
X61106549Y34804820D01*
X61188321Y34651834D01*
X61192060Y34642807D01*
X61242415Y34476811D01*
X61244324Y34467210D01*
X61261326Y34294590D01*
X61261326Y34284802D01*
X61244324Y34112181D01*
X61242415Y34102580D01*
X61192060Y33936584D01*
X61188321Y33927557D01*
X61106549Y33774571D01*
X61101115Y33766439D01*
X60991069Y33632349D01*
X60984154Y33625434D01*
X60850064Y33515388D01*
X60841932Y33509954D01*
X60688946Y33428182D01*
X60679919Y33424443D01*
X60513919Y33374087D01*
X60504330Y33372180D01*
X60329248Y33354936D01*
X60324351Y33354696D01*
X59059265Y33354696D01*
X59059265Y32684696D01*
X60324358Y32684696D01*
X60329251Y32684455D01*
X60504322Y32667212D01*
X60513923Y32665303D01*
X60679919Y32614948D01*
X60688946Y32611209D01*
X60841932Y32529437D01*
X60850064Y32524003D01*
X60984154Y32413957D01*
X60991069Y32407042D01*
X61101115Y32272952D01*
X61106549Y32264820D01*
X61188321Y32111834D01*
X61192060Y32102807D01*
X61242415Y31936811D01*
X61244324Y31927210D01*
X61261326Y31754590D01*
X61261326Y31744802D01*
X61244324Y31572181D01*
X61242415Y31562580D01*
X61192060Y31396584D01*
X61188321Y31387557D01*
X61106549Y31234571D01*
X61101115Y31226439D01*
X60991069Y31092349D01*
X60984154Y31085434D01*
X60850064Y30975388D01*
X60841932Y30969954D01*
X60688946Y30888182D01*
X60679919Y30884443D01*
X60513919Y30834087D01*
X60504330Y30832180D01*
X60329248Y30814936D01*
X60324351Y30814696D01*
X59059265Y30814696D01*
X59059265Y30010368D01*
X61857992Y30010368D01*
X61928703Y30039657D01*
X62036503Y30147457D01*
X62065792Y30218168D01*
X62065792Y46352962D01*
X62066066Y46358193D01*
X62072085Y46415456D01*
X62072496Y46420676D01*
X62075369Y46475502D01*
X62076999Y46485794D01*
X62079040Y46493412D01*
X62081899Y46508840D01*
X62082725Y46516700D01*
X62084892Y46526896D01*
X62101879Y46579177D01*
X62103366Y46584196D01*
X62117576Y46637226D01*
X62121306Y46646945D01*
X62124888Y46653974D01*
X62130896Y46668479D01*
X62133335Y46675986D01*
X62137578Y46685516D01*
X62165040Y46733082D01*
X62167537Y46737681D01*
X62192475Y46786622D01*
X62198156Y46795371D01*
X62203123Y46801505D01*
X62212005Y46814429D01*
X62215954Y46821269D01*
X62222083Y46829704D01*
X62258833Y46870518D01*
X62262234Y46874500D01*
X62298459Y46919235D01*
X62301960Y46923123D01*
X63568269Y48189432D01*
X63572157Y48192933D01*
X63616893Y48229159D01*
X63620874Y48232560D01*
X63661684Y48269306D01*
X63670117Y48275433D01*
X63676957Y48279382D01*
X63689891Y48288271D01*
X63696025Y48293239D01*
X63704768Y48298916D01*
X63753717Y48323858D01*
X63758316Y48326355D01*
X63805880Y48353815D01*
X63815407Y48358057D01*
X63822910Y48360495D01*
X63837407Y48366499D01*
X63844447Y48370086D01*
X63854168Y48373818D01*
X63907220Y48388033D01*
X63912240Y48389520D01*
X63964492Y48406498D01*
X63974687Y48408664D01*
X63982544Y48409490D01*
X63997979Y48412351D01*
X64005594Y48414392D01*
X64015895Y48416023D01*
X64070726Y48418897D01*
X64075945Y48419308D01*
X64133199Y48425326D01*
X64138431Y48425600D01*
X67308226Y48425600D01*
X67313455Y48425326D01*
X67370716Y48419307D01*
X67375937Y48418896D01*
X67430764Y48416023D01*
X67441054Y48414393D01*
X67448677Y48412351D01*
X67464105Y48409492D01*
X67471967Y48408666D01*
X67482157Y48406500D01*
X67534434Y48389514D01*
X67539454Y48388027D01*
X67592486Y48373817D01*
X67602201Y48370088D01*
X67609232Y48366505D01*
X67623737Y48360497D01*
X67631249Y48358056D01*
X67640775Y48353815D01*
X67688360Y48326342D01*
X67692960Y48323845D01*
X67741883Y48298917D01*
X67750632Y48293235D01*
X67756760Y48288273D01*
X67769688Y48279387D01*
X67776546Y48275428D01*
X67784967Y48269309D01*
X67825814Y48232530D01*
X67829797Y48229129D01*
X67874495Y48192934D01*
X67878382Y48189435D01*
X68827192Y47240625D01*
X68830703Y47236725D01*
X68856641Y47204695D01*
X68862524Y47198054D01*
X68889389Y47170317D01*
X68895816Y47162117D01*
X68908713Y47141545D01*
X68915724Y47131731D01*
X68930998Y47112870D01*
X68936674Y47104129D01*
X68954198Y47069735D01*
X68958574Y47062014D01*
X68979083Y47029302D01*
X68983672Y47019929D01*
X68992009Y46997130D01*
X68996826Y46986073D01*
X69007844Y46964449D01*
X69011578Y46954721D01*
X69021569Y46917434D01*
X69024244Y46908972D01*
X69037507Y46872702D01*
X69040043Y46862596D01*
X69043459Y46838551D01*
X69045872Y46826736D01*
X69052152Y46803296D01*
X69053782Y46793005D01*
X69055392Y46762280D01*
X69077970Y46704054D01*
X69155255Y46667512D01*
X69276683Y46667512D01*
X69281448Y46665946D01*
X69292696Y46643684D01*
X69292696Y45083525D01*
X69291130Y45078760D01*
X69268868Y45067512D01*
X67308709Y45067512D01*
X67303944Y45069078D01*
X67292696Y45091340D01*
X67292696Y46470961D01*
X67263407Y46541672D01*
X67008768Y46796311D01*
X66938057Y46825600D01*
X64508601Y46825600D01*
X64437890Y46796311D01*
X63695081Y46053502D01*
X63665792Y45982791D01*
X63665792Y29847999D01*
X63665518Y29842767D01*
X63659502Y29785530D01*
X63659091Y29780311D01*
X63656216Y29725465D01*
X63654584Y29715162D01*
X63652543Y29707544D01*
X63649683Y29692111D01*
X63648859Y29684265D01*
X63646690Y29674059D01*
X63629707Y29621792D01*
X63628221Y29616772D01*
X63614013Y29563748D01*
X63610277Y29554015D01*
X63606696Y29546988D01*
X63600688Y29532483D01*
X63598248Y29524973D01*
X63594007Y29515447D01*
X63566531Y29467857D01*
X63564034Y29463257D01*
X63539108Y29414338D01*
X63533429Y29405593D01*
X63528467Y29399466D01*
X63519578Y29386532D01*
X63515625Y29379685D01*
X63509502Y29371257D01*
X63472742Y29330432D01*
X63469341Y29326449D01*
X63433134Y29281736D01*
X63429625Y29277839D01*
X62798321Y28646535D01*
X62794424Y28643026D01*
X62749711Y28606819D01*
X62745728Y28603418D01*
X62704902Y28566657D01*
X62696474Y28560534D01*
X62689627Y28556581D01*
X62676693Y28547692D01*
X62670566Y28542730D01*
X62661821Y28537051D01*
X62612902Y28512125D01*
X62608302Y28509628D01*
X62560712Y28482152D01*
X62551186Y28477911D01*
X62543676Y28475471D01*
X62529171Y28469463D01*
X62522144Y28465882D01*
X62512411Y28462146D01*
X62459387Y28447938D01*
X62454367Y28446452D01*
X62402100Y28429469D01*
X62391896Y28427301D01*
X62384040Y28426475D01*
X62368617Y28423616D01*
X62360993Y28421573D01*
X62350700Y28419943D01*
X62295839Y28417068D01*
X62290619Y28416657D01*
X62233393Y28410642D01*
X62228161Y28410368D01*
X57153342Y28410368D01*
X57148111Y28410642D01*
X57090846Y28416661D01*
X57085626Y28417072D01*
X57030810Y28419944D01*
X57020506Y28421577D01*
X57012899Y28423615D01*
X56997465Y28426475D01*
X56989608Y28427301D01*
X56979404Y28429469D01*
X56927118Y28446458D01*
X56922098Y28447945D01*
X56869083Y28462150D01*
X56859353Y28465885D01*
X56852332Y28469463D01*
X56837833Y28475469D01*
X56830308Y28477914D01*
X56820791Y28482151D01*
X56773169Y28509645D01*
X56768570Y28512142D01*
X56719680Y28537053D01*
X56710933Y28542733D01*
X56704814Y28547689D01*
X56691877Y28556580D01*
X56685031Y28560532D01*
X56676596Y28566661D01*
X56635768Y28603423D01*
X56631786Y28606824D01*
X56587078Y28643027D01*
X56583181Y28646536D01*
X54046856Y31182861D01*
X54043355Y31186749D01*
X54007138Y31231474D01*
X54003737Y31235456D01*
X53966977Y31276281D01*
X53960855Y31284707D01*
X53956899Y31291559D01*
X53948012Y31304488D01*
X53943052Y31310613D01*
X53937372Y31319359D01*
X53912439Y31368292D01*
X53909942Y31372892D01*
X53882473Y31420470D01*
X53878231Y31429997D01*
X53875791Y31437508D01*
X53869785Y31452006D01*
X53866206Y31459030D01*
X53862469Y31468766D01*
X53848260Y31521796D01*
X53846772Y31526818D01*
X53829790Y31579081D01*
X53827621Y31589286D01*
X53826795Y31597144D01*
X53823936Y31612572D01*
X53821895Y31620191D01*
X53820265Y31630482D01*
X53817392Y31685306D01*
X53816981Y31690526D01*
X53810962Y31747791D01*
X53810688Y31753022D01*
X53810688Y56777927D01*
X53781399Y56848638D01*
X47061322Y63568715D01*
X47005582Y63596877D01*
X46919898Y63568712D01*
X44877698Y61526386D01*
X44849538Y61470646D01*
X44852717Y61426650D01*
X44889357Y61305865D01*
X44891266Y61296264D01*
X44908268Y61123644D01*
X44908268Y61113856D01*
X44891266Y60941235D01*
X44889357Y60931634D01*
X44839002Y60765638D01*
X44835263Y60756611D01*
X44753491Y60603625D01*
X44748057Y60595493D01*
X44638011Y60461403D01*
X44631096Y60454488D01*
X44497006Y60344442D01*
X44488874Y60339008D01*
X44335888Y60257236D01*
X44326861Y60253497D01*
X44160861Y60203141D01*
X44151272Y60201234D01*
X43976190Y60183990D01*
X43971293Y60183750D01*
X42790322Y60183750D01*
X42730995Y60164250D01*
X42694805Y60113355D01*
X42695867Y60050914D01*
X42719611Y60013039D01*
X44117633Y58615017D01*
X44188344Y58585728D01*
X45400450Y58585728D01*
X45405679Y58585454D01*
X45462940Y58579435D01*
X45468161Y58579024D01*
X45522988Y58576151D01*
X45533278Y58574521D01*
X45540901Y58572479D01*
X45556329Y58569620D01*
X45564191Y58568794D01*
X45574381Y58566628D01*
X45626658Y58549642D01*
X45631678Y58548155D01*
X45684710Y58533945D01*
X45694425Y58530216D01*
X45701456Y58526633D01*
X45715961Y58520625D01*
X45723473Y58518184D01*
X45732999Y58513943D01*
X45780584Y58486470D01*
X45785184Y58483973D01*
X45834107Y58459045D01*
X45842856Y58453363D01*
X45848984Y58448401D01*
X45861912Y58439515D01*
X45868770Y58435556D01*
X45877191Y58429437D01*
X45918038Y58392658D01*
X45922021Y58389257D01*
X45966719Y58353062D01*
X45970606Y58349563D01*
X46919427Y57400742D01*
X46922907Y57396877D01*
X46959121Y57352155D01*
X46962523Y57348172D01*
X46999292Y57307337D01*
X47005416Y57298907D01*
X47009369Y57292060D01*
X47018262Y57279121D01*
X47023222Y57272997D01*
X47028898Y57264257D01*
X47053825Y57215335D01*
X47056322Y57210735D01*
X47083799Y57163143D01*
X47088039Y57153620D01*
X47090482Y57146101D01*
X47096490Y57131597D01*
X47100068Y57124576D01*
X47103803Y57114847D01*
X47118008Y57061831D01*
X47119496Y57056810D01*
X47136480Y57004540D01*
X47138648Y56994336D01*
X47139475Y56986469D01*
X47142336Y56971032D01*
X47144375Y56963423D01*
X47146006Y56953125D01*
X47148878Y56898325D01*
X47149289Y56893104D01*
X47155310Y56835824D01*
X47155584Y56830595D01*
X47155584Y53978302D01*
X47155310Y53973071D01*
X47149292Y53915817D01*
X47148881Y53910596D01*
X47146009Y53855783D01*
X47144377Y53845477D01*
X47142337Y53837865D01*
X47139475Y53822426D01*
X47138649Y53814560D01*
X47136482Y53804364D01*
X47119501Y53752102D01*
X47118014Y53747081D01*
X47103806Y53694053D01*
X47100075Y53684334D01*
X47096488Y53677294D01*
X47090483Y53662796D01*
X47088038Y53655272D01*
X47083802Y53645758D01*
X47056329Y53598172D01*
X47053831Y53593570D01*
X47028904Y53544648D01*
X47023226Y53535904D01*
X47018262Y53529774D01*
X47009374Y53516843D01*
X47005417Y53509989D01*
X46999291Y53501557D01*
X46962522Y53460721D01*
X46959122Y53456739D01*
X46922927Y53412041D01*
X46919428Y53408154D01*
X44877705Y51366367D01*
X44849544Y51310627D01*
X44852723Y51266628D01*
X44889357Y51145862D01*
X44891266Y51136264D01*
X44908268Y50963644D01*
X44908268Y50953856D01*
X44891266Y50781235D01*
X44889357Y50771634D01*
X44839002Y50605638D01*
X44835263Y50596611D01*
X44753491Y50443625D01*
X44748057Y50435493D01*
X44638011Y50301403D01*
X44631096Y50294488D01*
X44497006Y50184442D01*
X44488874Y50179008D01*
X44335888Y50097236D01*
X44326861Y50093497D01*
X44160861Y50043141D01*
X44151272Y50041234D01*
X43976190Y50023990D01*
X43971293Y50023750D01*
X42706207Y50023750D01*
X42701310Y50023990D01*
X42526227Y50041234D01*
X42516638Y50043141D01*
X42350638Y50093497D01*
X42341611Y50097236D01*
X42188625Y50179008D01*
X42180493Y50184442D01*
X42046403Y50294488D01*
X42039488Y50301403D01*
X41929442Y50435493D01*
X41924008Y50443625D01*
X41842236Y50596611D01*
X41838497Y50605638D01*
X41788141Y50771638D01*
X41786234Y50781227D01*
X41769231Y50953866D01*
X41769231Y50963634D01*
X41786234Y51136272D01*
X41788141Y51145861D01*
X41838497Y51311861D01*
X41842236Y51320888D01*
X41924008Y51473874D01*
X41929442Y51482006D01*
X42039488Y51616096D01*
X42046403Y51623011D01*
X42180493Y51733057D01*
X42188625Y51738491D01*
X42341611Y51820263D01*
X42350638Y51824002D01*
X42516634Y51874357D01*
X42526235Y51876266D01*
X42701307Y51893509D01*
X42706200Y51893750D01*
X43100945Y51893750D01*
X43171657Y51923040D01*
X45526296Y54277754D01*
X45555584Y54348464D01*
X45555584Y56460425D01*
X45526295Y56531136D01*
X45100992Y56956439D01*
X45030281Y56985728D01*
X44566088Y56985728D01*
X44506761Y56966228D01*
X44470571Y56915333D01*
X44471633Y56852892D01*
X44502648Y56808427D01*
X44631096Y56703011D01*
X44638011Y56696096D01*
X44748057Y56562006D01*
X44753491Y56553874D01*
X44835263Y56400888D01*
X44839002Y56391861D01*
X44889357Y56225865D01*
X44891266Y56216264D01*
X44908268Y56043644D01*
X44908268Y56033856D01*
X44891266Y55861235D01*
X44889357Y55851634D01*
X44839002Y55685638D01*
X44835263Y55676611D01*
X44753491Y55523625D01*
X44748057Y55515493D01*
X44638011Y55381403D01*
X44631096Y55374488D01*
X44497006Y55264442D01*
X44488874Y55259008D01*
X44335888Y55177236D01*
X44326861Y55173497D01*
X44160861Y55123141D01*
X44151272Y55121234D01*
X43976190Y55103990D01*
X43971293Y55103750D01*
X43576543Y55103750D01*
X43505832Y55074461D01*
X40199336Y51767965D01*
X40170047Y51697241D01*
X40170496Y48260713D01*
X40170622Y48260713D01*
X40170622Y48260608D01*
X40170496Y48260608D01*
X40170496Y44188345D01*
X40199785Y44117634D01*
X56182786Y28134633D01*
X56253497Y28105344D01*
X63128007Y28105344D01*
X63198718Y28134633D01*
X63941527Y28877442D01*
X63970816Y28948153D01*
X63970816Y42572993D01*
X63971090Y42578225D01*
X63977107Y42635470D01*
X63977518Y42640690D01*
X63980392Y42695529D01*
X63982022Y42705823D01*
X63984064Y42713444D01*
X63986923Y42728872D01*
X63987749Y42736735D01*
X63989915Y42746925D01*
X64006901Y42799202D01*
X64008388Y42804222D01*
X64022598Y42857254D01*
X64026327Y42866969D01*
X64029910Y42874000D01*
X64035918Y42888505D01*
X64038359Y42896017D01*
X64042600Y42905543D01*
X64070073Y42953128D01*
X64072570Y42957728D01*
X64097498Y43006651D01*
X64103182Y43015403D01*
X64108140Y43021526D01*
X64117026Y43034454D01*
X64120984Y43041310D01*
X64127104Y43049732D01*
X64163875Y43090570D01*
X64167276Y43094553D01*
X64203475Y43139256D01*
X64206984Y43143153D01*
X64663407Y43599576D01*
X64692696Y43670287D01*
X64692696Y46051499D01*
X64694262Y46056264D01*
X64716524Y46067512D01*
X66676683Y46067512D01*
X66681448Y46065946D01*
X66692696Y46043684D01*
X66692696Y43483525D01*
X66691130Y43478760D01*
X66668868Y43467512D01*
X66608335Y43467512D01*
X66549008Y43448012D01*
X66510037Y43385881D01*
X66508221Y43376166D01*
X66489377Y43312891D01*
X66488624Y43310229D01*
X66471547Y43246495D01*
X66465933Y43231870D01*
X66466142Y43231790D01*
X66465695Y43230672D01*
X66465489Y43230758D01*
X66459473Y43216294D01*
X66427863Y43158278D01*
X66426575Y43155834D01*
X66396642Y43097088D01*
X66388110Y43083949D01*
X66388297Y43083827D01*
X66387627Y43082826D01*
X66387445Y43082952D01*
X66378553Y43070056D01*
X66335573Y43019882D01*
X66333803Y43017757D01*
X66290654Y42964472D01*
X66287163Y42960594D01*
X65600105Y42273536D01*
X65570816Y42202825D01*
X65570816Y28577983D01*
X65570542Y28572751D01*
X65564524Y28515495D01*
X65564113Y28510276D01*
X65561239Y28455445D01*
X65559608Y28445147D01*
X65557568Y28437533D01*
X65554708Y28422102D01*
X65553882Y28414245D01*
X65551714Y28404045D01*
X65534729Y28351769D01*
X65533242Y28346750D01*
X65519032Y28293720D01*
X65515302Y28284001D01*
X65511720Y28276972D01*
X65505712Y28262467D01*
X65503272Y28254957D01*
X65499031Y28245432D01*
X65471565Y28197859D01*
X65469068Y28193258D01*
X65444136Y28144326D01*
X65438451Y28135573D01*
X65433486Y28129442D01*
X65424595Y28116506D01*
X65420645Y28109665D01*
X65414523Y28101238D01*
X65377757Y28060405D01*
X65374356Y28056422D01*
X65338150Y28011711D01*
X65334651Y28007824D01*
X64068339Y26741512D01*
X64064451Y26738011D01*
X64019715Y26701785D01*
X64015733Y26698384D01*
X63974920Y26661635D01*
X63966488Y26655509D01*
X63959655Y26651564D01*
X63946717Y26642672D01*
X63940584Y26637705D01*
X63931845Y26632030D01*
X63882907Y26607095D01*
X63878306Y26604596D01*
X63830730Y26577128D01*
X63821210Y26572890D01*
X63813695Y26570448D01*
X63799190Y26564440D01*
X63792156Y26560855D01*
X63782440Y26557126D01*
X63729397Y26542913D01*
X63724377Y26541426D01*
X63672114Y26524445D01*
X63661913Y26522277D01*
X63654062Y26521452D01*
X63638630Y26518592D01*
X63631016Y26516552D01*
X63620711Y26514920D01*
X63565875Y26512046D01*
X63560655Y26511635D01*
X63503409Y26505618D01*
X63498178Y26505344D01*
X55883327Y26505344D01*
X55883327Y25700000D01*
X67077241Y25700000D01*
X67077241Y37628264D01*
X67072476Y37629830D01*
X67061228Y37652092D01*
X67061228Y39812251D01*
X67062794Y39817016D01*
X67085056Y39828264D01*
X67369969Y39828264D01*
X67429296Y39847764D01*
X67469967Y39927657D01*
X67487211Y42766905D01*
X67468072Y42826349D01*
X67387213Y42867512D01*
X67308709Y42867512D01*
X67303944Y42869078D01*
X67292696Y42891340D01*
X67292696Y44451499D01*
X67294262Y44456264D01*
X67316524Y44467512D01*
X69330047Y44467512D01*
X69400758Y44496801D01*
X70291607Y45387650D01*
X70320896Y45458361D01*
X70320896Y49528002D01*
X70321170Y49533233D01*
X70327189Y49590496D01*
X70327600Y49595716D01*
X70330473Y49650542D01*
X70332103Y49660834D01*
X70334144Y49668452D01*
X70337003Y49683880D01*
X70337829Y49691740D01*
X70339996Y49701936D01*
X70356983Y49754217D01*
X70358470Y49759236D01*
X70372680Y49812266D01*
X70376410Y49821985D01*
X70379992Y49829014D01*
X70386000Y49843519D01*
X70388439Y49851026D01*
X70392682Y49860556D01*
X70420144Y49908122D01*
X70422641Y49912721D01*
X70447579Y49961662D01*
X70453260Y49970411D01*
X70458227Y49976545D01*
X70467109Y49989469D01*
X70471058Y49996309D01*
X70477187Y50004744D01*
X70513937Y50045558D01*
X70517338Y50049540D01*
X70553563Y50094275D01*
X70557064Y50098163D01*
X73093389Y52634488D01*
X73097286Y52637997D01*
X73142287Y52674437D01*
X73146214Y52677788D01*
X73187293Y52714721D01*
X73195730Y52720841D01*
X73202273Y52724612D01*
X73215265Y52733534D01*
X73221142Y52738293D01*
X73229881Y52743968D01*
X73279154Y52769074D01*
X73283689Y52771535D01*
X73331548Y52799118D01*
X73341075Y52803351D01*
X73348257Y52805679D01*
X73362824Y52811707D01*
X73369561Y52815139D01*
X73379293Y52818875D01*
X73432692Y52833184D01*
X73437637Y52834647D01*
X73490205Y52851682D01*
X73500402Y52853842D01*
X73507910Y52854625D01*
X73523421Y52857493D01*
X73530724Y52859450D01*
X73541008Y52861079D01*
X73596201Y52863972D01*
X73601345Y52864375D01*
X73658925Y52870383D01*
X73664155Y52870653D01*
X73796065Y52870553D01*
X73843281Y52882361D01*
X73934669Y52931209D01*
X73943696Y52934948D01*
X74109692Y52985303D01*
X74119293Y52987212D01*
X74294365Y53004455D01*
X74299258Y53004696D01*
X74299265Y53004696D01*
X74299265Y53674696D01*
X74294368Y53674936D01*
X74119285Y53692180D01*
X74109696Y53694087D01*
X73943696Y53744443D01*
X73934669Y53748182D01*
X73781683Y53829954D01*
X73773551Y53835388D01*
X73639461Y53945434D01*
X73632546Y53952349D01*
X73522500Y54086439D01*
X73517066Y54094571D01*
X73435294Y54247557D01*
X73431555Y54256584D01*
X73381199Y54422584D01*
X73379292Y54432173D01*
X73362289Y54604812D01*
X73362289Y54614580D01*
X73379292Y54787218D01*
X73381199Y54796807D01*
X73431555Y54962807D01*
X73435294Y54971834D01*
X73517066Y55124820D01*
X73522500Y55132952D01*
X73632546Y55267042D01*
X73639461Y55273957D01*
X73773551Y55384003D01*
X73781683Y55389437D01*
X73934669Y55471209D01*
X73943696Y55474948D01*
X74109692Y55525303D01*
X74119293Y55527212D01*
X74294365Y55544455D01*
X74299258Y55544696D01*
X74299265Y55544696D01*
X74299265Y56214696D01*
X74294368Y56214936D01*
X74119285Y56232180D01*
X74109696Y56234087D01*
X73943696Y56284443D01*
X73934669Y56288182D01*
X73781683Y56369954D01*
X73773551Y56375388D01*
X73639461Y56485434D01*
X73632546Y56492349D01*
X73522500Y56626439D01*
X73517066Y56634571D01*
X73435294Y56787557D01*
X73431555Y56796584D01*
X73381199Y56962584D01*
X73379292Y56972173D01*
X73362289Y57144812D01*
X73362289Y57154580D01*
X73379292Y57327218D01*
X73381199Y57336807D01*
X73431555Y57502807D01*
X73435294Y57511834D01*
X73517066Y57664820D01*
X73522500Y57672952D01*
X73632546Y57807042D01*
X73639461Y57813957D01*
X73773551Y57924003D01*
X73781683Y57929437D01*
X73934669Y58011209D01*
X73943696Y58014948D01*
X74109692Y58065303D01*
X74119293Y58067212D01*
X74294365Y58084455D01*
X74299258Y58084696D01*
X74299265Y58084696D01*
X74299265Y58754696D01*
X74294368Y58754936D01*
X74119285Y58772180D01*
X74109696Y58774087D01*
X73943696Y58824443D01*
X73934669Y58828182D01*
X73781683Y58909954D01*
X73773551Y58915388D01*
X73639461Y59025434D01*
X73632546Y59032349D01*
X73522500Y59166439D01*
X73517066Y59174571D01*
X73435294Y59327557D01*
X73431555Y59336584D01*
X73381199Y59502584D01*
X73379292Y59512173D01*
X73362289Y59684812D01*
X73362289Y59694580D01*
X73379292Y59867218D01*
X73381199Y59876807D01*
X73431555Y60042807D01*
X73435294Y60051834D01*
X73517066Y60204820D01*
X73522500Y60212952D01*
X73632546Y60347042D01*
X73639461Y60353957D01*
X73773551Y60464003D01*
X73781683Y60469437D01*
X73934669Y60551209D01*
X73943696Y60554948D01*
X74109692Y60605303D01*
X74119293Y60607212D01*
X74294365Y60624455D01*
X74299258Y60624696D01*
X74299265Y60624696D01*
X74299265Y61294696D01*
X74294368Y61294936D01*
X74119285Y61312180D01*
X74109696Y61314087D01*
X73943696Y61364443D01*
X73934669Y61368182D01*
X73781683Y61449954D01*
X73773551Y61455388D01*
X73639461Y61565434D01*
X73632546Y61572349D01*
X73522500Y61706439D01*
X73517066Y61714571D01*
X73435294Y61867557D01*
X73431555Y61876584D01*
X73381199Y62042584D01*
X73379292Y62052173D01*
X73362289Y62224812D01*
X73362289Y62234580D01*
X73379292Y62407218D01*
X73381199Y62416807D01*
X73431555Y62582807D01*
X73435294Y62591834D01*
X73517066Y62744820D01*
X73522500Y62752952D01*
X73632546Y62887042D01*
X73639461Y62893957D01*
X73773551Y63004003D01*
X73781683Y63009437D01*
X73934669Y63091209D01*
X73943696Y63094948D01*
X74109692Y63145303D01*
X74119293Y63147212D01*
X74294365Y63164455D01*
X74299258Y63164696D01*
X74299265Y63164696D01*
X74299265Y63834696D01*
X74294368Y63834936D01*
X74119285Y63852180D01*
X74109696Y63854087D01*
X73943696Y63904443D01*
X73934669Y63908182D01*
X73781683Y63989954D01*
X73773551Y63995388D01*
X73639461Y64105434D01*
X73632546Y64112349D01*
X73522500Y64246439D01*
X73517066Y64254571D01*
X73435294Y64407557D01*
X73431555Y64416584D01*
X73381199Y64582584D01*
X73379292Y64592173D01*
X73362289Y64764812D01*
X73362289Y64774580D01*
X73379292Y64947218D01*
X73381199Y64956807D01*
X73431555Y65122807D01*
X73435294Y65131834D01*
X73517066Y65284820D01*
X73522500Y65292952D01*
X73632546Y65427042D01*
X73639461Y65433957D01*
X73773551Y65544003D01*
X73781683Y65549437D01*
X73934669Y65631209D01*
X73943696Y65634948D01*
X74109692Y65685303D01*
X74119293Y65687212D01*
X74294365Y65704455D01*
X74299258Y65704696D01*
X74299265Y65704696D01*
X74299265Y66374696D01*
X74294368Y66374936D01*
X74119285Y66392180D01*
X74109696Y66394087D01*
X73943696Y66444443D01*
X73934669Y66448182D01*
X73781683Y66529954D01*
X73773551Y66535388D01*
X73639461Y66645434D01*
X73632546Y66652349D01*
X73522500Y66786439D01*
X73517066Y66794571D01*
X73435294Y66947557D01*
X73431555Y66956584D01*
X73381199Y67122584D01*
X73379292Y67132173D01*
X73362289Y67304812D01*
X73362289Y67314580D01*
X73379292Y67487218D01*
X73381199Y67496807D01*
X73431555Y67662807D01*
X73435294Y67671834D01*
X73517066Y67824820D01*
X73522500Y67832952D01*
X73632546Y67967042D01*
X73639461Y67973957D01*
X73773551Y68084003D01*
X73781683Y68089437D01*
X73934669Y68171209D01*
X73943696Y68174948D01*
X74109692Y68225303D01*
X74119293Y68227212D01*
X74294365Y68244455D01*
X74299258Y68244696D01*
X74299265Y68244696D01*
X74299265Y68914696D01*
X74294368Y68914936D01*
X74119285Y68932180D01*
X74109696Y68934087D01*
X73943696Y68984443D01*
X73934669Y68988182D01*
X73781683Y69069954D01*
X73773551Y69075388D01*
X73639461Y69185434D01*
X73632546Y69192349D01*
X73522500Y69326439D01*
X73517066Y69334571D01*
X73435294Y69487557D01*
X73431555Y69496584D01*
X73381199Y69662584D01*
X73379292Y69672173D01*
X73362289Y69844812D01*
X73362289Y69854580D01*
X73379292Y70027218D01*
X73381199Y70036807D01*
X73431555Y70202807D01*
X73435294Y70211834D01*
X73517066Y70364820D01*
X73522500Y70372952D01*
X73632546Y70507042D01*
X73639461Y70513957D01*
X73773551Y70624003D01*
X73781683Y70629437D01*
X73934669Y70711209D01*
X73943696Y70714948D01*
X74109692Y70765303D01*
X74119293Y70767212D01*
X74294365Y70784455D01*
X74299258Y70784696D01*
X74299265Y70784696D01*
X74299265Y71454696D01*
X74294368Y71454936D01*
X74119285Y71472180D01*
X74109696Y71474087D01*
X73943696Y71524443D01*
X73934669Y71528182D01*
X73781683Y71609954D01*
X73773551Y71615388D01*
X73639461Y71725434D01*
X73632546Y71732349D01*
X73522500Y71866439D01*
X73517066Y71874571D01*
X73435294Y72027557D01*
X73431555Y72036584D01*
X73381199Y72202584D01*
X73379292Y72212173D01*
X73362289Y72384812D01*
X73362289Y72394580D01*
X73379292Y72567218D01*
X73381199Y72576807D01*
X73431555Y72742807D01*
X73435294Y72751834D01*
X73517066Y72904820D01*
X73522500Y72912952D01*
X73632546Y73047042D01*
X73639461Y73053957D01*
X73773551Y73164003D01*
X73781683Y73169437D01*
X73934669Y73251209D01*
X73943696Y73254948D01*
X74109692Y73305303D01*
X74119293Y73307212D01*
X74294365Y73324455D01*
X74299258Y73324696D01*
X74299265Y73324696D01*
X74299265Y73994696D01*
X74294368Y73994936D01*
X74119285Y74012180D01*
X74109696Y74014087D01*
X73943696Y74064443D01*
X73934669Y74068182D01*
X73781683Y74149954D01*
X73773551Y74155388D01*
X73639461Y74265434D01*
X73632546Y74272349D01*
X73522500Y74406439D01*
X73517066Y74414571D01*
X73435294Y74567557D01*
X73431555Y74576584D01*
X73381199Y74742584D01*
X73379292Y74752173D01*
X73362289Y74924812D01*
X73362289Y74934580D01*
X73379292Y75107218D01*
X73381199Y75116807D01*
X73431555Y75282807D01*
X73435294Y75291834D01*
X73517066Y75444820D01*
X73522500Y75452952D01*
X73632546Y75587042D01*
X73639461Y75593957D01*
X73773551Y75704003D01*
X73781683Y75709437D01*
X73934669Y75791209D01*
X73943696Y75794948D01*
X74109692Y75845303D01*
X74119293Y75847212D01*
X74294365Y75864455D01*
X74299258Y75864696D01*
X74299265Y75864696D01*
X74299265Y76534696D01*
X74294368Y76534936D01*
X74119285Y76552180D01*
X74109696Y76554087D01*
X73943696Y76604443D01*
X73934669Y76608182D01*
X73781683Y76689954D01*
X73773551Y76695388D01*
X73639461Y76805434D01*
X73632546Y76812349D01*
X73522500Y76946439D01*
X73517066Y76954571D01*
X73435294Y77107557D01*
X73431555Y77116584D01*
X73381199Y77282584D01*
X73379292Y77292173D01*
X73362289Y77464812D01*
X73362289Y77474580D01*
X73379292Y77647218D01*
X73381199Y77656807D01*
X73431555Y77822807D01*
X73435294Y77831834D01*
X73517066Y77984820D01*
X73522500Y77992952D01*
X73632546Y78127042D01*
X73639461Y78133957D01*
X73773551Y78244003D01*
X73781683Y78249437D01*
X73934669Y78331209D01*
X73943696Y78334948D01*
X74109692Y78385303D01*
X74119293Y78387212D01*
X74294365Y78404455D01*
X74299258Y78404696D01*
X74299265Y78404696D01*
X74299265Y79074696D01*
X74294368Y79074936D01*
X74119285Y79092180D01*
X74109696Y79094087D01*
X73943696Y79144443D01*
X73934669Y79148182D01*
X73781683Y79229954D01*
X73773551Y79235388D01*
X73639461Y79345434D01*
X73632546Y79352349D01*
X73522500Y79486439D01*
X73517066Y79494571D01*
X73435294Y79647557D01*
X73431555Y79656584D01*
X73381199Y79822584D01*
X73379292Y79832173D01*
X73362289Y80004812D01*
X73362289Y80014580D01*
X73379292Y80187218D01*
X73381199Y80196807D01*
X73431555Y80362807D01*
X73435294Y80371834D01*
X73517066Y80524820D01*
X73522500Y80532952D01*
X73632546Y80667042D01*
X73639461Y80673957D01*
X73773551Y80784003D01*
X73781683Y80789437D01*
X73934669Y80871209D01*
X73943696Y80874948D01*
X74109692Y80925303D01*
X74119293Y80927212D01*
X74294365Y80944455D01*
X74299258Y80944696D01*
X75564358Y80944696D01*
X75569251Y80944455D01*
X75744322Y80927212D01*
X75753923Y80925303D01*
X75919919Y80874948D01*
X75928946Y80871209D01*
X76081932Y80789437D01*
X76090064Y80784003D01*
X76224154Y80673957D01*
X76231069Y80667042D01*
X76341115Y80532952D01*
X76346549Y80524820D01*
X76428321Y80371834D01*
X76432060Y80362807D01*
X76482415Y80196811D01*
X76484324Y80187210D01*
X76501326Y80014590D01*
X76501326Y80004802D01*
X76484324Y79832181D01*
X76482415Y79822580D01*
X76432060Y79656584D01*
X76428321Y79647557D01*
X76346549Y79494571D01*
X76341115Y79486439D01*
X76231069Y79352349D01*
X76224154Y79345434D01*
X76090064Y79235388D01*
X76081932Y79229954D01*
X75928946Y79148182D01*
X75919919Y79144443D01*
X75753919Y79094087D01*
X75744330Y79092180D01*
X75569248Y79074936D01*
X75564351Y79074696D01*
X74299265Y79074696D01*
X74299265Y78404696D01*
X75564358Y78404696D01*
X75569251Y78404455D01*
X75744322Y78387212D01*
X75753923Y78385303D01*
X75919919Y78334948D01*
X75928946Y78331209D01*
X76081932Y78249437D01*
X76090064Y78244003D01*
X76224154Y78133957D01*
X76231069Y78127042D01*
X76341115Y77992952D01*
X76346549Y77984820D01*
X76428321Y77831834D01*
X76432060Y77822807D01*
X76482415Y77656811D01*
X76484324Y77647210D01*
X76501326Y77474590D01*
X76501326Y77464802D01*
X76484324Y77292181D01*
X76482415Y77282580D01*
X76432060Y77116584D01*
X76428321Y77107557D01*
X76346549Y76954571D01*
X76341115Y76946439D01*
X76231069Y76812349D01*
X76224154Y76805434D01*
X76090064Y76695388D01*
X76081932Y76689954D01*
X75928946Y76608182D01*
X75919919Y76604443D01*
X75753919Y76554087D01*
X75744330Y76552180D01*
X75569248Y76534936D01*
X75564351Y76534696D01*
X74299265Y76534696D01*
X74299265Y75864696D01*
X75564358Y75864696D01*
X75569251Y75864455D01*
X75744322Y75847212D01*
X75753923Y75845303D01*
X75919919Y75794948D01*
X75928946Y75791209D01*
X76081932Y75709437D01*
X76090064Y75704003D01*
X76224154Y75593957D01*
X76231069Y75587042D01*
X76341115Y75452952D01*
X76346549Y75444820D01*
X76428321Y75291834D01*
X76432060Y75282807D01*
X76482415Y75116811D01*
X76484324Y75107210D01*
X76501326Y74934590D01*
X76501326Y74924802D01*
X76484324Y74752181D01*
X76482415Y74742580D01*
X76432060Y74576584D01*
X76428321Y74567557D01*
X76346549Y74414571D01*
X76341115Y74406439D01*
X76231069Y74272349D01*
X76224154Y74265434D01*
X76090064Y74155388D01*
X76081932Y74149954D01*
X75928946Y74068182D01*
X75919919Y74064443D01*
X75753919Y74014087D01*
X75744330Y74012180D01*
X75569248Y73994936D01*
X75564351Y73994696D01*
X74299265Y73994696D01*
X74299265Y73324696D01*
X75564358Y73324696D01*
X75569251Y73324455D01*
X75744322Y73307212D01*
X75753923Y73305303D01*
X75919919Y73254948D01*
X75928946Y73251209D01*
X76081932Y73169437D01*
X76090064Y73164003D01*
X76224154Y73053957D01*
X76231069Y73047042D01*
X76341115Y72912952D01*
X76346549Y72904820D01*
X76428321Y72751834D01*
X76432060Y72742807D01*
X76482415Y72576811D01*
X76484324Y72567210D01*
X76501326Y72394590D01*
X76501326Y72384802D01*
X76484324Y72212181D01*
X76482415Y72202580D01*
X76432060Y72036584D01*
X76428321Y72027557D01*
X76346549Y71874571D01*
X76341115Y71866439D01*
X76231069Y71732349D01*
X76224154Y71725434D01*
X76090064Y71615388D01*
X76081932Y71609954D01*
X75928946Y71528182D01*
X75919919Y71524443D01*
X75753919Y71474087D01*
X75744330Y71472180D01*
X75569248Y71454936D01*
X75564351Y71454696D01*
X74299265Y71454696D01*
X74299265Y70784696D01*
X75564358Y70784696D01*
X75569251Y70784455D01*
X75744322Y70767212D01*
X75753923Y70765303D01*
X75919919Y70714948D01*
X75928946Y70711209D01*
X76081932Y70629437D01*
X76090064Y70624003D01*
X76224154Y70513957D01*
X76231069Y70507042D01*
X76341115Y70372952D01*
X76346549Y70364820D01*
X76428321Y70211834D01*
X76432060Y70202807D01*
X76482415Y70036811D01*
X76484324Y70027210D01*
X76501326Y69854590D01*
X76501326Y69844802D01*
X76484324Y69672181D01*
X76482415Y69662580D01*
X76432060Y69496584D01*
X76428321Y69487557D01*
X76346549Y69334571D01*
X76341115Y69326439D01*
X76231069Y69192349D01*
X76224154Y69185434D01*
X76090064Y69075388D01*
X76081932Y69069954D01*
X75928946Y68988182D01*
X75919919Y68984443D01*
X75753919Y68934087D01*
X75744330Y68932180D01*
X75569248Y68914936D01*
X75564351Y68914696D01*
X74299265Y68914696D01*
X74299265Y68244696D01*
X75564358Y68244696D01*
X75569251Y68244455D01*
X75744322Y68227212D01*
X75753923Y68225303D01*
X75919919Y68174948D01*
X75928946Y68171209D01*
X76081932Y68089437D01*
X76090064Y68084003D01*
X76224154Y67973957D01*
X76231069Y67967042D01*
X76341115Y67832952D01*
X76346549Y67824820D01*
X76428321Y67671834D01*
X76432060Y67662807D01*
X76482415Y67496811D01*
X76484324Y67487210D01*
X76501326Y67314590D01*
X76501326Y67304802D01*
X76484324Y67132181D01*
X76482415Y67122580D01*
X76432060Y66956584D01*
X76428321Y66947557D01*
X76346549Y66794571D01*
X76341115Y66786439D01*
X76231069Y66652349D01*
X76224154Y66645434D01*
X76090064Y66535388D01*
X76081932Y66529954D01*
X75928946Y66448182D01*
X75919919Y66444443D01*
X75753919Y66394087D01*
X75744330Y66392180D01*
X75569248Y66374936D01*
X75564351Y66374696D01*
X74299265Y66374696D01*
X74299265Y65704696D01*
X75564358Y65704696D01*
X75569251Y65704455D01*
X75744322Y65687212D01*
X75753923Y65685303D01*
X75919919Y65634948D01*
X75928946Y65631209D01*
X76081932Y65549437D01*
X76090064Y65544003D01*
X76224154Y65433957D01*
X76231069Y65427042D01*
X76341115Y65292952D01*
X76346549Y65284820D01*
X76428321Y65131834D01*
X76432060Y65122807D01*
X76482415Y64956811D01*
X76484324Y64947210D01*
X76501326Y64774590D01*
X76501326Y64764802D01*
X76484324Y64592181D01*
X76482415Y64582580D01*
X76432060Y64416584D01*
X76428321Y64407557D01*
X76346549Y64254571D01*
X76341115Y64246439D01*
X76231069Y64112349D01*
X76224154Y64105434D01*
X76090064Y63995388D01*
X76081932Y63989954D01*
X75928946Y63908182D01*
X75919919Y63904443D01*
X75753919Y63854087D01*
X75744330Y63852180D01*
X75569248Y63834936D01*
X75564351Y63834696D01*
X74299265Y63834696D01*
X74299265Y63164696D01*
X75564358Y63164696D01*
X75569251Y63164455D01*
X75744322Y63147212D01*
X75753923Y63145303D01*
X75919919Y63094948D01*
X75928946Y63091209D01*
X76081932Y63009437D01*
X76090064Y63004003D01*
X76224154Y62893957D01*
X76231069Y62887042D01*
X76341115Y62752952D01*
X76346549Y62744820D01*
X76428321Y62591834D01*
X76432060Y62582807D01*
X76482415Y62416811D01*
X76484324Y62407210D01*
X76501326Y62234590D01*
X76501326Y62224802D01*
X76484324Y62052181D01*
X76482415Y62042580D01*
X76432060Y61876584D01*
X76428321Y61867557D01*
X76346549Y61714571D01*
X76341115Y61706439D01*
X76231069Y61572349D01*
X76224154Y61565434D01*
X76090064Y61455388D01*
X76081932Y61449954D01*
X75928946Y61368182D01*
X75919919Y61364443D01*
X75753919Y61314087D01*
X75744330Y61312180D01*
X75569248Y61294936D01*
X75564351Y61294696D01*
X74299265Y61294696D01*
X74299265Y60624696D01*
X75564358Y60624696D01*
X75569251Y60624455D01*
X75744322Y60607212D01*
X75753923Y60605303D01*
X75919919Y60554948D01*
X75928946Y60551209D01*
X76081932Y60469437D01*
X76090064Y60464003D01*
X76224154Y60353957D01*
X76231069Y60347042D01*
X76341115Y60212952D01*
X76346549Y60204820D01*
X76428321Y60051834D01*
X76432060Y60042807D01*
X76482415Y59876811D01*
X76484324Y59867210D01*
X76501326Y59694590D01*
X76501326Y59684802D01*
X76484324Y59512181D01*
X76482415Y59502580D01*
X76432060Y59336584D01*
X76428321Y59327557D01*
X76346549Y59174571D01*
X76341115Y59166439D01*
X76231069Y59032349D01*
X76224154Y59025434D01*
X76090064Y58915388D01*
X76081932Y58909954D01*
X75928946Y58828182D01*
X75919919Y58824443D01*
X75753919Y58774087D01*
X75744330Y58772180D01*
X75569248Y58754936D01*
X75564351Y58754696D01*
X74299265Y58754696D01*
X74299265Y58084696D01*
X75564358Y58084696D01*
X75569251Y58084455D01*
X75744322Y58067212D01*
X75753923Y58065303D01*
X75919919Y58014948D01*
X75928946Y58011209D01*
X76081932Y57929437D01*
X76090064Y57924003D01*
X76224154Y57813957D01*
X76231069Y57807042D01*
X76341115Y57672952D01*
X76346549Y57664820D01*
X76428321Y57511834D01*
X76432060Y57502807D01*
X76482415Y57336811D01*
X76484324Y57327210D01*
X76501326Y57154590D01*
X76501326Y57144802D01*
X76484324Y56972181D01*
X76482415Y56962580D01*
X76432060Y56796584D01*
X76428321Y56787557D01*
X76346549Y56634571D01*
X76341115Y56626439D01*
X76231069Y56492349D01*
X76224154Y56485434D01*
X76090064Y56375388D01*
X76081932Y56369954D01*
X75928946Y56288182D01*
X75919919Y56284443D01*
X75753919Y56234087D01*
X75744330Y56232180D01*
X75569248Y56214936D01*
X75564351Y56214696D01*
X74299265Y56214696D01*
X74299265Y55544696D01*
X75564358Y55544696D01*
X75569251Y55544455D01*
X75744322Y55527212D01*
X75753923Y55525303D01*
X75919919Y55474948D01*
X75928946Y55471209D01*
X76081932Y55389437D01*
X76090064Y55384003D01*
X76224154Y55273957D01*
X76231069Y55267042D01*
X76341115Y55132952D01*
X76346549Y55124820D01*
X76428321Y54971834D01*
X76432060Y54962807D01*
X76482415Y54796811D01*
X76484324Y54787210D01*
X76501326Y54614590D01*
X76501326Y54604802D01*
X76484324Y54432181D01*
X76482415Y54422580D01*
X76432060Y54256584D01*
X76428321Y54247557D01*
X76346549Y54094571D01*
X76341115Y54086439D01*
X76231069Y53952349D01*
X76224154Y53945434D01*
X76090064Y53835388D01*
X76081932Y53829954D01*
X75928946Y53748182D01*
X75919919Y53744443D01*
X75753919Y53694087D01*
X75744330Y53692180D01*
X75569248Y53674936D01*
X75564351Y53674696D01*
X74299265Y53674696D01*
X74299265Y53004696D01*
X75564358Y53004696D01*
X75569251Y53004455D01*
X75744322Y52987212D01*
X75753923Y52985303D01*
X75919919Y52934948D01*
X75928946Y52931209D01*
X76081932Y52849437D01*
X76090064Y52844003D01*
X76224154Y52733957D01*
X76231069Y52727042D01*
X76341115Y52592952D01*
X76346549Y52584820D01*
X76428321Y52431834D01*
X76432060Y52422807D01*
X76482415Y52256811D01*
X76484324Y52247210D01*
X76501326Y52074590D01*
X76501326Y52064802D01*
X76484324Y51892181D01*
X76482415Y51882580D01*
X76432060Y51716584D01*
X76428321Y51707557D01*
X76346549Y51554571D01*
X76341115Y51546439D01*
X76231069Y51412349D01*
X76224154Y51405434D01*
X76090064Y51295388D01*
X76081932Y51289954D01*
X75928946Y51208182D01*
X75919919Y51204443D01*
X75753919Y51154087D01*
X75744330Y51152180D01*
X75569248Y51134936D01*
X75564351Y51134696D01*
X74299265Y51134696D01*
X74294368Y51134936D01*
X74119285Y51152180D01*
X74109696Y51154087D01*
X73987541Y51191142D01*
X73925108Y51189703D01*
X73887802Y51166159D01*
X71950185Y49228542D01*
X71920896Y49157831D01*
X71920896Y45088191D01*
X71920622Y45082959D01*
X71914608Y45025742D01*
X71914197Y45020523D01*
X71911321Y44965649D01*
X71909692Y44955365D01*
X71907646Y44947730D01*
X71904785Y44932294D01*
X71903961Y44924450D01*
X71901793Y44914249D01*
X71884822Y44862017D01*
X71883335Y44856998D01*
X71869116Y44803932D01*
X71865381Y44794203D01*
X71861793Y44787160D01*
X71855788Y44772663D01*
X71853348Y44765154D01*
X71849112Y44755639D01*
X71821655Y44708081D01*
X71819158Y44703482D01*
X71794213Y44654525D01*
X71788534Y44645781D01*
X71783564Y44639644D01*
X71774672Y44626706D01*
X71770731Y44619879D01*
X71764606Y44611449D01*
X71727862Y44570641D01*
X71724463Y44566661D01*
X71688223Y44521910D01*
X71684738Y44518039D01*
X70270375Y43103676D01*
X70266488Y43100177D01*
X70221777Y43063971D01*
X70217794Y43060570D01*
X70176961Y43023804D01*
X70168534Y43017682D01*
X70161693Y43013732D01*
X70148757Y43004841D01*
X70142626Y42999876D01*
X70133873Y42994191D01*
X70084941Y42969259D01*
X70080340Y42966762D01*
X70032767Y42939296D01*
X70023242Y42935055D01*
X70015732Y42932615D01*
X70001227Y42926607D01*
X69994198Y42923025D01*
X69984479Y42919295D01*
X69931449Y42905085D01*
X69926430Y42903598D01*
X69874154Y42886613D01*
X69863957Y42884445D01*
X69856089Y42883618D01*
X69840671Y42880760D01*
X69833052Y42878719D01*
X69822752Y42877088D01*
X69767914Y42874214D01*
X69762694Y42873803D01*
X69705449Y42867786D01*
X69700217Y42867512D01*
X69187245Y42867512D01*
X69127918Y42848012D01*
X69087247Y42768119D01*
X69070003Y39928871D01*
X69089142Y39869427D01*
X69170001Y39828264D01*
X69448215Y39828264D01*
X69452980Y39826698D01*
X69464228Y39804436D01*
X69464228Y37644277D01*
X69462662Y37639512D01*
X69440400Y37628264D01*
X67077241Y37628264D01*
X67077241Y25700000D01*
X74299265Y25700000D01*
X74299265Y30814696D01*
X74294368Y30814936D01*
X74119285Y30832180D01*
X74109696Y30834087D01*
X73943696Y30884443D01*
X73934669Y30888182D01*
X73781683Y30969954D01*
X73773551Y30975388D01*
X73639461Y31085434D01*
X73632546Y31092349D01*
X73522500Y31226439D01*
X73517066Y31234571D01*
X73435294Y31387557D01*
X73431555Y31396584D01*
X73381199Y31562584D01*
X73379292Y31572173D01*
X73362289Y31744812D01*
X73362289Y31754580D01*
X73379292Y31927218D01*
X73381199Y31936807D01*
X73431555Y32102807D01*
X73435294Y32111834D01*
X73517066Y32264820D01*
X73522500Y32272952D01*
X73632546Y32407042D01*
X73639461Y32413957D01*
X73773551Y32524003D01*
X73781683Y32529437D01*
X73934669Y32611209D01*
X73943696Y32614948D01*
X74109692Y32665303D01*
X74119293Y32667212D01*
X74294365Y32684455D01*
X74299258Y32684696D01*
X74299265Y32684696D01*
X74299265Y35894696D01*
X74294368Y35894936D01*
X74119285Y35912180D01*
X74109696Y35914087D01*
X73943696Y35964443D01*
X73934669Y35968182D01*
X73781683Y36049954D01*
X73773551Y36055388D01*
X73639461Y36165434D01*
X73632546Y36172349D01*
X73522500Y36306439D01*
X73517066Y36314571D01*
X73435294Y36467557D01*
X73431555Y36476584D01*
X73381199Y36642584D01*
X73379292Y36652173D01*
X73362289Y36824812D01*
X73362289Y36834580D01*
X73379292Y37007218D01*
X73381199Y37016807D01*
X73431555Y37182807D01*
X73435294Y37191834D01*
X73517066Y37344820D01*
X73522500Y37352952D01*
X73632546Y37487042D01*
X73639461Y37493957D01*
X73773551Y37604003D01*
X73781683Y37609437D01*
X73934669Y37691209D01*
X73943696Y37694948D01*
X74109692Y37745303D01*
X74119293Y37747212D01*
X74294365Y37764455D01*
X74299258Y37764696D01*
X74299265Y37764696D01*
X74299265Y38434696D01*
X74294368Y38434936D01*
X74119285Y38452180D01*
X74109696Y38454087D01*
X73943696Y38504443D01*
X73934669Y38508182D01*
X73781683Y38589954D01*
X73773551Y38595388D01*
X73639461Y38705434D01*
X73632546Y38712349D01*
X73522500Y38846439D01*
X73517066Y38854571D01*
X73435294Y39007557D01*
X73431555Y39016584D01*
X73381199Y39182584D01*
X73379292Y39192173D01*
X73362289Y39364812D01*
X73362289Y39374580D01*
X73379292Y39547218D01*
X73381199Y39556807D01*
X73431555Y39722807D01*
X73435294Y39731834D01*
X73517066Y39884820D01*
X73522500Y39892952D01*
X73632546Y40027042D01*
X73639461Y40033957D01*
X73773551Y40144003D01*
X73781683Y40149437D01*
X73934669Y40231209D01*
X73943696Y40234948D01*
X74109692Y40285303D01*
X74119293Y40287212D01*
X74294365Y40304455D01*
X74299258Y40304696D01*
X74299265Y40304696D01*
X74299265Y40974696D01*
X74294368Y40974936D01*
X74119285Y40992180D01*
X74109696Y40994087D01*
X73943696Y41044443D01*
X73934669Y41048182D01*
X73781683Y41129954D01*
X73773551Y41135388D01*
X73639461Y41245434D01*
X73632546Y41252349D01*
X73522500Y41386439D01*
X73517066Y41394571D01*
X73435294Y41547557D01*
X73431555Y41556584D01*
X73381199Y41722584D01*
X73379292Y41732173D01*
X73362289Y41904812D01*
X73362289Y41914580D01*
X73379292Y42087218D01*
X73381199Y42096807D01*
X73431555Y42262807D01*
X73435294Y42271834D01*
X73517066Y42424820D01*
X73522500Y42432952D01*
X73632546Y42567042D01*
X73639461Y42573957D01*
X73773551Y42684003D01*
X73781683Y42689437D01*
X73934669Y42771209D01*
X73943696Y42774948D01*
X74109692Y42825303D01*
X74119293Y42827212D01*
X74294365Y42844455D01*
X74299258Y42844696D01*
X74299265Y42844696D01*
X74299265Y43514696D01*
X74294368Y43514936D01*
X74119285Y43532180D01*
X74109696Y43534087D01*
X73943696Y43584443D01*
X73934669Y43588182D01*
X73781683Y43669954D01*
X73773551Y43675388D01*
X73639461Y43785434D01*
X73632546Y43792349D01*
X73522500Y43926439D01*
X73517066Y43934571D01*
X73435294Y44087557D01*
X73431555Y44096584D01*
X73381199Y44262584D01*
X73379292Y44272173D01*
X73362289Y44444812D01*
X73362289Y44454580D01*
X73379292Y44627218D01*
X73381199Y44636807D01*
X73431555Y44802807D01*
X73435294Y44811834D01*
X73517066Y44964820D01*
X73522500Y44972952D01*
X73632546Y45107042D01*
X73639461Y45113957D01*
X73773551Y45224003D01*
X73781683Y45229437D01*
X73934669Y45311209D01*
X73943696Y45314948D01*
X74109692Y45365303D01*
X74119293Y45367212D01*
X74294365Y45384455D01*
X74299258Y45384696D01*
X74299265Y45384696D01*
X74299265Y46054696D01*
X74294368Y46054936D01*
X74119285Y46072180D01*
X74109696Y46074087D01*
X73943696Y46124443D01*
X73934669Y46128182D01*
X73781683Y46209954D01*
X73773551Y46215388D01*
X73639461Y46325434D01*
X73632546Y46332349D01*
X73522500Y46466439D01*
X73517066Y46474571D01*
X73435294Y46627557D01*
X73431555Y46636584D01*
X73381199Y46802584D01*
X73379292Y46812173D01*
X73362289Y46984812D01*
X73362289Y46994580D01*
X73379292Y47167218D01*
X73381199Y47176807D01*
X73431555Y47342807D01*
X73435294Y47351834D01*
X73517066Y47504820D01*
X73522500Y47512952D01*
X73632546Y47647042D01*
X73639461Y47653957D01*
X73773551Y47764003D01*
X73781683Y47769437D01*
X73934669Y47851209D01*
X73943696Y47854948D01*
X74109692Y47905303D01*
X74119293Y47907212D01*
X74294365Y47924455D01*
X74299258Y47924696D01*
X74299265Y47924696D01*
X74299265Y48594696D01*
X74294368Y48594936D01*
X74119285Y48612180D01*
X74109696Y48614087D01*
X73943696Y48664443D01*
X73934669Y48668182D01*
X73781683Y48749954D01*
X73773551Y48755388D01*
X73639461Y48865434D01*
X73632546Y48872349D01*
X73522500Y49006439D01*
X73517066Y49014571D01*
X73435294Y49167557D01*
X73431555Y49176584D01*
X73381199Y49342584D01*
X73379292Y49352173D01*
X73362289Y49524812D01*
X73362289Y49534580D01*
X73379292Y49707218D01*
X73381199Y49716807D01*
X73431555Y49882807D01*
X73435294Y49891834D01*
X73517066Y50044820D01*
X73522500Y50052952D01*
X73632546Y50187042D01*
X73639461Y50193957D01*
X73773551Y50304003D01*
X73781683Y50309437D01*
X73934669Y50391209D01*
X73943696Y50394948D01*
X74109692Y50445303D01*
X74119293Y50447212D01*
X74294365Y50464455D01*
X74299258Y50464696D01*
X75564358Y50464696D01*
X75569251Y50464455D01*
X75744322Y50447212D01*
X75753923Y50445303D01*
X75919919Y50394948D01*
X75928946Y50391209D01*
X76021938Y50341504D01*
X76069078Y50329696D01*
X76462247Y50329696D01*
X76532958Y50358985D01*
X77276695Y51102722D01*
X77305984Y51173433D01*
X77305984Y82178247D01*
X77276695Y82248958D01*
X76533886Y82991767D01*
X76463175Y83021056D01*
X73398713Y83021056D01*
X73328002Y82991767D01*
X72585193Y82248958D01*
X72555904Y82178247D01*
X72555904Y67313471D01*
X72555630Y67308239D01*
X72549612Y67250983D01*
X72549201Y67245764D01*
X72546327Y67190933D01*
X72544696Y67180635D01*
X72542656Y67173021D01*
X72539796Y67157590D01*
X72538970Y67149733D01*
X72536802Y67139533D01*
X72519817Y67087257D01*
X72518330Y67082238D01*
X72504120Y67029208D01*
X72500390Y67019489D01*
X72496808Y67012460D01*
X72490800Y66997955D01*
X72488360Y66990445D01*
X72484119Y66980920D01*
X72456653Y66933347D01*
X72454156Y66928746D01*
X72429224Y66879814D01*
X72423539Y66871061D01*
X72418574Y66864930D01*
X72409683Y66851994D01*
X72405733Y66845153D01*
X72399611Y66836726D01*
X72362845Y66795893D01*
X72359444Y66791910D01*
X72323238Y66747199D01*
X72319739Y66743312D01*
X71053424Y65476997D01*
X71049537Y65473498D01*
X71004827Y65437293D01*
X71000844Y65433892D01*
X70960009Y65397123D01*
X70951580Y65391000D01*
X70944733Y65387046D01*
X70931807Y65378162D01*
X70925677Y65373198D01*
X70916924Y65367514D01*
X70867995Y65342583D01*
X70863395Y65340086D01*
X70815817Y65312617D01*
X70806290Y65308375D01*
X70798779Y65305935D01*
X70784281Y65299929D01*
X70777257Y65296350D01*
X70767521Y65292613D01*
X70714491Y65278404D01*
X70709469Y65276916D01*
X70657206Y65259934D01*
X70647001Y65257765D01*
X70639143Y65256939D01*
X70623715Y65254080D01*
X70616096Y65252039D01*
X70605805Y65250409D01*
X70550982Y65247536D01*
X70545762Y65247125D01*
X70488497Y65241106D01*
X70483266Y65240832D01*
X67313471Y65240832D01*
X67308239Y65241106D01*
X67251013Y65247121D01*
X67245793Y65247532D01*
X67190933Y65250407D01*
X67180638Y65252038D01*
X67173015Y65254080D01*
X67157591Y65256939D01*
X67149728Y65257766D01*
X67139536Y65259932D01*
X67087287Y65276908D01*
X67082269Y65278394D01*
X67029222Y65292608D01*
X67019484Y65296347D01*
X67012456Y65299928D01*
X66997952Y65305936D01*
X66990445Y65308375D01*
X66980919Y65312616D01*
X66933341Y65340085D01*
X66928741Y65342582D01*
X66879809Y65367515D01*
X66871059Y65373196D01*
X66864923Y65378165D01*
X66851998Y65387048D01*
X66845160Y65390996D01*
X66836722Y65397127D01*
X66795895Y65433888D01*
X66791914Y65437289D01*
X66747190Y65473506D01*
X66743313Y65476996D01*
X64841982Y67378327D01*
X64838497Y67382198D01*
X64801714Y67427620D01*
X64798443Y67431458D01*
X64761208Y67472971D01*
X64755099Y67481413D01*
X64751600Y67487501D01*
X64742617Y67500599D01*
X64738183Y67506074D01*
X64732508Y67514814D01*
X64707166Y67564549D01*
X64704765Y67568982D01*
X64676980Y67617321D01*
X64672755Y67626860D01*
X64670601Y67633534D01*
X64664536Y67648217D01*
X64661336Y67654497D01*
X64657603Y67664219D01*
X64643156Y67718141D01*
X64641727Y67722981D01*
X64624600Y67776035D01*
X64622451Y67786239D01*
X64621729Y67793235D01*
X64618851Y67808845D01*
X64617029Y67815644D01*
X64615399Y67825940D01*
X64612478Y67881671D01*
X64612087Y67886699D01*
X64606095Y67944776D01*
X64605831Y67950010D01*
X64609250Y69738981D01*
X64589863Y69798346D01*
X64509250Y69839172D01*
X64327753Y69839172D01*
X64322988Y69840738D01*
X64311740Y69863000D01*
X64311740Y72226159D01*
X64313306Y72230924D01*
X64335568Y72242172D01*
X64519736Y72242172D01*
X64579063Y72261672D01*
X64619734Y72341556D01*
X64631170Y74199496D01*
X64612036Y74258943D01*
X64531172Y74300112D01*
X64452741Y74300112D01*
X64447976Y74301678D01*
X64436728Y74323940D01*
X64436728Y75884099D01*
X64438294Y75888864D01*
X64460556Y75900112D01*
X66420715Y75900112D01*
X66425480Y75898546D01*
X66436728Y75876284D01*
X66436728Y74316125D01*
X66435162Y74311360D01*
X66412900Y74300112D01*
X66331204Y74300112D01*
X66271877Y74280612D01*
X66231206Y74200728D01*
X66219769Y72342788D01*
X66238903Y72283341D01*
X66319767Y72242172D01*
X66495727Y72242172D01*
X66500492Y72240606D01*
X66511740Y72218344D01*
X66511740Y69855185D01*
X66510174Y69850420D01*
X66487912Y69839172D01*
X66309253Y69839172D01*
X66249926Y69819672D01*
X66209253Y69739363D01*
X66206536Y68318128D01*
X66235825Y68247226D01*
X67612930Y66870121D01*
X67683641Y66840832D01*
X68284685Y66840832D01*
X68284685Y76216036D01*
X68275520Y76216885D01*
X68085081Y76252484D01*
X68076213Y76255007D01*
X67895558Y76324994D01*
X67887319Y76329096D01*
X67722595Y76431089D01*
X67715246Y76436639D01*
X67665212Y76482250D01*
X67597462Y76508347D01*
X66443942Y76503949D01*
X66427975Y76500112D01*
X64452741Y76500112D01*
X64447976Y76501678D01*
X64436728Y76523940D01*
X64436728Y78084099D01*
X64438294Y78088864D01*
X64460556Y78100112D01*
X65435132Y78100112D01*
X65435513Y78100113D01*
X67591640Y78108337D01*
X67658628Y78134435D01*
X67715240Y78186043D01*
X67722595Y78191598D01*
X67887319Y78293591D01*
X67895558Y78297693D01*
X68076213Y78367680D01*
X68085081Y78370203D01*
X68275520Y78405802D01*
X68284685Y78406651D01*
X68478434Y78406651D01*
X68487599Y78405802D01*
X68678038Y78370203D01*
X68686906Y78367680D01*
X68867561Y78297693D01*
X68875800Y78293591D01*
X69040527Y78191596D01*
X69047873Y78186048D01*
X69191050Y78055525D01*
X69197258Y78048715D01*
X69314014Y77894106D01*
X69318858Y77886283D01*
X69405218Y77712847D01*
X69408543Y77704265D01*
X69461565Y77517912D01*
X69463257Y77508863D01*
X69481133Y77315952D01*
X69481133Y77306736D01*
X69463257Y77113824D01*
X69461565Y77104775D01*
X69408543Y76918422D01*
X69405218Y76909840D01*
X69318858Y76736404D01*
X69314014Y76728581D01*
X69197258Y76573972D01*
X69191050Y76567162D01*
X69047873Y76436639D01*
X69040527Y76431091D01*
X68875800Y76329096D01*
X68867561Y76324994D01*
X68686906Y76255007D01*
X68678038Y76252484D01*
X68487599Y76216885D01*
X68478434Y76216036D01*
X68284685Y76216036D01*
X68284685Y66840832D01*
X70113095Y66840832D01*
X70183806Y66870121D01*
X70926615Y67612930D01*
X70955904Y67683641D01*
X70955904Y82548418D01*
X70956178Y82553649D01*
X70962197Y82610912D01*
X70962608Y82616132D01*
X70965481Y82670958D01*
X70967111Y82681250D01*
X70969152Y82688868D01*
X70972011Y82704296D01*
X70972837Y82712156D01*
X70975004Y82722352D01*
X70991991Y82774633D01*
X70993478Y82779652D01*
X71007688Y82832682D01*
X71011418Y82842401D01*
X71015000Y82849430D01*
X71021008Y82863935D01*
X71023447Y82871442D01*
X71027690Y82880972D01*
X71055152Y82928538D01*
X71057649Y82933137D01*
X71082587Y82982078D01*
X71088268Y82990827D01*
X71093235Y82996961D01*
X71102117Y83009885D01*
X71106066Y83016725D01*
X71112195Y83025160D01*
X71148945Y83065974D01*
X71152346Y83069956D01*
X71188571Y83114691D01*
X71192072Y83118579D01*
X72458381Y84384888D01*
X72462269Y84388389D01*
X72507005Y84424615D01*
X72510986Y84428016D01*
X72551796Y84464762D01*
X72560229Y84470889D01*
X72567069Y84474838D01*
X72580003Y84483727D01*
X72586137Y84488695D01*
X72594880Y84494372D01*
X72643829Y84519314D01*
X72648428Y84521811D01*
X72695992Y84549271D01*
X72705519Y84553513D01*
X72713022Y84555951D01*
X72727519Y84561955D01*
X72734559Y84565542D01*
X72744280Y84569274D01*
X72797332Y84583489D01*
X72802352Y84584976D01*
X72854604Y84601954D01*
X72864799Y84604120D01*
X72872656Y84604946D01*
X72888091Y84607807D01*
X72895706Y84609848D01*
X72906007Y84611479D01*
X72960838Y84614353D01*
X72966057Y84614764D01*
X73023311Y84620782D01*
X73028543Y84621056D01*
X76833345Y84621056D01*
X76838577Y84620782D01*
X76895812Y84614766D01*
X76901031Y84614355D01*
X76955884Y84611480D01*
X76966179Y84609850D01*
X76973802Y84607807D01*
X76989235Y84604947D01*
X76997083Y84604122D01*
X77007280Y84601955D01*
X77059504Y84584985D01*
X77064527Y84583497D01*
X77117600Y84569277D01*
X77127330Y84565542D01*
X77134372Y84561954D01*
X77148869Y84555950D01*
X77156373Y84553512D01*
X77165896Y84549272D01*
X77213461Y84521811D01*
X77218060Y84519314D01*
X77267011Y84494372D01*
X77275752Y84488695D01*
X77281896Y84483720D01*
X77294823Y84474836D01*
X77301658Y84470890D01*
X77310093Y84464761D01*
X77350901Y84428017D01*
X77354882Y84424617D01*
X77399619Y84388390D01*
X77403498Y84384897D01*
X78669816Y83118579D01*
X78673325Y83114682D01*
X78709545Y83069953D01*
X78712946Y83065971D01*
X78749686Y83025167D01*
X78755816Y83016730D01*
X78759763Y83009893D01*
X78768654Y82996957D01*
X78773615Y82990831D01*
X78779300Y82982077D01*
X78804218Y82933173D01*
X78806715Y82928573D01*
X78834202Y82880963D01*
X78838438Y82871450D01*
X78840880Y82863932D01*
X78846888Y82849427D01*
X78850468Y82842402D01*
X78854202Y82832675D01*
X78868413Y82779639D01*
X78869901Y82774619D01*
X78886881Y82722360D01*
X78889050Y82712156D01*
X78889876Y82704298D01*
X78892736Y82688868D01*
X78894776Y82681254D01*
X78896407Y82670956D01*
X78899281Y82616122D01*
X78899692Y82610903D01*
X78905710Y82553649D01*
X78905984Y82548417D01*
X78905984Y50803262D01*
X78905710Y50798033D01*
X78899693Y50740791D01*
X78899282Y50735570D01*
X78896408Y50680730D01*
X78894777Y50670428D01*
X78892735Y50662809D01*
X78889875Y50647376D01*
X78889051Y50639530D01*
X78886881Y50629320D01*
X78869907Y50577079D01*
X78868421Y50572061D01*
X78854207Y50519014D01*
X78850468Y50509276D01*
X78846887Y50502248D01*
X78840879Y50487744D01*
X78838440Y50480237D01*
X78834199Y50470711D01*
X78806730Y50423133D01*
X78804233Y50418533D01*
X78779300Y50369601D01*
X78773619Y50360851D01*
X78768650Y50354715D01*
X78759767Y50341790D01*
X78755819Y50334952D01*
X78749692Y50326519D01*
X78712943Y50285706D01*
X78709542Y50281723D01*
X78673326Y50236999D01*
X78669817Y50233102D01*
X77402575Y48965860D01*
X77398688Y48962361D01*
X77353977Y48926155D01*
X77349994Y48922754D01*
X77309161Y48885988D01*
X77300734Y48879866D01*
X77293893Y48875916D01*
X77280957Y48867025D01*
X77274826Y48862060D01*
X77266073Y48856375D01*
X77217141Y48831443D01*
X77212540Y48828946D01*
X77164967Y48801480D01*
X77155442Y48797239D01*
X77147932Y48794799D01*
X77133427Y48788791D01*
X77126398Y48785209D01*
X77116679Y48781479D01*
X77063649Y48767269D01*
X77058630Y48765782D01*
X77006354Y48748797D01*
X76996157Y48746629D01*
X76988289Y48745802D01*
X76972871Y48742944D01*
X76965252Y48740903D01*
X76954952Y48739272D01*
X76900114Y48736398D01*
X76894894Y48735987D01*
X76837649Y48729970D01*
X76832417Y48729696D01*
X76069080Y48729696D01*
X76021940Y48717888D01*
X75928946Y48668182D01*
X75919919Y48664443D01*
X75753919Y48614087D01*
X75744330Y48612180D01*
X75569248Y48594936D01*
X75564351Y48594696D01*
X74299265Y48594696D01*
X74299265Y47924696D01*
X75564358Y47924696D01*
X75569251Y47924455D01*
X75744322Y47907212D01*
X75753923Y47905303D01*
X75919919Y47854948D01*
X75928946Y47851209D01*
X76081932Y47769437D01*
X76090064Y47764003D01*
X76224154Y47653957D01*
X76231069Y47647042D01*
X76341115Y47512952D01*
X76346549Y47504820D01*
X76428321Y47351834D01*
X76432060Y47342807D01*
X76482415Y47176811D01*
X76484324Y47167210D01*
X76501326Y46994590D01*
X76501326Y46984802D01*
X76484324Y46812181D01*
X76482415Y46802580D01*
X76432060Y46636584D01*
X76428321Y46627557D01*
X76346549Y46474571D01*
X76341115Y46466439D01*
X76231069Y46332349D01*
X76224154Y46325434D01*
X76090064Y46215388D01*
X76081932Y46209954D01*
X75928946Y46128182D01*
X75919919Y46124443D01*
X75753919Y46074087D01*
X75744330Y46072180D01*
X75569248Y46054936D01*
X75564351Y46054696D01*
X74299265Y46054696D01*
X74299265Y45384696D01*
X75564358Y45384696D01*
X75569251Y45384455D01*
X75744322Y45367212D01*
X75753923Y45365303D01*
X75919919Y45314948D01*
X75928946Y45311209D01*
X76081932Y45229437D01*
X76090064Y45224003D01*
X76224154Y45113957D01*
X76231069Y45107042D01*
X76341115Y44972952D01*
X76346549Y44964820D01*
X76428321Y44811834D01*
X76432060Y44802807D01*
X76482415Y44636811D01*
X76484324Y44627210D01*
X76501326Y44454590D01*
X76501326Y44444802D01*
X76484324Y44272181D01*
X76482415Y44262580D01*
X76432060Y44096584D01*
X76428321Y44087557D01*
X76346549Y43934571D01*
X76341115Y43926439D01*
X76231069Y43792349D01*
X76224154Y43785434D01*
X76090064Y43675388D01*
X76081932Y43669954D01*
X75928946Y43588182D01*
X75919919Y43584443D01*
X75753919Y43534087D01*
X75744330Y43532180D01*
X75569248Y43514936D01*
X75564351Y43514696D01*
X74299265Y43514696D01*
X74299265Y42844696D01*
X75564358Y42844696D01*
X75569251Y42844455D01*
X75744322Y42827212D01*
X75753923Y42825303D01*
X75919919Y42774948D01*
X75928946Y42771209D01*
X76081932Y42689437D01*
X76090064Y42684003D01*
X76224154Y42573957D01*
X76231069Y42567042D01*
X76341115Y42432952D01*
X76346549Y42424820D01*
X76428321Y42271834D01*
X76432060Y42262807D01*
X76482415Y42096811D01*
X76484324Y42087210D01*
X76501326Y41914590D01*
X76501326Y41904802D01*
X76484324Y41732181D01*
X76482415Y41722580D01*
X76432060Y41556584D01*
X76428321Y41547557D01*
X76346549Y41394571D01*
X76341115Y41386439D01*
X76231069Y41252349D01*
X76224154Y41245434D01*
X76090064Y41135388D01*
X76081932Y41129954D01*
X75928946Y41048182D01*
X75919919Y41044443D01*
X75753919Y40994087D01*
X75744330Y40992180D01*
X75569248Y40974936D01*
X75564351Y40974696D01*
X74299265Y40974696D01*
X74299265Y40304696D01*
X75564358Y40304696D01*
X75569251Y40304455D01*
X75744322Y40287212D01*
X75753923Y40285303D01*
X75919919Y40234948D01*
X75928946Y40231209D01*
X76081932Y40149437D01*
X76090064Y40144003D01*
X76224154Y40033957D01*
X76231069Y40027042D01*
X76341115Y39892952D01*
X76346549Y39884820D01*
X76428321Y39731834D01*
X76432060Y39722807D01*
X76482415Y39556811D01*
X76484324Y39547210D01*
X76501326Y39374590D01*
X76501326Y39364802D01*
X76484324Y39192181D01*
X76482415Y39182580D01*
X76432060Y39016584D01*
X76428321Y39007557D01*
X76346549Y38854571D01*
X76341115Y38846439D01*
X76231069Y38712349D01*
X76224154Y38705434D01*
X76090064Y38595388D01*
X76081932Y38589954D01*
X75928946Y38508182D01*
X75919919Y38504443D01*
X75753919Y38454087D01*
X75744330Y38452180D01*
X75569248Y38434936D01*
X75564351Y38434696D01*
X74299265Y38434696D01*
X74299265Y37764696D01*
X75564358Y37764696D01*
X75569251Y37764455D01*
X75744322Y37747212D01*
X75753923Y37745303D01*
X75919919Y37694948D01*
X75928946Y37691209D01*
X76081932Y37609437D01*
X76090064Y37604003D01*
X76224154Y37493957D01*
X76231069Y37487042D01*
X76341115Y37352952D01*
X76346549Y37344820D01*
X76428321Y37191834D01*
X76432060Y37182807D01*
X76482415Y37016811D01*
X76484324Y37007210D01*
X76501326Y36834590D01*
X76501326Y36824802D01*
X76484324Y36652181D01*
X76482415Y36642580D01*
X76432060Y36476584D01*
X76428321Y36467557D01*
X76346549Y36314571D01*
X76341115Y36306439D01*
X76231069Y36172349D01*
X76224154Y36165434D01*
X76090064Y36055388D01*
X76081932Y36049954D01*
X75928946Y35968182D01*
X75919919Y35964443D01*
X75753919Y35914087D01*
X75744330Y35912180D01*
X75569248Y35894936D01*
X75564351Y35894696D01*
X74299265Y35894696D01*
X74299265Y32684696D01*
X75564358Y32684696D01*
X75569251Y32684455D01*
X75744322Y32667212D01*
X75753923Y32665303D01*
X75919919Y32614948D01*
X75928946Y32611209D01*
X76081932Y32529437D01*
X76090064Y32524003D01*
X76224154Y32413957D01*
X76231069Y32407042D01*
X76341115Y32272952D01*
X76346549Y32264820D01*
X76428321Y32111834D01*
X76432060Y32102807D01*
X76482415Y31936811D01*
X76484324Y31927210D01*
X76501326Y31754590D01*
X76501326Y31744802D01*
X76484324Y31572181D01*
X76482415Y31562580D01*
X76432060Y31396584D01*
X76428321Y31387557D01*
X76346549Y31234571D01*
X76341115Y31226439D01*
X76231069Y31092349D01*
X76224154Y31085434D01*
X76090064Y30975388D01*
X76081932Y30969954D01*
X75928946Y30888182D01*
X75919919Y30884443D01*
X75753919Y30834087D01*
X75744330Y30832180D01*
X75569248Y30814936D01*
X75564351Y30814696D01*
X74299265Y30814696D01*
X74299265Y25700000D01*
X79610000Y25700000D01*
X79669327Y25719500D01*
G37*
G04 --- BOARD END --- *
%TF.MD5,d296eb4ba9327d270394e95d5752bbc5*%
M02*
